307 610
v -0.4858401805 0.83227101999999997 0.003099671763
v 0.03509666308 -0.5780654663 0.712053504
v -0.00033229349230000003 0.3767791506 0.81422941910000002
v 0.80989335230000004 -0.11786658429999999 0.45212788659999997
v -0.64901828289999997 0.024856740259999999 0.62564860330000005
v -0.4164769445 0.69659564959999998 0.45021665830000002
v 0.0022822371600000001 0.90177168220000004 0.00018589326920000001
v -0.29342461289999999 0.77601344400000005 -0.3908494274
v -0.50974425690000003 0.28493882120000003 -0.74221253740000004
v -0.89197466700000005 0.0034950404060000002 -0.1232411424
v 0.47140643580000002 0.26401687550000003 0.75087281510000004
v -0.45821965190000002 -0.28506983330000002 0.74529360160000002
v -0.71620565609999998 -0.50802936320000003 -0.24269215890000001
v 0.0013914213320000001 0.1269234189 -0.92496486889999996
v 0.70424578120000003 -0.42045800519999998 0.40783904780000002
v 0.32009595190000001 -0.75692633710000001 0.40693467309999998
v -0.36448111049999998 -0.73849942410000002 -0.38412861390000003
v 0.67828185500000004 -0.54889543569999999 -0.24541327069999999
v -0.68028458739999997 0.62847185910000003 0.192986783
v -0.22023231369999999 0.7019365689 0.56205654660000004
v -0.23870838550000001 0.91055202219999998 -0.01334000649
v 0.2112073662 0.68168323269999997 0.5951545654
v 0.3128060252 0.8143714863 -0.007001119892
v -0.091052330459999997 0.89674611979999996 -0.15134724629999999
v 0.40022186970000001 0.79072986889999997 -0.2381732174
v 0.073074013909999999 0.88827911199999998 -0.25290777240000001
v 0.21473191229999999 0.6896172518 -0.59615837829999996
v -0.59131591819999996 0.64314675269999999 -0.20781862300000001
v -0.42682792549999998 0.60965609730000003 -0.5329991932
v -0.66896625359999995 0.32960037660000002 -0.52153663120000004
v -0.67190750659999998 0.1669240954 -0.60202228690000004
v -0.77982772379999998 0.4891468256 -0.091978363160000007
v -0.87187138350000004 0.24929382520000001 0.13393609179999999
v -0.87879656569999998 0.077639672140000004 0.20322813749999999
v 0.43976316469999999 0.53403804040000002 0.6282407136
v 0.81310045639999995 0.2438072245 0.40799580089999998
v 0.58768172789999995 0.36995583700000001 0.58381804049999997
v 0.65941958199999995 0.28076706779999999 0.61414579020000004
v -0.3479049816 0.21735590439999999 0.82392153560000003
v 0.0022822371600000001 0.2528120203 0.89175477079999999
v -0.62521532970000004 -0.1141504703 0.69401168089999998
v -0.52372131 0.032856963789999999 0.75019210719999996
v -0.85245556889999996 -0.26101313479999999 -0.14865876210000001
v -0.5734203926 -0.73545278729999997 0.19250163009999999
v -0.60726185200000005 -0.71550844840000005 -0.1529443845
v -0.01805067279 0.24864965620000001 -0.88554207890000003
v -0.30142965170000002 -0.47797544730000002 -0.72541845069999999
v -0.1267703926 -0.2106623343 -0.88377158460000005
v 0.44774722090000002 0.51665569259999999 -0.62624877000000001
v 0.23631688870000001 0.39025595060000001 -0.77665365870000003
v 0.72326384300000002 0.57896714599999999 -0.077256148869999999
v 0.57416861890000004 0.1028892235 -0.67018337689999996
v 0.7529927086 0.30095114969999998 -0.4164001618
v 0.62744946280000002 -0.62543182880000003 0.1062682707
v 0.54400600139999999 -0.63472524460000002 0.39218089160000003
v 0.3243787783 -0.7980009777 0.26181435930000002
v 0.80548915450000003 -0.24244223279999999 0.4041676132
v 0.102256623 -0.63433646659999998 0.64079880639999998
v 0.24745262730000001 -0.39153200770000002 0.79692736529999997
v 0.25668947190000002 -0.84357273050000003 0.055667985779999998
v -0.17815619769999999 -0.61084935880000002 0.63435907820000004
v -0.25450582999999999 -0.84199773629999997 0.33350824499999998
v -0.31842965470000001 -0.85055321299999997 0.31060363190000001
v 0.13195216409999999 -0.87359556559999996 -0.22735660099999999
v 0.42498991730000002 -0.76258518409999998 -0.24444212100000001
v 0.15834951289999999 -0.65387158109999999 -0.65636593269999999
v 0.033721378609999998 -0.71201890099999998 -0.5690693711
v 0.64371814630000002 -0.5510204112 -0.32451438939999999
v 0.22024625349999999 -0.38690220130000003 -0.79505432710000001
v 0.77789398519999997 -0.23412877109999999 -0.38991653380000002
v 0.86792940480000003 -0.25931717450000003 -0.2432577628
v 0.8401627733 -0.31615247330000001 0.18688509640000001
v 0.89869661909999998 0.049284487019999997 0.28716360200000002
v 0.23929787180000001 0.02494506807 0.85240418090000003
v -0.58789954619999996 -0.51960282609999997 0.46213970780000002
v -0.39285244120000001 -0.50574639990000003 0.62853172339999996
v -0.63837896130000005 -0.32710266449999997 0.52356409280000005
v -0.44330514180000002 -0.55188398770000002 -0.57043032989999998
v -0.62564825180000005 -0.38854639870000002 -0.53613077200000003
v 0.21913328709999999 -0.24669845479999999 -0.84942159179999999
v 0.2351487072 0.24809641860000001 -0.844951758
v 0.91501421149999995 0.14315510249999999 0.1788101248
v 0.78611706270000004 0.48397254979999998 0.00018589326920000001
v -0.58218054809999997 0.74368123959999999 0.077165565389999996
v -0.52586740730000003 0.73237833659999996 0.19713578209999999
v -0.72515512179999997 0.46826916819999997 0.2809065785
v -0.56211104540000001 0.66742353600000004 0.32182228959999998
v -0.43551796459999997 0.79226293989999996 0.33764290479999998
v -0.65533175489999995 0.27259364940000003 0.59047735239999999
v -0.83136193479999998 0.059974406080000001 0.37149759850000003
v -0.62824332729999999 0.38048079959999997 0.5524788061
v -0.50684926770000005 0.25111991239999998 0.69519665289999999
v -0.70141213599999996 0.43444302629999998 0.42168692320000001
v -0.1037995504 0.55468577569999999 0.73896793979999997
v -0.1097319258 0.384179457 0.81880345219999995
v -0.29859641339999998 0.66085247270000003 0.58170826769999995
v -0.31250247539999998 0.49262018670000002 0.72066711679999995
v -0.4114246211 0.43669211689999998 0.66447288400000004
v -0.52986709330000004 0.48394771399999997 0.5976691207
v -0.47939200520000003 0.60618726499999998 0.52959711580000002
v -0.4254487649 0.84153194190000002 0.1942435418
v -0.22349253929999999 0.83534782190000001 0.36257509599999999
v -0.18174120029999999 0.90798344149999999 0.2050349507
v 0.26100727699999998 0.74019452640000005 0.45116100260000003
v 0.058147952349999997 0.60342252249999995 0.69422289609999999
v 0.29614075880000001 0.80062470559999999 0.21299077020000001
v 0.43893754099999999 0.77914688060000004 0.1184443919
v 0.2019191051 0.876013347 0.1206230737
v 0.12836496380000001 0.90475675609999995 0.00018589326920000001
v 0.41390650289999997 0.70113771400000002 0.33329949850000001
v 0.16858016300000001 0.83134749519999995 0.29215327940000002
v -0.13517133549999999 0.77320444379999997 0.46504287309999998
v 0.079479156309999993 0.83082047820000005 0.37349874669999999
v -0.029150145629999999 0.87997957199999999 0.22671921480000001
v -0.41566897889999999 0.79124666870000004 -0.20531117809999999
v -0.1540361096 0.94462271450000002 -0.021179079119999999
v -0.28176090980000001 0.84923707449999997 -0.2784794397
v 0.44235012369999999 0.78523975670000001 -0.1189968285
v 0.22630192360000001 0.83582545029999999 -0.36228557360000002
v 0.28251127840000001 0.83385465709999995 -0.25282633360000001
v 0.2162350827 0.87530550529999995 -0.14987515509999999
v -0.0073599187150000002 0.49309912090000002 -0.78702328320000003
v -0.14567595219999999 0.67787225250000005 -0.61664765099999996
v 0.15274032269999999 0.78292127889999996 -0.48288280160000002
v -0.01076219927 0.79557372550000005 -0.47628733439999998
v -0.56741346459999997 0.71443940189999999 -0.098584351089999994
v -0.40297422970000002 0.67611012280000005 -0.41795991919999997
v -0.51544302929999997 0.67687492540000005 -0.35130067669999998
v -0.70763869349999997 0.55866905929999999 -0.2289195154
v -0.60893854300000005 0.5516361394 -0.42208999229999999
v -0.1180737359 0.44393596219999998 -0.79325245489999996
v -0.46313894189999999 0.40477101970000001 -0.69010165739999996
v -0.31507542119999998 0.45820763289999999 -0.73368749529999999
v -0.28876829679999999 0.5636393421 -0.65488287990000005
v -0.79664167720000001 0.00065684818990000005 -0.48846184079999999
v -0.79035952399999998 0.31040800769999999 -0.37532893010000001
v -0.52626433630000002 0.48042354469999998 -0.60547458600000004
v -0.71948915049999995 0.59564408889999998 -0.041967582439999998
v -0.76791752170000005 0.51862723440000003 0.1156783797
v -0.86110430650000003 -0.02772364683 -0.28314229819999998
v -0.81624112209999999 0.1485308743 -0.3690240232
v -0.89413659420000002 0.13950634149999999 -0.1132586005
v -0.80595426599999997 0.3501861973 -0.1891729603
v -0.82303528439999996 0.2591823768 0.28334544960000002
v -0.80998412129999997 0.34785585120000001 0.1148826807
v 0.39133397869999997 0.77240785739999995 0.23072225299999999
v 0.57236522739999995 0.69229003499999997 0.083620144909999999
v 0.41097903470000002 0.68185374180000002 0.42188145739999999
v 0.6400667847 0.59580368890000002 0.21756179389999999
v 0.72633446079999997 0.45458485589999997 0.30479812950000001
v 0.15552333600000001 0.37178220439999998 0.84169454870000004
v 0.33941153349999997 0.38155929030000002 0.73206587270000001
v 0.29369620549999997 0.57238432930000005 0.64648586929999996
v 0.73193065310000005 0.18772794500000001 0.53139454490000004
v 0.70207250430000001 0.43203015620000002 0.41934842970000002
v 0.71020472089999998 0.31231787480000001 0.46655044379999999
v 0.47979776489999998 0.5949781261 0.52102565359999997
v -0.35996544889999998 0.34676073559999998 0.79335971110000003
v 0.0001498523662 0.13121149709999999 0.92473217080000003
v -0.12131879230000001 0.075925623270000006 0.9175848767
v -0.53339906370000001 -0.17107063310000001 0.7321282201
v -0.48351206429999999 0.14588885879999999 0.78621758460000002
v -0.00021513663230000001 -0.24551492620000001 0.89317323240000002
v -0.1961696258 -0.42874869640000002 0.79519021639999998
v -0.1229294276 -0.077849078599999996 0.92953943130000005
v -0.1364281799 -0.2205005696 0.89923148789999996
v 0.049049399600000002 -0.058148051380000003 0.89011074840000004
v -0.3365117735 0.01541132628 0.87226692500000003
v -0.37919651739999999 -0.15008675390000001 0.85677071689999995
v -0.86108749090000003 -0.16762304820000001 0.20550322339999999
v -0.72514483320000001 -0.1738522683 0.47557189039999997
v -0.87969573160000003 -0.12233050249999999 0.19936318140000001
v -0.7729943091 -0.35331953300000002 0.33192244850000002
v -0.82408300310000004 -0.1513042658 -0.3673200948
v -0.82311003930000004 -0.2344183487 -0.31424162589999999
v -0.90173472720000003 -0.12226208600000001 -0.075089454979999998
v -0.72574584350000004 -0.58314891570000005 0.079777449119999996
v -0.58546351839999999 -0.7487891861 -0.077226179320000005
v -0.76103398050000004 -0.47340751739999998 0.088136559820000002
v -0.71108163570000005 -0.52660349579999999 0.27616513799999998
v -0.73764672630000006 -0.52520887130000005 -0.13849259019999999
v -0.84258106669999999 -0.3702556984 -0.075995383309999998
v -0.84601075579999996 -0.37175685310000001 0.076676424729999998
v -0.68937238649999999 -0.077719685610000006 -0.63682817349999998
v -0.74553362320000005 -0.077823399730000006 -0.58715984129999998
v -0.49003209930000002 0.14785311779999999 -0.79639543619999997
v -0.60643816039999998 0.033983928929999997 -0.76341044609999997
v -0.57483393100000002 -0.25011454789999998 -0.72367703279999995
v -0.4924605312 -0.091793132580000006 -0.80164173260000005
v 0.096505320290000002 0.31271333089999998 -0.84686441459999995
v -0.1218349294 0.33725363759999999 -0.87119570629999998
v -0.1229182226 0.022709998530000001 -0.91829516649999998
v -0.3282581369 0.22981920710000001 -0.87273953370000001
v 0.0022822371600000001 -0.37512260819999999 -0.84975667740000005
v -0.33248540679999999 -0.2017149426 -0.84595628869999995
v -0.1406793999 -0.3084793414 -0.86355432679999999
v -0.35829716769999997 -0.35298315479999998 -0.79305238619999996
v 0.0022822371600000001 -0.12898848469999999 -0.92256556860000005
v -0.36701194819999999 -0.02338529017 -0.90240951300000005
v -0.25442211240000001 -0.00046401396109999998 -0.92857916839999999
v 0.25411162570000001 0.5733764147 -0.6884515014
v 0.12485107500000001 0.45210669959999999 -0.80784061139999996
v 0.40730577179999999 0.3958650346 -0.71021922770000001
v 0.32396360530000001 0.47916985249999999 -0.72787887409999996
v 0.52924995379999995 0.69127802220000001 -0.036871973029999998
v 0.47792364520000002 0.71601193460000001 -0.26451561750000002
v 0.67330514559999999 0.52078442250000001 -0.35627167739999999
v 0.57165081679999996 0.61636749739999996 -0.33414019309999998
v 0.73235106240000003 0.47866440910000002 -0.23802946080000001
v 0.64684566799999998 0.0084683115699999995 -0.63045393439999997
v 0.78866419180000003 0.1086076941 -0.41901128259999998
v 0.445109957 0.26708828569999998 -0.71013708060000003
v 0.56868394850000004 0.2071267856 -0.67211041059999999
v 0.81534710300000002 0.35220130240000003 -0.27642145460000001
v 0.39782002900000002 0.64373817339999995 -0.5624732576
v 0.62500674940000001 0.39602793980000001 -0.54013613959999995
v 0.50932642939999995 -0.70402116219999999 0.1892654436
v 0.47414617619999999 -0.71939376700000002 0.059730944690000003
v 0.65923473929999998 -0.55930119089999997 0.34556626280000002
v 0.71589970999999997 -0.57132652809999995 0.16405640839999999
v 0.49378645799999998 -0.66146553649999995 0.28222303250000003
v 0.40671811320000001 -0.67566817739999996 0.41748501560000001
v 0.72987569770000005 -0.15169802569999999 0.53845356720000004
v 0.55768500379999997 -0.2291046866 0.66354159710000005
v 0.74304754640000004 -0.32775687139999998 0.48818661149999998
v 0.28404936530000002 -0.61501220749999996 0.62476655670000003
v 0.2070707541 -0.70459449190000001 0.54694926379999997
v 0.21238596570000001 -0.53471728090000004 0.73733458119999995
v 0.44557169540000002 -0.40947066030000001 0.68698963869999996
v 0.46577122830000001 -0.58594872200000003 0.4968483413
v 0.56228349450000004 -0.4315253242 0.55951316159999998
v 0.33789809380000002 -0.84942927800000001 -0.084643663349999995
v 0.064543416549999996 -0.85871215789999999 0.29562648060000002
v 0.16645193259999999 -0.87767263429999998 0.19263843389999999
v -0.20130545350000001 -0.78008828789999995 0.48998618599999999
v 0.060530885370000002 -0.73088740780000006 0.57235194099999998
v -0.3601091589 -0.85804219660000003 0.00047529448889999999
v -0.18599408940000001 -0.92373352679999998 0.1021512814
v -0.075010233280000005 -0.8576506465 0.37537142600000001
v 0.074598164920000001 -0.89683757949999998 -0.1205946105
v 0.38565379649999998 -0.73143016540000005 -0.46463865859999998
v 0.22543640579999999 -0.84649415279999995 -0.1706226247
v -0.44499913769999999 -0.80433389310000003 -0.088025036649999999
v -0.1086484011 -0.81962040010000003 -0.37463677010000002
v -0.39539826309999998 -0.80819894110000001 -0.24298685919999999
v -0.15520244750000001 -0.86656252389999999 -0.21837254919999999
v -0.073001183119999993 -0.9236173245 -0.1152776836
v -0.08989011442 -0.56650006460000002 -0.68535547350000003
v 0.13609501330000001 -0.80296748439999999 -0.44624883500000001
v -0.1531143019 -0.74829537560000003 -0.47914425329999999
v 0.12316862789999999 -0.4468224938 -0.79674919649999998
v 0.079692501200000002 -0.5810725417 -0.73111205130000001
v 0.34595650620000001 -0.44907305460000002 -0.69378831649999995
v 0.29595579960000001 -0.63190222709999999 -0.64203176090000003
v 0.79203647939999999 -0.12645788820000001 -0.45586383009999998
v 0.65049995149999995 -0.16083188009999999 -0.58071043980000003
v 0.70492012950000005 -0.43627789830000002 -0.41598881300000001
v 0.63130896960000005 -0.36596545720000001 -0.55036411699999999
v 0.49490656960000001 -0.56228513830000004 -0.52346582009999998
v 0.52033245890000002 -0.47180167639999998 -0.59344683730000003
v 0.79219464409999996 -0.45771332479999999 -0.16338719409999999
v 0.65550613980000005 -0.63455925089999998 -0.13980052139999999
v 0.78359602139999995 -0.47549713319999998 0.02927983281
v 0.8490465358 -0.12809461489999999 -0.30617329119999998
v 0.90515604490000001 -0.071198142399999997 -0.095263277960000003
v 0.88040665870000001 -0.1235007714 0.23761054840000001
v 0.86081598560000006 -0.24791328560000001 0.28246972300000001
v 0.93672869479999998 -0.057542241479999999 0.1193958702
v 0.91380567619999997 -0.2524028962 0.00018589326920000001
v 0.854119717 -0.37330825410000001 0.076996030909999999
v 0.03424542681 -0.4009554253 0.83323247730000005
v 0.39842286609999999 -0.28961178279999999 0.74305206940000001
v 0.26980453180000002 -0.12825180410000001 0.87149917939999999
v 0.671333285 -0.056136337010000002 0.65394879699999997
v 0.56948193290000004 0.073738979260000004 0.71367096269999997
v 0.4622409482 -0.064105973060000002 0.79822293710000003
v 0.13960817689999999 0.1245632978 0.86286267400000005
v 0.23006785669999999 0.33010092210000003 0.83313749650000002
v 0.3439667106 0.21070860399999999 0.78851587599999995
v -0.43420746770000002 -0.75691520729999995 0.39421184520000002
v -0.6632209698 -0.57360377939999996 0.32557794330000001
v -0.32543198010000002 -0.43430913389999998 0.76623697369999999
v -0.47560550889999997 -0.6104660878 0.53251009940000005
v -0.55946025759999995 -0.34763996870000002 0.66055380129999997
v -0.50339911829999995 -0.46054811000000001 0.57964516420000001
v -0.21373310870000001 -0.54503420089999999 -0.72259315120000001
v -0.62627599280000001 -0.57829344069999999 -0.33251846750000003
v -0.54636796350000005 -0.65302003559999999 -0.28425052239999998
v -0.56949070030000004 -0.35383912319999999 -0.67197350739999995
v -0.70934606060000005 -0.29279635329999998 -0.49565795579999999
v -0.70252548250000002 -0.4440007279 -0.42448763299999998
v -0.47961091049999999 -0.43248884780000002 -0.64925148850000003
v 0.48583822380000002 -0.225349103 -0.71677703739999998
v 0.47371741119999999 0.01313285055 -0.7223643354
v 0.1193195682 -0.072797062470000007 -0.86849561350000004
v 0.35722939279999999 -0.33759220979999999 -0.74749354970000004
v 0.1251528096 0.1745886395 -0.87854530909999995
v 0.24077005260000001 -0.005355789148 -0.87127359540000004
v 0.33521487150000001 0.1605368693 -0.80397824799999995
v 0.93655617400000002 0.12541057550000001 0.077980667850000004
v 0.78104757879999998 0.33556133500000002 0.32338194409999999
v 0.7984918016 0.47815048300000002 0.14756915709999999
v 0.90897382039999997 0.089832605709999999 -0.2137966275
v 0.89953126959999996 0.089689484979999998 -0.04967429248
v 0.66099159149999998 0.58876258739999998 0.042692450360000002
v 0.8637556971 0.3509048334 0.065703684040000002
v 0.8743406104 0.33985838540000002 -0.115351985
f 1 84 101
f 19 85 84
f 84 85 101
f 86 87 19
f 87 6 88
f 19 87 85
f 101 85 88
f 87 88 85
f 144 90 89
f 5 89 90
f 91 89 92
f 86 144 93
f 91 93 89
f 144 89 93
f 3 94 95
f 97 95 94
f 6 96 20
f 92 158 98
f 158 97 98
f 20 96 94
f 98 97 96
f 96 97 94
f 91 99 93
f 87 86 99
f 93 99 86
f 92 98 91
f 98 99 91
f 87 100 6
f 98 96 100
f 6 100 96
f 98 100 99
f 87 99 100
f 21 1 101
f 6 102 88
f 101 88 102
f 7 116 114
f 21 103 116
f 116 103 114
f 21 101 103
f 102 103 101
f 3 105 94
f 20 94 105
f 113 105 104
f 104 105 22
f 6 20 112
f 113 112 20
f 113 20 105
f 205 23 107
f 146 107 106
f 23 106 107
f 7 111 109
f 23 109 108
f 111 108 109
f 104 110 111
f 146 106 110
f 110 106 111
f 23 108 106
f 111 106 108
f 6 112 102
f 103 102 112
f 111 113 104
f 7 114 111
f 111 114 113
f 103 112 114
f 113 114 112
f 1 21 115
f 7 24 116
f 115 117 8
f 24 117 116
f 115 21 117
f 116 117 21
f 205 118 23
f 25 23 118
f 215 119 120
f 26 120 119
f 7 109 121
f 23 121 109
f 25 120 23
f 26 121 120
f 120 121 23
f 123 124 122
f 122 124 27
f 215 27 124
f 125 124 123
f 7 121 24
f 121 26 24
f 215 124 119
f 26 119 125
f 124 125 119
f 8 117 123
f 24 125 117
f 117 125 123
f 24 26 125
f 1 115 126
f 115 8 128
f 127 128 8
f 128 130 28
f 129 28 130
f 115 128 126
f 128 28 126
f 133 134 131
f 123 122 134
f 131 134 122
f 9 132 133
f 29 133 132
f 8 123 29
f 123 134 29
f 29 134 133
f 136 31 141
f 141 31 135
f 129 30 136
f 31 30 9
f 9 30 132
f 136 30 31
f 8 29 127
f 128 127 29
f 30 137 132
f 29 132 137
f 129 130 30
f 30 130 137
f 128 29 130
f 137 130 29
f 1 126 84
f 28 138 126
f 19 84 138
f 126 138 84
f 28 129 138
f 32 138 129
f 86 19 139
f 32 139 138
f 19 138 139
f 135 140 141
f 140 10 142
f 129 136 143
f 142 143 141
f 136 141 143
f 140 142 141
f 86 145 144
f 33 144 145
f 33 34 144
f 144 34 90
f 129 143 32
f 10 34 142
f 34 33 142
f 86 139 145
f 32 145 139
f 142 33 143
f 32 143 145
f 33 145 143
f 205 107 147
f 107 146 147
f 104 148 110
f 149 110 148
f 147 146 149
f 110 149 146
f 3 151 105
f 22 105 151
f 35 152 11
f 104 22 153
f 278 152 151
f 35 153 152
f 22 151 153
f 152 153 151
f 36 154 4
f 150 155 301
f 37 156 155
f 36 301 156
f 155 156 301
f 11 38 37
f 36 156 154
f 37 38 156
f 156 38 154
f 104 153 148
f 35 157 153
f 149 148 157
f 153 157 148
f 37 35 11
f 149 157 150
f 37 155 157
f 150 157 155
f 37 157 35
f 40 3 95
f 92 39 158
f 167 159 160
f 39 160 159
f 97 158 95
f 39 159 158
f 40 95 159
f 158 159 95
f 41 5 171
f 42 41 161
f 89 42 92
f 92 42 162
f 89 5 42
f 41 42 5
f 2 271 164
f 271 163 164
f 163 167 166
f 165 166 167
f 12 282 169
f 164 166 282
f 282 166 169
f 164 163 166
f 92 162 39
f 42 168 162
f 162 168 39
f 12 169 161
f 42 161 169
f 167 160 165
f 39 168 160
f 166 165 168
f 160 168 165
f 42 169 168
f 166 168 169
f 5 90 171
f 34 170 90
f 90 170 171
f 10 172 34
f 171 170 173
f 34 172 170
f 135 174 140
f 43 175 13
f 13 175 291
f 43 176 10
f 43 10 175
f 140 174 10
f 175 10 174
f 243 44 178
f 45 178 177
f 44 177 178
f 44 180 177
f 179 177 180
f 45 181 13
f 179 181 177
f 45 177 181
f 10 176 172
f 170 172 43
f 176 43 172
f 179 182 181
f 43 13 182
f 181 182 13
f 180 173 179
f 170 183 173
f 173 183 179
f 179 183 182
f 170 43 183
f 182 183 43
f 31 184 135
f 135 184 185
f 189 187 186
f 31 9 187
f 186 187 9
f 184 187 188
f 188 187 189
f 31 187 184
f 122 190 131
f 46 191 190
f 133 131 191
f 190 191 131
f 193 46 192
f 192 46 14
f 9 133 193
f 133 191 193
f 46 193 191
f 248 286 194
f 47 196 286
f 48 194 196
f 286 196 194
f 188 195 197
f 47 197 196
f 195 196 197
f 14 198 192
f 195 192 48
f 198 48 192
f 195 48 196
f 9 193 186
f 189 186 199
f 193 199 186
f 195 200 192
f 193 192 200
f 188 189 195
f 189 199 195
f 193 200 199
f 195 199 200
f 122 27 202
f 50 202 201
f 27 201 202
f 49 201 215
f 215 201 27
f 50 204 203
f 49 203 204
f 49 204 201
f 50 201 204
f 51 206 205
f 25 118 206
f 205 206 118
f 51 209 208
f 207 208 209
f 215 120 206
f 25 206 120
f 51 208 206
f 255 210 211
f 53 211 52
f 210 52 211
f 216 213 212
f 209 214 207
f 216 207 53
f 214 53 207
f 216 53 213
f 213 53 52
f 208 215 206
f 208 207 216
f 216 212 49
f 203 49 212
f 208 216 215
f 216 49 215
f 54 217 218
f 56 218 217
f 15 219 220
f 55 221 219
f 54 220 221
f 219 221 220
f 56 221 16
f 55 222 221
f 16 221 222
f 54 221 217
f 56 217 221
f 57 4 223
f 272 229 224
f 231 224 229
f 57 225 15
f 231 15 225
f 274 224 223
f 231 225 224
f 57 223 225
f 224 225 223
f 58 228 2
f 59 271 228
f 2 228 271
f 16 226 227
f 58 227 226
f 59 228 272
f 226 229 228
f 272 228 229
f 58 226 228
f 231 230 15
f 55 219 230
f 15 230 219
f 226 231 229
f 16 222 226
f 55 230 222
f 222 230 226
f 226 230 231
f 56 60 218
f 218 60 232
f 234 56 233
f 233 56 16
f 60 234 240
f 56 234 60
f 61 58 2
f 235 236 61
f 58 236 227
f 61 236 58
f 240 238 247
f 237 247 238
f 235 63 62
f 62 63 238
f 238 63 237
f 16 227 233
f 236 233 227
f 236 235 239
f 62 239 235
f 240 234 238
f 62 238 233
f 234 233 238
f 236 239 233
f 62 233 239
f 65 218 232
f 64 242 240
f 60 240 242
f 65 242 241
f 241 242 64
f 60 242 232
f 65 232 242
f 245 237 243
f 246 245 244
f 244 245 17
f 237 246 247
f 245 246 237
f 66 248 252
f 241 249 66
f 249 67 66
f 248 67 250
f 66 67 248
f 246 64 247
f 247 64 240
f 17 250 244
f 67 244 250
f 241 64 249
f 246 244 64
f 67 249 244
f 244 249 64
f 262 218 65
f 68 65 241
f 262 68 18
f 262 65 68
f 248 251 252
f 69 252 251
f 293 253 296
f 69 296 253
f 241 66 254
f 69 253 252
f 66 252 254
f 253 254 252
f 70 256 255
f 256 258 293
f 70 257 256
f 257 258 256
f 253 259 254
f 68 241 259
f 254 259 241
f 293 258 253
f 258 260 253
f 18 68 257
f 258 257 259
f 68 259 257
f 253 260 259
f 258 259 260
f 262 54 218
f 263 262 261
f 261 262 18
f 15 220 263
f 263 220 262
f 262 220 54
f 303 264 211
f 70 255 264
f 211 264 255
f 71 264 265
f 303 265 264
f 18 257 261
f 70 71 257
f 257 71 261
f 70 264 71
f 57 266 4
f 4 266 73
f 57 15 267
f 72 267 15
f 73 266 268
f 72 268 266
f 57 267 266
f 72 266 267
f 71 263 261
f 304 268 265
f 72 269 268
f 71 265 269
f 268 269 265
f 15 263 72
f 263 270 72
f 71 269 263
f 72 270 269
f 269 270 263
f 273 59 272
f 163 273 167
f 163 271 273
f 59 273 271
f 4 154 223
f 38 274 154
f 154 274 223
f 38 11 275
f 276 275 11
f 272 224 276
f 38 275 274
f 276 224 275
f 275 224 274
f 40 151 3
f 167 277 159
f 40 159 277
f 11 152 279
f 74 279 278
f 152 278 279
f 40 277 151
f 74 278 277
f 277 278 151
f 276 273 272
f 11 279 276
f 279 74 276
f 273 74 167
f 167 74 277
f 276 74 273
f 243 237 44
f 63 44 237
f 235 280 63
f 44 281 180
f 63 280 44
f 75 281 280
f 280 281 44
f 61 2 164
f 12 76 282
f 235 61 283
f 76 283 61
f 76 61 282
f 282 61 164
f 180 77 173
f 171 173 77
f 12 161 284
f 41 77 161
f 161 77 284
f 41 171 77
f 235 283 280
f 75 280 283
f 12 284 76
f 77 285 284
f 284 285 76
f 180 281 77
f 281 75 77
f 76 285 283
f 77 75 285
f 285 75 283
f 78 286 250
f 248 250 286
f 188 197 292
f 78 292 47
f 197 47 292
f 78 47 286
f 245 243 45
f 178 45 243
f 45 13 288
f 287 288 13
f 245 288 17
f 287 17 288
f 245 45 288
f 135 185 174
f 184 175 185
f 185 175 174
f 79 290 289
f 184 188 290
f 289 290 188
f 175 290 291
f 79 291 290
f 184 290 175
f 287 78 17
f 17 78 250
f 13 291 287
f 79 287 291
f 188 292 289
f 79 289 292
f 79 292 287
f 287 292 78
f 256 210 255
f 256 293 294
f 294 212 52
f 213 52 212
f 256 294 210
f 294 52 210
f 248 194 251
f 48 69 194
f 194 69 251
f 14 295 198
f 48 198 80
f 295 80 198
f 69 80 296
f 48 80 69
f 122 202 190
f 50 190 202
f 212 299 203
f 50 203 81
f 299 81 203
f 46 297 14
f 50 81 190
f 46 190 297
f 81 297 190
f 80 298 296
f 294 293 298
f 296 298 293
f 14 297 295
f 81 298 297
f 80 295 298
f 297 298 295
f 294 299 212
f 81 299 298
f 294 298 299
f 36 4 73
f 304 300 268
f 73 268 82
f 300 82 268
f 150 301 302
f 82 302 301
f 36 73 301
f 82 301 73
f 307 303 214
f 53 214 303
f 307 304 303
f 265 303 304
f 53 303 211
f 51 205 305
f 147 305 205
f 150 302 149
f 83 305 302
f 147 149 305
f 302 305 149
f 83 51 305
f 307 306 304
f 82 300 306
f 304 306 300
f 209 51 214
f 83 307 51
f 51 307 214
f 82 306 302
f 83 302 306
f 83 306 307
