642 1280
v -0.50354542972834693 0.81798234351450416 0.00018589326924111553
v 0.45788559554415958 0.73671770529295477 0.00018589326924111773
v -0.48253407118858505 -0.78491327916947473 0.00018589326924111648
v 0.45695441380653806 -0.73613904951389597 0.00018589326924111778
v 0.0022822371600968896 -0.47737821463482677 0.7718492796768871
v 0.0022822371600968901 0.47359160156567792 0.76722399174925227
v 0.0022822371600968905 -0.47050541335316104 -0.76035706706674588
v 0.0022822371600968879 0.48883704103270043 -0.79151984444184142
v 0.76386568692445755 -0.0004640139610580149 -0.47049856395453193
v 0.78220141700000312 -0.00046401396105801734 0.48220245488824504
v -0.7968576226448203 -0.00046401396105801989 -0.49370970185502355
v -0.75748146110823089 -0.00046401396105801468 0.46974568221738738
v -0.7344326842606641 0.45485084749618043 0.28158595323276392
v -0.44962010047703366 0.27882699029421942 0.73137923516164904
v -0.27866010961256094 0.73505259876891949 0.45476015922656088
v 0.28251247498670284 0.73318827334446268 0.45360794274815602
v 0.0022822371600968901 0.90177168224436044 0.00018589326924111691
v 0.28865229702198381 0.74926253611770388 -0.46317059694763391
v -0.28065251732986318 0.74026878989226419 -0.45761215609412115
v -0.4722454902820229 0.29281025020241813 -0.76761609833635469
v -0.74026562315576749 0.45845580198765551 -0.28344215109790988
v -0.88346105451481904 -0.00046401396105801387 0.00018589326924111732
v 0.46305964698744523 0.28431208656038304 0.74573940361803048
v 0.73865412532725772 0.45463884128618409 0.28145492618916018
v -0.45821965186970959 -0.28506983326501073 0.74529360160300007
v 0.0022822371600968896 -0.0004640139610580162 0.90731203279693173
v -0.7322787617455685 -0.45444767809483361 -0.28039144150264877
v -0.74053041763325589 -0.4595474818968926 0.28391508012675942
v 0.0022822371600968888 -0.00046401396105801756 -0.91877447657665157
v -0.46733085468235108 -0.29070086628161679 -0.75966405089376532
v 0.73626358579474027 0.45316140660363796 -0.2801700348007064
v 0.44305606175920792 0.271949190992477 -0.71300113628340478
v 0.73436338621808583 -0.4529150466019734 0.27981600968631493
v 0.44641342290335811 -0.27495218221418621 0.71880524726563033
v 0.28549891763504731 -0.74193490962539665 0.45844010845862954
v -0.2893723755674607 -0.7640257030574914 0.47209296963811709
v 0.0022822371600968901 -0.90431992281024276 0.00018589326924111686
v -0.27380844576870417 -0.7232788058458296 -0.44653821568672947
v 0.29276295624844112 -0.76095240961085353 -0.46982178329221025
v 0.44974017786625597 -0.27700822985349943 -0.72381626332935911
v 0.73145547684456669 -0.45111785977293412 -0.27833350060335271
v 0.90507076475144366 -0.00046401396105801571 0.00018589326924111691
v -0.65559456152373241 0.6652509817112785 0.15249561373947643
v -0.54295540014630395 0.63791133096468866 0.39472355401329023
v -0.41572878396626389 0.83063632343559923 0.25056742625767503
v -0.63521923168693417 0.14539070036964782 0.63018135410117682
v -0.63392528067297604 0.39273385595798593 0.54357198519330008
v -0.76951955069258549 0.23205293508878833 0.38837205916352091
v -0.14491762168239267 0.63534157745510633 0.6435667168289988
v -0.37968535935197073 0.52740222181751373 0.61822244702687246
v -0.23269467107025246 0.3918290444691771 0.78015311121773068
v -0.15061429685780597 0.89460788646590894 0.24757768207226252
v -0.25543335501595066 0.90673276019038229 0.00018589326924111599
v 0.15060232669948861 0.64018022979055844 0.64846301872777357
v 0.0022822371600968901 0.76485336353434163 0.4731780447423321
v 0.24292889255964223 0.84664759323913363 0.00018589326924111743
v 0.14691600428955628 0.84623680657760947 0.23420824440564383
v 0.39101052449346496 0.77241563377608913 0.23302756389369822
v -0.1456582967412422 0.86559495643879925 -0.23918691889693158
v -0.39774547962665446 0.79488145203559823 -0.2394239445217404
v 0.40022186972414386 0.79072986890909092 -0.23817321738234362
v 0.1524656460006574 0.87872497503054781 -0.24281596678110728
v -0.14591662833417335 0.6396566224562279 -0.64756138639596761
v 0.0022822371600968879 0.7921815273571885 -0.48969599229649441
v 0.15068330088164608 0.6405299844586736 -0.6484451539689261
v -0.53974102395767132 0.63414787377146054 -0.3920258230141877
v -0.62393313978558773 0.63321233362768981 -0.14479366704901009
v -0.2380423809085033 0.40075702579229644 -0.79753216835299112
v -0.38371616351380256 0.53297265616717082 -0.62437263862422865
v -0.79451337078242001 0.23958270100000478 -0.40057118829850191
v -0.62936476813861963 0.38991530420563364 -0.53930505593211753
v -0.6479388634701555 0.14830083995487706 -0.6423794370900161
v -0.78308261476763541 0.48491815809980915 0.00018589326924111645
v -0.87459945030338038 -0.00046401396105801674 -0.24891781806655069
v -0.85601762915517676 0.23676423458058543 -0.14642922742110223
v -0.87537986316517569 0.24211582444132332 0.15010847838736976
v -0.86204247592755834 -0.00046401396105801533 0.24572243133082089
v 0.52956388605730953 0.61688809355425156 0.38173047874008181
v 0.62819443147603027 0.6329055387635808 0.14509526162802333
v 0.24086464258774432 0.39784840838600549 0.79212096644008656
v 0.39720949155788554 0.54531202853300964 0.63919161396853963
v 0.81310045643453521 0.24380722451877196 0.40799580085324538
v 0.6221610913704898 0.3826421868483057 0.52962564148693936
v 0.65198460003080283 0.1481821573299287 0.64223859354081037
v -0.23783875864439896 0.14793892285859134 0.86895181750237804
v 0.0022822371600968883 0.25281202027984589 0.89175477077921805
v -0.65047350179210306 -0.14980877077360588 0.64525601885754413
v -0.48060640596029941 -0.00046401396105801756 0.78151613061936009
v 0.0022822371600968879 -0.25451895946243647 0.89449665293266589
v -0.2409104650303697 -0.1507653697306974 0.88006535561028032
v -0.23996828551584792 -0.40490034416295079 0.80429667862734022
v -0.85379203757639666 -0.23707712411934176 0.14642083753088347
v -0.76555877644951276 -0.23178771993040204 0.38637994435944806
v -0.77930157218113505 -0.23592794477209675 -0.39292024751509458
v -0.86125912847538555 -0.23914097728440531 -0.14732458239619955
v -0.65165927347671149 -0.66219683505232818 0.15158452731172767
v -0.76319731751041386 -0.47355639644056707 0.00018589326924111697
v -0.65043146413330888 -0.66095439711658566 -0.15092848192985936
v -0.49448176845699721 -0.00046401396105802043 -0.80359515220676059
v -0.65726521920322722 -0.15136265582520581 -0.6515959833492202
v 0.0022822371600968888 0.25061613169901992 -0.88365313359374642
v -0.24667474464896952 0.15339986253353433 -0.90054892865255043
v -0.23461087285625279 -0.39595616401634193 -0.78614184149475397
v -0.23988049099322714 -0.15012881076821333 -0.87596708799788625
v 0.0022822371600968905 -0.24472681650322384 -0.85965508352377396
v 0.39805856919910876 0.54648542497409247 -0.6401936639126441
v 0.23631688874739681 0.39025595057194296 -0.77665365865449865
v 0.63030931507546928 0.63504561989893127 -0.14521310678122265
v 0.53345351713076605 0.62144215293727301 -0.38417325568709221
v 0.61961189769987313 0.1407755685119762 -0.60987526420598859
v 0.63312546715311535 0.38941854374739449 -0.53861854986309787
v 0.77986748531099004 0.23379528988072554 -0.39090912735185962
v 0.62004261339885891 -0.62558462471537213 0.14320797644766403
v 0.54400600138825439 -0.63472524462750535 0.39218089156744268
v 0.38673813691486797 -0.76484919007280772 0.23046847598121353
v 0.64989494315208562 -0.14863209018561968 0.64017354049760888
v 0.6254633341836735 -0.38561111306807427 0.53244609356671335
v 0.80548915453970416 -0.24244223275275367 0.40416761316759786
v 0.14803532718356224 -0.63002052530435038 0.63724318281474146
v 0.38546674384523855 -0.53001197823756252 0.6201914490481617
v 0.24196771588566127 -0.40061801300164229 0.79578243691328787
v 0.15040079010464785 -0.86756512599181179 0.23984674629797542
v 0.24396887402668016 -0.85123650882469204 0.00018589326924111735
v -0.14225270240549756 -0.62475892465886851 0.63191889343724073
v 0.0022822371600968883 -0.78795813919884672 0.48688402860706104
v -0.25038340593312181 -0.88988422489065866 0.00018589326924111643
v -0.14580330670089864 -0.86737188745086591 0.23979333647884529
v -0.4092871940212931 -0.81875701541185797 0.24670902280946272
v 0.15044137853252748 -0.86780273478726899 -0.23954063321535232
v 0.39533287693822255 -0.78193747476443864 -0.23524479337761309
v -0.40247182948798527 -0.80520653114986274 -0.24225494816497195
v -0.14471808327517285 -0.86101887886050443 -0.2376656215521511
v 0.15309344853610429 -0.65186824895909234 -0.65897942210626992
v 0.0022822371600968901 -0.76295001638861681 -0.47105637217702512
v -0.1404370838571318 -0.61691665881698976 -0.62361140528801229
v 0.53754076831279041 -0.62715561789563834 -0.38713081842651675
v 0.64385765945501594 -0.64968341238189153 -0.1483497800145874
v 0.23871332276580179 -0.39518481601246219 -0.78460822741791159
v 0.3842087552680914 -0.52827348078140424 -0.61778419423439612
v 0.77789398515243169 -0.23412877106423655 -0.38991653382331409
v 0.63179942975368109 -0.38952703548630663 -0.53748597871292036
v 0.61977668271129149 -0.14174129779156494 -0.61003810902169453
v 0.78055248646504694 -0.48146148046437148 0.00018589326924111664
v 0.88933950381388505 -0.00046401396105801793 -0.25180848687345664
v 0.8915354519659614 -0.24624755761237666 -0.15171669058266726
v 0.87377042292412277 -0.24133742434743832 0.14905384787412609
v 0.90676323468588893 -0.00046401396105801999 0.25712999021819044
v 0.24360714862661706 -0.14961101157942669 0.87330762528717021
v 0.48603534960458089 -0.00046401396105801772 0.78291487136796567
v 0.23532635459761547 0.14356517149355047 0.84334743103640508
v -0.53507281403137397 -0.62961026631189576 0.3890196611166773
v -0.38031350105193773 -0.52919832021923308 0.61923880164717016
v -0.61066543756264524 -0.37928651026492749 0.52370570745810729
v -0.38588521575133566 -0.53689824055818358 -0.62788223886793126
v -0.52966444268528745 -0.62327803484562894 -0.38473434030741049
v -0.62564825180448946 -0.38854639871351315 -0.53613077202353787
v 0.45672200580670941 -0.00046401396105801143 -0.73511309824061655
v 0.23710087151944473 -0.14558991118696882 -0.8493959070347129
v 0.23897276609328724 0.14581877773484403 -0.8561684852262319
v 0.88356281752756538 0.24311594772746362 0.15072658857114474
v 0.89302706377867513 0.24573180105569065 -0.15197148829909127
v 0.78611706272819992 0.48397254980587512 0.00018589326924111651
v -0.58218054805715236 0.74368123963257038 0.077165565387074628
v -0.52586740731612902 0.73237833657326368 0.19713578209427626
v -0.46421193857202964 0.83242164773345151 0.12652559501282992
v -0.63406428258309977 0.54084466745049953 0.33473305678697213
v -0.5983845378423982 0.6511369137978964 0.27481804891814693
v -0.70738178224196557 0.56717675429842107 0.22196289777756212
v -0.35512558487693202 0.80377477183893997 0.36576575782656845
v -0.49073350991168557 0.74791390581109329 0.33084223580040861
v -0.42071027894335661 0.70572038979599161 0.4366318571161768
v -0.70360865790948957 0.072558355517219966 0.55460313452623766
v -0.71501330908773508 0.19230770288254584 0.51713116459390951
v -0.78210446906227105 0.11851892340173953 0.43951610004695424
v -0.5341640515905165 0.33107802562556143 0.63081632761852147
v -0.64718294735529303 0.27326798371399402 0.59888387118797914
v -0.54171116432794875 0.21207397449991527 0.68028599427490843
v -0.76746517079774268 0.34943723192906717 0.34226557091522386
v -0.71274301511632709 0.3154560960378176 0.47122959941382869
v -0.7014121359972838 0.43444302634225496 0.42168692315050538
v -0.072972745800573599 0.57090418926204478 0.72765896296134902
v -0.19455857975833971 0.52739313840442825 0.73262239177244048
v -0.11859368073641242 0.44585579609704795 0.79705194147703817
v -0.34495839134413525 0.6600269109616913 0.56203303246396419
v -0.27023153828944224 0.59556950679057863 0.64676068525035113
v -0.21788377498899328 0.70404499256934805 0.56370330824201975
v -0.35827342620817432 0.35203191609682499 0.79337194379675868
v -0.31941605606985196 0.4791950881580278 0.72828896741180826
v -0.41731838905813701 0.40620242208114027 0.67911396819108372
v -0.58764839198202745 0.51435546540517219 0.46858412913988468
v -0.52500330774670612 0.47927622302158757 0.60440136240291031
v -0.47939200521963793 0.60618726498847941 0.52959711580540192
v -0.3374839674441234 0.87620327732886594 0.12505593904272827
v -0.38167078068978172 0.87056368965163955 0.00018589326924111578
v -0.22172756064611537 0.8357885348721773 0.3626413599326842
v -0.27946972760716748 0.85645212853973984 0.24716893351453317
v -0.12891036771942907 0.94144352515430407 0.0001858932692411158
v -0.20684946367876558 0.91769906452854266 0.12635112844621554
v -0.072850237480584709 0.90183711417988655 0.12175279089675349
v 0.07689141017044987 0.56600092230988353 0.72141606277704229
v 0.0022822371600968896 0.63794680770653034 0.64620298679477661
v 0.14190138756263879 0.74940221600438883 0.46362871040363207
v 0.074870915731640092 0.69749891336846059 0.55504594145443598
v 0.22146655586818373 0.70090367268946441 0.5611906527019116
v -0.070628486627378806 0.70059547919756815 0.55750762043174351
v -0.14084729706000507 0.76825577779312704 0.47528085239806867
v 0.35585720286280281 0.80164868241936338 0.00018589326924111754
v 0.31382505083406842 0.80338107387676172 0.11468334733235362
v 0.43893754097156829 0.77914688059440029 0.1184443919133394
v 0.075035788423473609 0.8732675075301839 0.11790361201564253
v 0.20191910509128988 0.87601334697696365 0.12062307372300932
v 0.12836496384720411 0.90475675612627693 0.00018589326924111667
v 0.32984172970167902 0.73661008547376761 0.33523495357047856
v 0.26762546061325798 0.80654683214974077 0.23278507351304781
v 0.21558323148676137 0.79581142542237937 0.34531415192393272
v -0.072005244284499448 0.82339677995265104 0.36078490301719313
v 0.077711980435341624 0.83606465777480043 0.36632955841531561
v 0.0022822371600968896 0.87456261116598455 0.24203730424213313
v -0.32625287737282188 0.84722473509124052 -0.12055652970867337
v -0.44629860725999349 0.80043891873246698 -0.12130237612442631
v -0.072646784594839281 0.89939375304730629 -0.12105181067402589
v -0.20581920451424263 0.91317585775335663 -0.12535780586482878
v -0.34182606293312434 0.77384819855118436 -0.3517903590246963
v -0.28060002355099128 0.85988979344073113 -0.24778796146358467
v -0.21819426862335667 0.82259837761682275 -0.35655258680919943
v 0.44235012368932647 0.78523975669624357 -0.11899682845236988
v 0.31787035764547089 0.81381880463612266 -0.11579828207415889
v 0.22630192362000603 0.83582545027471578 -0.36228557357198649
v 0.27835881421006542 0.83919109061257291 -0.24182211684929961
v 0.33971977090702665 0.75883764563121725 -0.34496706723586074
v 0.20357635093673002 0.88328924987049873 -0.12125107253986694
v 0.075763783549689212 0.88201034246017807 -0.11870974633502139
v -0.071777698020811007 0.5618308724420068 -0.71573491712294812
v 0.0022822371600968901 0.63248536150164347 -0.64030468428259713
v 0.076887446753742858 0.56597083034529305 -0.72100596277671491
v -0.13958450986863644 0.76147360308636114 -0.47071745137316517
v -0.072712656383535704 0.72063542554574689 -0.57306700324479554
v -0.21659606832349235 0.69992446127226338 -0.560035621830968
v 0.22395456287913088 0.70886504388574179 -0.56718694843715312
v 0.075691794354149841 0.70539191896690867 -0.56094886277678135
v 0.14843939823629906 0.78451654954098804 -0.48495877548306854
v 0.0022822371600968883 0.89069620373667946 -0.24612473301806242
v 0.07757805825707513 0.83457943805858792 -0.36530769996798551
v -0.073092281654065283 0.83545220911634277 -0.36568970671170731
v -0.51769788935771599 0.72104259336867793 -0.19371753766172647
v -0.56833077175424129 0.72604753298807656 -0.074969622947362313
v -0.40297422974917807 0.67611012283293892 -0.41795991917856978
v -0.47414796704538764 0.72273772403131598 -0.31934683916298662
v -0.70505925469734876 0.56531902827077074 -0.22086529847747591
v -0.58314975014191794 0.63461027671229697 -0.26748073213701223
v -0.64876838250569824 0.55335272193574703 -0.3420916730535084
v -0.11807373589948859 0.44393596223026205 -0.79325245490784946
v -0.1890041655385237 0.5124981724160208 -0.71158286077888344
v -0.43023772115987091 0.41872351574396321 -0.69964610010515438
v -0.31647237677164752 0.47480599875712748 -0.7212547210735144
v -0.35513211012465651 0.3489608198779468 -0.78608957908438937
v -0.26924945341872164 0.59342152178612562 -0.64405877312483562
v -0.33912348520408286 0.64892825994875636 -0.55222016946971164
v -0.7833035948117637 0.11870081774391816 -0.43981593652209261
v -0.72095958989218778 0.19390575373550969 -0.52104478280931144
v -0.7195256852739409 0.074204925916868267 -0.56673281877034898
v -0.6823204107317502 0.42264369122428008 -0.4098795160236049
v -0.70751332425184543 0.31314545804579258 -0.46741260173216914
v -0.78213271896618164 0.35610460531055882 -0.34841211766041974
v -0.56832596274970337 0.22247236481932128 -0.71318800672988458
v -0.64259672648554156 0.27133501574221153 -0.59428435816550118
v -0.54876299434222719 0.34010066844593256 -0.64760662757707443
v -0.46982277236451192 0.59413516246905196 -0.51870772458966641
v -0.52626433627492808 0.48042354467835335 -0.60547458597542081
v -0.59698925570479955 0.52250703164200485 -0.47562888256918973
v -0.65644671272657618 0.66611328577101769 0.00018589326924111613
v -0.77389496198993457 0.47923987640635768 -0.14433215111868333
v -0.7276082302194079 0.57977749177282156 -0.075723273900651908
v -0.72914386509713669 0.58099827644330782 0.076254767641591434
v -0.77574824817866905 0.48038527026187627 0.14504900486086639
v -0.82782213712611907 -0.00046401396105801631 -0.36572793279581028
v -0.83644493324481373 0.1190019467294869 -0.32487602043305802
v -0.89596774798878975 0.12055707376992396 -0.074609252303988613
v -0.87761774926689229 0.12044347112579201 -0.20023055239341517
v -0.89341438037327303 -0.00046401396105801593 -0.12457027180652348
v -0.81963182133897639 0.23643061658706357 -0.27005747054011159
v -0.80204730278433023 0.34815511928822934 -0.21527258020734702
v -0.84018326898571405 0.11953442485399415 0.32669665781705676
v -0.82995409361156391 -0.00046401396105801653 0.36703949555853449
v -0.789098355366329 0.34254267985741332 0.21217568841778489
v -0.83668683358207141 0.2413462653492951 0.27603690404694031
v -0.88172862093615834 -0.00046401396105801468 0.12331441958335988
v -0.88071892644646521 0.12086960539033891 0.20130869978800328
v -0.88173836144475959 0.11863995062405745 0.073796191577706227
v -0.81072997006112624 0.3553866333846834 -0.073123371723532476
v -0.86835668572131697 0.24017466593764511 0.00018589326924111689
v -0.8108818867786296 0.355453126435816 0.073508856583886548
v 0.50845225970593344 0.70188016627666838 0.18893946095521821
v 0.55445039119849426 0.70256331541885586 0.072912035167198797
v 0.41097903469063651 0.68185374177656743 0.42188145744264227
v 0.45646925052902926 0.6889734619641853 0.30480053805027213
v 0.69294778982805294 0.55198040228132594 0.21602568956727247
v 0.57767563663091714 0.62372045657172248 0.26326275421625611
v 0.63040972765831205 0.53385314357938707 0.33041205740146834
v 0.12356005656438154 0.44733976914754375 0.79970144910306429
v 0.19665320844583839 0.52076988971613936 0.72343219882681697
v 0.43217205672379289 0.41617445102032469 0.69576223274086046
v 0.31144114697636549 0.46049859670653714 0.69990845124653622
v 0.34325177604004331 0.33288361288271129 0.75028444772776237
v 0.27381843791280241 0.59343138629597136 0.64444126064435248
v 0.33202420231276336 0.62674247534776772 0.53371960040343869
v 0.79659641088873656 0.12002481231482251 0.44507641400652431
v 0.73354140576272464 0.19606039794495136 0.52719455977966601
v 0.71889364559659463 0.073667361588191094 0.56302318568039766
v 0.7020725043442525 0.43203015615512047 0.41934842969190861
v 0.71020472087456532 0.31231787480962236 0.46655044379427679
v 0.7686440395821037 0.34789824968264016 0.340760990531632
v 0.56271114238589504 0.21849531875557995 0.70083364746619492
v 0.66488435301961313 0.27880484472807748 0.61099391868445019
v 0.54783750303431089 0.33670768309069188 0.64152457245196537
v 0.4771566536749775 0.59762313036262193 0.52212338396049374
v 0.52046109598568591 0.47099068631206092 0.59396602872846604
v 0.58827100654104802 0.51091549112729329 0.46545433714914175
v -0.11683470301852455 0.32364822943455779 0.83646271727684507
v 0.0022822371600968901 0.36129579999100131 0.8208665634475405
v -0.35324183012823718 0.21926194344173711 0.82044640741812103
v -0.23925411598441743 0.27507450882009848 0.83820456776911056
v 0.0022822371600968875 0.12828736879670066 0.92456648775796557
v -0.11865063953900547 0.19999452087972983 0.88027066626473871
v -0.12131879227282122 0.075925623272961498 0.91758487665387833
v -0.69090507708927329 -0.072172234781476413 0.54462555260582579
v -0.64103958492154622 -0.00046401396105801593 0.63593317789677661
v -0.47735644294419416 -0.14496241277201294 0.77625757999712164
v -0.57971600476848884 -0.076603003334567238 0.73228617326908696
v -0.55507868498205337 -0.21822468700379705 0.69699805755027844
v -0.55948658979926214 0.073028494546340167 0.7068394291103286
v -0.48351206434087085 0.14588885879539443 0.78621758463882063
v 0.0022822371600968883 -0.37320910407888785 0.84578752884535269
v -0.11731252038155786 -0.32587637854207263 0.83981729964115004
v -0.11792483883018512 -0.44431420560599205 0.79264264791413475
v -0.12292942764976074 -0.077849078601509164 0.92953943127358385
v -0.12229783843722167 -0.20696815167978333 0.9068130284578797
v 0.0022822371600968901 -0.1244653991223901 0.89046350953779385
v -0.35864696422118852 -0.35332513209580935 0.79419368970555049
v -0.24464800637511006 -0.28215574958552397 0.85691885577072413
v -0.36371894153962531 -0.22666518232001037 0.84461906289725186
v -0.3698347392856528 0.076196299117047769 0.85036179324647476
v -0.37491923706176133 -0.078171791186283257 0.86197834864801393
v -0.24563186785560892 -0.00046401396105801886 0.89714755150657555
v -0.8209197731931599 -0.11771861412115787 0.31923078687847628
v -0.76787582830814349 -0.1172886211811132 0.43154672520277571
v -0.88384033536444018 -0.11985117718168442 0.073971217960019583
v -0.88146340819058411 -0.12189993291100362 0.20147827177040881
v -0.76969690071453656 -0.35137972910473764 0.34325736308319643
v -0.81784358489472531 -0.23684323343010993 0.26984128924061407
v -0.80498433679944037 -0.35035614068108401 0.21643111997820241
v -0.79867868254276431 -0.12196107935374607 -0.44842742932086405
v -0.84042694498255355 -0.12049716130599551 -0.32641931174580968
v -0.79808729638760667 -0.34736676862529087 -0.2142117999042209
v -0.83434291439266728 -0.24159872158034837 -0.27489444252158829
v -0.76478829246544244 -0.34914844112092847 -0.34070416598044173
v -0.85845721795624141 -0.11873864112151361 -0.19586632277468069
v -0.90173472721287495 -0.12226208595049785 -0.075089454984439252
v -0.57410008112712041 -0.73432111702587477 0.07610128599997619
v -0.65373572668998259 -0.66429802792712189 0.00018589326924111621
v -0.58546351841865973 -0.7487891860610395 -0.07722617931684031
v -0.75390747747756559 -0.46781495955021746 0.14098242641318071
v -0.72835803311117309 -0.58130159099380452 0.0761730405136785
v -0.70378214457336674 -0.56522553086243543 0.22083797550782414
v -0.69114360711630474 -0.55511631168876563 -0.21651652137740862
v -0.71727841857588059 -0.57249362252698743 -0.074648965584642193
v -0.76542185248878869 -0.47493123466636578 -0.14275452526684007
v -0.84961142796941835 -0.23592163204271183 0.00018589326924111737
v -0.84258106667255384 -0.37025569841199529 -0.075995383313343975
v -0.84601075580801033 -0.37175685311570911 0.076676424728248468
v -0.66643661836464363 -0.00046401396105801999 -0.66065939751141822
v -0.74553362323196792 -0.077823399725457973 -0.58715984129491494
v -0.49003209927956892 0.14785311782602242 -0.79639543623898856
v -0.60034050848600118 0.078373143132301912 -0.75785811621063559
v -0.58041079470524271 -0.22812193139924708 -0.72829645365427143
v -0.59865132189400927 -0.079080185919563672 -0.75573327478006458
v -0.4861457198399422 -0.14761031522613852 -0.7901071422124939
v 0.0022822371600968896 0.36512534470695579 -0.82918240113584363
v -0.12183492941070237 0.33725363762439625 -0.87119570626650322
v -0.12123678902411725 0.075874942478074525 -0.91660444067824798
v -0.11986484614258351 0.20200719173806778 -0.88873522574106645
v 0.0022822371600968875 0.12855575786215054 -0.92612162144791776
v -0.24737315717186667 0.28433650431711033 -0.86600207353606118
v -0.36888538411431593 0.22893019150997762 -0.85616722561834957
v -0.11858653383660851 -0.44675743494995562 -0.79663303950065245
v -0.12025969887408325 -0.33389552872732187 -0.86013658412763505
v 0.0022822371600968879 -0.37512260822587584 -0.84975667738360916
v -0.35724060932097168 -0.22266135281846891 -0.82930055233800049
v -0.24169568157854274 -0.27878781261609548 -0.84630387693219011
v -0.35829716770983178 -0.35298315481149817 -0.79305238616450779
v 0.0022822371600968879 -0.12898848468523266 -0.92256556857633565
v -0.11985765189287599 -0.20292329446006446 -0.88868286984088829
v -0.11963119839876943 -0.075810660821707426 -0.90468732951676356
v -0.38455634894672192 0.079229117496930915 -0.88362447794942378
v -0.25442211238043805 -0.00046401396105802254 -0.92857916842834753
v -0.38348643611814187 -0.079936731254692986 -0.88118004740872846
v 0.19854278685841581 0.52583706783320483 -0.7300914550254155
v 0.12485107499100986 0.45210669964107358 -0.80784061139288033
v 0.35197123920055445 0.66468399417359481 -0.56562279752425038
v 0.27921283119676066 0.60522983287377363 -0.65686838201313469
v 0.34667172777354088 0.33622711622915846 -0.75743620965651615
v 0.32396360529367246 0.47916985247384619 -0.72787887412766106
v 0.42871302551088403 0.4128220444517493 -0.68979361613174484
v 0.53982634600074075 0.68394380003225708 -0.070614113667119338
v 0.51080695073632842 0.70514745487099872 -0.1894457515706334
v 0.65291243555517253 0.55299509024196125 -0.34187064451129451
v 0.58344009894626225 0.62997372235739002 -0.26552654996349878
v 0.68195009121852346 0.5431836450594234 -0.21221701375805924
v 0.46569673898396846 0.70298041540460665 -0.31061745359966569
v 0.41606283053894227 0.69034111969291867 -0.42675515893183036
v 0.70121469725718444 0.071838525564600589 -0.54876608933678683
v 0.69822849549273069 0.18657012524620128 -0.50137323284423507
v 0.77932092218155002 0.11740430845562506 -0.43502873168129891
v 0.52928843884036547 0.32524373095932996 -0.61934705315942817
v 0.6352387203317067 0.26631001290109269 -0.58329383069495988
v 0.55057648960994532 0.21375431512462068 -0.68529112805481862
v 0.77979912125661965 0.35296897409894501 -0.34534657923583711
v 0.71489775593792038 0.31439140179167435 -0.46927033076280894
v 0.69624639009613964 0.42842941952744662 -0.41548689923979082
v 0.47770019463276553 0.59830770053098814 -0.52234900674483375
v 0.58488355815239312 0.50795933945508165 -0.46239295496844607
v 0.51769394439893801 0.46847304862823624 -0.59042336862764022
v 0.53545309557299292 -0.67930375137037768 0.070409898803062185
v 0.5093264294311195 -0.70402116215752764 0.18926544362318037
v 0.4196960335784875 -0.74572083412333789 0.11323325224300232
v 0.65923473927729781 -0.55930119093595021 0.34556626281676461
v 0.57224617450273163 -0.61875862557839723 0.26078033809082368
v 0.70747467383251128 -0.56452808594371018 0.2205654840774452
v 0.342395635367368 -0.76578690155076445 0.34807590122173776
v 0.45180865991438729 -0.6828269022492709 0.30167476801995252
v 0.40671811319448281 -0.6756681773970149 0.41748501561810158
v 0.71908753539178261 -0.074615446848291203 0.56317546961847764
v 0.7300036028893867 -0.19603764855175429 0.52464491273972902
v 0.80930838904006319 -0.12288110914835447 0.45219631538357902
v 0.54487156513187396 -0.33580266058058034 0.63803790333542998
v 0.6354625142151249 -0.26733236388814896 0.58387191766134416
v 0.54362915995843142 -0.21196802433391954 0.6769773688039773
v 0.76628986373427854 -0.34775614855504122 0.33971478276682437
v 0.7430475463655527 -0.32775687141256959 0.48818661145448411
v 0.69537931034605427 -0.42882156269305316 0.4153393196704977
v 0.077393661986283141 -0.57074226207246836 0.72627121861986033
v 0.20160948305283 -0.53498888564654201 0.74187429064291344
v 0.12435201965837026 -0.45119202568221678 0.80492241049897695
v 0.33857118547530696 -0.64012360526750711 0.54431284168420746
v 0.27639174267263017 -0.59998766509618306 0.65054676480481177
v 0.21904494218202653 -0.69408278135023804 0.55499250489896224
v 0.34657883330563471 -0.33706432621332866 0.75760363774608108
v 0.31758288292718451 -0.47058408555903053 0.71380910574322265
v 0.43081969672686032 -0.41579180544522687 0.69357406830079804
v 0.5784783752845104 -0.50329770522643924 0.45767909887788227
v 0.51166267966944112 -0.46391365062225226 0.58388394077156425
v 0.46294486319481132 -0.58065192242699259 0.506503114677751
v 0.31463973399495809 -0.80641115335738567 0.11498275769810698
v 0.36441871190898656 -0.82199916886444502 0.00018589326924111702
v 0.21648662814474415 -0.80011192975063483 0.34677587842187196
v 0.27339135523737496 -0.82501116432956012 0.23783944175915653
v 0.12546369562789778 -0.8848549025831236 0.00018589326924111713
v 0.2000620990476725 -0.86878845318064879 0.11950277678438991
v 0.076937973964023507 -0.89703977381101108 0.12098141287316087
v -0.071203133272309427 -0.55839655763183838 0.71055251489033266
v 0.0022822371600968901 -0.63071485893082535 0.6379457889988609
v -0.14472186254650865 -0.78999331362115688 0.48814183557308305
v -0.072173010304348501 -0.71637458704181023 0.56931379322192488
v -0.21452310873810218 -0.69421922784842771 0.55510164470729584
v 0.07774558193748278 -0.72606775910967636 0.57701958060696801
v 0.14335806059983947 -0.75815374031327343 0.46846389708151709
v -0.37414727962689576 -0.8544240620292548 0.00018589326924111621
v -0.33138173468658444 -0.86138627884788821 0.12281326136193309
v -0.45141285277256732 -0.81049799690000812 0.12305924373425957
v -0.073590683064858123 -0.91165750042258331 0.12295085701892765
v -0.2066926558823094 -0.91793865005503961 0.12625652924179973
v -0.12654245358763852 -0.92537092888148564 0.00018589326924111621
v -0.3565130007817941 -0.80782476188367103 0.36718489665708798
v -0.28495548678541877 -0.87406446103307156 0.25197773575666554
v -0.22185554671174226 -0.837194348474401 0.36284844573695491
v 0.07685429929285735 -0.8274808560692164 0.36216628669516737
v -0.075010233282878744 -0.85765064654589107 0.37537142602278484
v 0.0022822371600968896 -0.87531872961416013 0.24198978963213366
v 0.33035896052739511 -0.84697001871427613 -0.12038806290692104
v 0.4278041154729359 -0.76019712451460053 -0.11505736160536287
v 0.077065264942812045 -0.89856847087991987 -0.12081558746481971
v 0.19743520407486409 -0.85725544328579295 -0.11754623374701154
v 0.34536021217671697 -0.77245778983735225 -0.35073647581697265
v 0.27125644322243764 -0.8185180753818756 -0.23559619689547326
v 0.22062137376397431 -0.81554737764943375 -0.35309425083013879
v -0.44552057515813537 -0.79997783653127086 -0.12109166321779373
v -0.32543934089732129 -0.84605367014102861 -0.1202575407699339
v -0.21318834378128207 -0.8048387523672953 -0.34845283026959534
v -0.27276301027216932 -0.83698244831349533 -0.24091805598610189
v -0.33889829529947174 -0.76818816616344676 -0.34879564869948365
v -0.19737418279555019 -0.87702721529004568 -0.12026308255439944
v -0.074442705802033257 -0.92188984110657546 -0.12395767222838248
v 0.078383228121684939 -0.57825547385607123 -0.73546534633532612
v 0.0022822371600968901 -0.63500210752978326 -0.6419123309866489
v -0.070008352133269183 -0.54932526526286585 -0.69863104660809006
v 0.14817357556325111 -0.78401689762761506 -0.4840764208196835
v 0.077317602113585682 -0.72195259877608819 -0.57337636234686007
v 0.22349137663829505 -0.70831092260969353 -0.56600141797975434
v -0.2087802964826892 -0.67584280853983847 -0.54003106481167684
v -0.070325946212333082 -0.69861448607292842 -0.55482324751514178
v -0.13939718665518627 -0.761395555900228 -0.47009566276103198
v 0.0022822371600968901 -0.86863469342231281 -0.23977058092663164
v -0.072424091969278043 -0.82896989987950787 -0.36244624584895385
v 0.077506862603058252 -0.83471789407840014 -0.36496210900383369
v 0.51589088447156106 -0.71312977505186159 -0.19134157824479672
v 0.54550360091903416 -0.69210017919887301 -0.071361865676645694
v 0.42930066427824082 -0.71336966091096066 -0.44041402731753154
v 0.46952479856770141 -0.70971928260529193 -0.31318486080413416
v 0.69180545593438525 -0.55199470867990086 -0.21529691242174301
v 0.58128856640803728 -0.62856777634195105 -0.26454284311718779
v 0.64369093813791645 -0.54607884393187212 -0.33702261641871678
v 0.12316862791180014 -0.4468224937792144 -0.79674919650512344
v 0.19654765035496113 -0.52141484833315932 -0.7226676350194674
v 0.41837112417172645 -0.4037269601650007 -0.67306006825668985
v 0.31451838276944244 -0.46601484964749379 -0.70650140430398134
v 0.34654841468534209 -0.33703458756007626 -0.75716493331462498
v 0.28161399730414916 -0.61140961545135764 -0.66256546456918441
v 0.35288748449119067 -0.66735482420407943 -0.56710531354653193
v 0.8006619088603143 -0.12156953208888287 -0.44698168806881322
v 0.70474257165934107 -0.18924879786819893 -0.5060678400936357
v 0.7099198053968111 -0.073667071721701838 -0.5556032111545145
v 0.70663391015798227 -0.43577728790660297 -0.42170884810138815
v 0.70104088483686744 -0.30919703861145142 -0.46014171341925753
v 0.77828771039341826 -0.35320996554829259 -0.34467490053249961
v 0.54023141459649926 -0.21064052667944019 -0.67235772382177039
v 0.63265612679364924 -0.26614954754410763 -0.58091311258121725
v 0.53765645947628726 -0.33134348005300612 -0.62918425140077594
v 0.47366950028588467 -0.5941592147734247 -0.51791884495891549
v 0.52033245894098101 -0.47180167638455706 -0.59344683725338887
v 0.58693338510131132 -0.51067620625163868 -0.46402049434220199
v 0.62876163680911556 -0.63440752992108618 0.00018589326924111718
v 0.78325019515023842 -0.48312875612356576 -0.14522415245480225
v 0.71504547454601874 -0.56708987438283109 -0.07394202887438403
v 0.7210652804253106 -0.57187544342878194 0.07493987983108237
v 0.7602303631066295 -0.46890171750530141 0.14130982866599848
v 0.82414330353821585 -0.00046401396105801522 -0.3620942447566674
v 0.84189353435120484 -0.12005590720704207 -0.32521867768230162
v 0.90949424185825667 -0.12269255326125936 -0.075355498413535615
v 0.87686540074417363 -0.12064091183515074 -0.19901952983081511
v 0.90462022616869808 -0.00046401396105801663 -0.12549530827520541
v 0.85328927518171527 -0.24574391370401871 -0.27962317217048233
v 0.82589046454493786 -0.35743907469017588 -0.22043682739741152
v 0.84671065472466711 -0.12074204440812959 0.3274574150271779
v 0.85022809278852696 -0.00046401396105801837 0.3739643263678496
v 0.81180690146876 -0.35133486079667897 0.21703600227511333
v 0.86081598559736072 -0.24791328562888035 0.28246972297429096
v 0.93581782157040827 -0.00046401396105802021 0.13021241920781226
v 0.89117471780762447 -0.12260716205238009 0.20265057595556255
v 0.93471115840593932 -0.12609002470047806 0.077827037777262006
v 0.83156847440477821 -0.3634377082516479 -0.074590800095324955
v 0.9138056761957577 -0.25240289620207618 0.00018589326924111591
v 0.85411971704139056 -0.37330825412957197 0.076996030913831254
v 0.12159438266128236 -0.32510740292609608 0.83783318303040166
v 0.34686157986613014 -0.21342575957448467 0.79519488089962176
v 0.2430527047953602 -0.2751288340507102 0.83554730168503943
v 0.12366626473673029 -0.20167037723668099 0.88355390096878483
v 0.12066565230352666 -0.073628988223986599 0.87885838653619175
v 0.66934920139477405 -0.00046401396105801967 0.65939874229818185
v 0.47238816317702526 0.14116249865926903 0.76083325987737438
v 0.56948193285411219 0.073738979264484139 0.71367096266979269
v 0.55610091883213431 -0.072916457423683259 0.69683887726742166
v 0.47518209491654484 -0.14293224072891772 0.76535393639416416
v 0.12426538870028812 0.33144707142169549 0.85658534744845449
v 0.11981849281184366 0.072177386942118393 0.87257054848176507
v 0.12042556513925429 0.19537056034451075 0.85996982319407311
v 0.24354110424927727 0.27475795979224543 0.83724182036791917
v 0.34396671056374378 0.2107086040305052 0.78851587601401596
v 0.36843111167125225 -0.075894830424529353 0.83672646684491403
v 0.35471563909235637 0.072141259760571716 0.80539071765456294
v 0.23902796574815327 -0.00046401396105801419 0.85673998599218648
v -0.54360706939967285 -0.75792131178343769 0.20375099903456698
v -0.42742606899880081 -0.71786040378289528 0.44356124558560578
v -0.49148255619488534 -0.74997895562868333 0.33134460698400758
v -0.6064062060557196 -0.66076681548346961 0.2784856531956027
v -0.6590195655994816 -0.56300092704315474 0.34785282548042229
v -0.19009884689511106 -0.51636174690150638 0.71602791114723374
v -0.42064731571283503 -0.4103567624868984 0.68450028466444046
v -0.31888074140673589 -0.47932495035758599 0.72707738419843426
v -0.26278193747343842 -0.58020400314632736 0.62908552703126919
v -0.33934261791452741 -0.65027310305527575 0.55294652018174018
v -0.69910214441763197 -0.188959637712377 0.50566420180499505
v -0.67549927617753303 -0.41935602615005363 0.40616555831112644
v -0.69292939237801965 -0.30762985709308682 0.45817679847135956
v -0.62930284541602177 -0.2666600325887924 0.58240141588283423
v -0.55946025764040441 -0.34763996867292885 0.66055380132867292
v -0.48028122081017954 -0.60823522777071726 0.53057445831506367
v -0.50339911828621897 -0.46054811003162149 0.57964516417936884
v -0.58899649485676697 -0.51645995304275472 0.46965450754898408
v -0.1960165999611847 -0.53223105861623121 -0.73767583780938084
v -0.32850476859756961 -0.62965828862424034 -0.53503872508347039
v -0.26755177665167768 -0.59063644471422683 -0.64003081159998465
v -0.31631052277729588 -0.47549269887850931 -0.72088839525416826
v -0.42818283986825573 -0.41766000409455278 -0.69632123233247478
v -0.53447273065012058 -0.74524681630699519 -0.19997296765614239
v -0.65036426643320355 -0.55563828981083152 -0.34293067888552881
v -0.58083941300843622 -0.63303206010373048 -0.26642441789815469
v -0.46013383485505976 -0.70239286734822182 -0.30994782559937439
v -0.41081299287881318 -0.69012493611449199 -0.42604799733417636
v -0.71960798528569037 -0.19447054067299788 -0.52007069951312423
v -0.5694907003361197 -0.35383912318108907 -0.67197350737120298
v -0.64877657817716228 -0.27486768389634414 -0.59998114499845767
v -0.71614053895006313 -0.31788525430443609 -0.47309603063515632
v -0.70814150997640879 -0.43953003610647939 -0.42534591783019687
v -0.46326532149098454 -0.58680431829657498 -0.51150038863887248
v -0.57467246957319984 -0.50395969136005747 -0.45790960722058721
v -0.50759863544306605 -0.46436895696266084 -0.58408559609361832
v 0.64237624275748539 -0.00046401396105801539 -0.63237157951808531
v 0.45976585370615791 -0.13828786515416214 -0.74003814759850894
v 0.53653162038105406 -0.070356335245519264 -0.67185071245954509
v 0.54743845917313827 0.070855177068124844 -0.68557051289594895
v 0.4485204939883794 0.13397200272103696 -0.72184277335942437
v 0.12050827179297333 -0.32215214039520718 -0.82983620610247844
v 0.11931956816325463 -0.072797062473581295 -0.86849561345413906
v 0.12289952174247709 -0.20039942279134965 -0.87760216915436084
v 0.2434313032946889 -0.27556072958061323 -0.83648907564560626
v 0.33772623037915317 -0.207779803092424 -0.77374613458097308
v 0.12183907821313136 0.32484518143033519 -0.83917931519132671
v 0.34515263759573539 0.21144154724445333 -0.79088024493309272
v 0.2425764880960303 0.27365755024123478 -0.8335232649492198
v 0.12257364224211038 0.19893121647472894 -0.87523059250843593
v 0.12065882647101743 0.072696741705378348 -0.87843593689374133
v 0.3517089403527715 -0.072449873677689444 -0.7981495245351109
v 0.2436459647483073 -0.00046401396105801609 -0.87307627679627453
v 0.35196407474332236 0.071574406330593213 -0.79873243024442153
v 0.86543708372036066 0.1224813568431809 0.33471513727696689
v 0.93655617404213543 0.12541057546231948 0.077980667852826424
v 0.91333271618298839 0.12472387546388161 0.20769754418592046
v 0.83462633762080507 0.23943679577520757 0.27385862976694059
v 0.82128836665906957 0.35451636760184313 0.21957583441452055
v 0.83913098776381179 0.11873438984800226 -0.32414800927894438
v 0.83161399617016096 0.3589917869811422 -0.22197000916635509
v 0.83942061594292405 0.24081861760939943 -0.27506319039932148
v 0.90809531558155265 0.1240042016999538 -0.20613282523552448
v 0.89955335955521609 0.12042519173579214 -0.074527744724389694
v 0.62331713178544612 0.62797012905023364 0.00018589326924111737
v 0.79074684552570362 0.48683391293526196 0.14699175589296745
v 0.69359770176266367 0.54911149640047607 0.072083230630085302
v 0.7282378182846394 0.57664937265425309 -0.075314042718890029
v 0.7763728007601034 0.47795026471430846 -0.14394363611287
v 0.88546708144530284 0.2436422733296163 0.00018589326924111662
v 0.85939121715741662 0.37468753071298416 -0.077099575244286442
v 0.85679813208096534 0.37355255267097964 0.077237543447287449
f 1 163 165
f 43 164 163
f 45 165 164
f 163 164 165
f 13 166 168
f 44 167 166
f 43 168 167
f 166 167 168
f 15 169 171
f 45 170 169
f 44 171 170
f 169 170 171
f 43 167 164
f 44 170 167
f 45 164 170
f 167 170 164
f 12 172 174
f 46 173 172
f 48 174 173
f 172 173 174
f 14 175 177
f 47 176 175
f 46 177 176
f 175 176 177
f 13 178 180
f 48 179 178
f 47 180 179
f 178 179 180
f 46 176 173
f 47 179 176
f 48 173 179
f 176 179 173
f 6 181 183
f 49 182 181
f 51 183 182
f 181 182 183
f 15 184 186
f 50 185 184
f 49 186 185
f 184 185 186
f 14 187 189
f 51 188 187
f 50 189 188
f 187 188 189
f 49 185 182
f 50 188 185
f 51 182 188
f 185 188 182
f 13 180 166
f 47 190 180
f 44 166 190
f 180 190 166
f 14 189 175
f 50 191 189
f 47 175 191
f 189 191 175
f 15 171 184
f 44 192 171
f 50 184 192
f 171 192 184
f 47 191 190
f 50 192 191
f 44 190 192
f 191 192 190
f 1 165 194
f 45 193 165
f 53 194 193
f 165 193 194
f 15 195 169
f 52 196 195
f 45 169 196
f 195 196 169
f 17 197 199
f 53 198 197
f 52 199 198
f 197 198 199
f 45 196 193
f 52 198 196
f 53 193 198
f 196 198 193
f 6 200 181
f 54 201 200
f 49 181 201
f 200 201 181
f 16 202 204
f 55 203 202
f 54 204 203
f 202 203 204
f 15 186 206
f 49 205 186
f 55 206 205
f 186 205 206
f 54 203 201
f 55 205 203
f 49 201 205
f 203 205 201
f 2 207 209
f 56 208 207
f 58 209 208
f 207 208 209
f 17 210 212
f 57 211 210
f 56 212 211
f 210 211 212
f 16 213 215
f 58 214 213
f 57 215 214
f 213 214 215
f 56 211 208
f 57 214 211
f 58 208 214
f 211 214 208
f 15 206 195
f 55 216 206
f 52 195 216
f 206 216 195
f 16 215 202
f 57 217 215
f 55 202 217
f 215 217 202
f 17 199 210
f 52 218 199
f 57 210 218
f 199 218 210
f 55 217 216
f 57 218 217
f 52 216 218
f 217 218 216
f 1 194 220
f 53 219 194
f 60 220 219
f 194 219 220
f 17 221 197
f 59 222 221
f 53 197 222
f 221 222 197
f 19 223 225
f 60 224 223
f 59 225 224
f 223 224 225
f 53 222 219
f 59 224 222
f 60 219 224
f 222 224 219
f 2 226 207
f 61 227 226
f 56 207 227
f 226 227 207
f 18 228 230
f 62 229 228
f 61 230 229
f 228 229 230
f 17 212 232
f 56 231 212
f 62 232 231
f 212 231 232
f 61 229 227
f 62 231 229
f 56 227 231
f 229 231 227
f 8 233 235
f 63 234 233
f 65 235 234
f 233 234 235
f 19 236 238
f 64 237 236
f 63 238 237
f 236 237 238
f 18 239 241
f 65 240 239
f 64 241 240
f 239 240 241
f 63 237 234
f 64 240 237
f 65 234 240
f 237 240 234
f 17 232 221
f 62 242 232
f 59 221 242
f 232 242 221
f 18 241 228
f 64 243 241
f 62 228 243
f 241 243 228
f 19 225 236
f 59 244 225
f 64 236 244
f 225 244 236
f 62 243 242
f 64 244 243
f 59 242 244
f 243 244 242
f 1 220 246
f 60 245 220
f 67 246 245
f 220 245 246
f 19 247 223
f 66 248 247
f 60 223 248
f 247 248 223
f 21 249 251
f 67 250 249
f 66 251 250
f 249 250 251
f 60 248 245
f 66 250 248
f 67 245 250
f 248 250 245
f 8 252 233
f 68 253 252
f 63 233 253
f 252 253 233
f 20 254 256
f 69 255 254
f 68 256 255
f 254 255 256
f 19 238 258
f 63 257 238
f 69 258 257
f 238 257 258
f 68 255 253
f 69 257 255
f 63 253 257
f 255 257 253
f 11 259 261
f 70 260 259
f 72 261 260
f 259 260 261
f 21 262 264
f 71 263 262
f 70 264 263
f 262 263 264
f 20 265 267
f 72 266 265
f 71 267 266
f 265 266 267
f 70 263 260
f 71 266 263
f 72 260 266
f 263 266 260
f 19 258 247
f 69 268 258
f 66 247 268
f 258 268 247
f 20 267 254
f 71 269 267
f 69 254 269
f 267 269 254
f 21 251 262
f 66 270 251
f 71 262 270
f 251 270 262
f 69 269 268
f 71 270 269
f 66 268 270
f 269 270 268
f 1 246 163
f 67 271 246
f 43 163 271
f 246 271 163
f 21 272 249
f 73 273 272
f 67 249 273
f 272 273 249
f 13 168 275
f 43 274 168
f 73 275 274
f 168 274 275
f 67 273 271
f 73 274 273
f 43 271 274
f 273 274 271
f 11 276 259
f 74 277 276
f 70 259 277
f 276 277 259
f 22 278 280
f 75 279 278
f 74 280 279
f 278 279 280
f 21 264 282
f 70 281 264
f 75 282 281
f 264 281 282
f 74 279 277
f 75 281 279
f 70 277 281
f 279 281 277
f 12 174 284
f 48 283 174
f 77 284 283
f 174 283 284
f 13 285 178
f 76 286 285
f 48 178 286
f 285 286 178
f 22 287 289
f 77 288 287
f 76 289 288
f 287 288 289
f 48 286 283
f 76 288 286
f 77 283 288
f 286 288 283
f 21 282 272
f 75 290 282
f 73 272 290
f 282 290 272
f 22 289 278
f 76 291 289
f 75 278 291
f 289 291 278
f 13 275 285
f 73 292 275
f 76 285 292
f 275 292 285
f 75 291 290
f 76 292 291
f 73 290 292
f 291 292 290
f 2 209 294
f 58 293 209
f 79 294 293
f 209 293 294
f 16 295 213
f 78 296 295
f 58 213 296
f 295 296 213
f 24 297 299
f 79 298 297
f 78 299 298
f 297 298 299
f 58 296 293
f 78 298 296
f 79 293 298
f 296 298 293
f 6 300 200
f 80 301 300
f 54 200 301
f 300 301 200
f 23 302 304
f 81 303 302
f 80 304 303
f 302 303 304
f 16 204 306
f 54 305 204
f 81 306 305
f 204 305 306
f 80 303 301
f 81 305 303
f 54 301 305
f 303 305 301
f 10 307 309
f 82 308 307
f 84 309 308
f 307 308 309
f 24 310 312
f 83 311 310
f 82 312 311
f 310 311 312
f 23 313 315
f 84 314 313
f 83 315 314
f 313 314 315
f 82 311 308
f 83 314 311
f 84 308 314
f 311 314 308
f 16 306 295
f 81 316 306
f 78 295 316
f 306 316 295
f 23 315 302
f 83 317 315
f 81 302 317
f 315 317 302
f 24 299 310
f 78 318 299
f 83 310 318
f 299 318 310
f 81 317 316
f 83 318 317
f 78 316 318
f 317 318 316
f 6 183 320
f 51 319 183
f 86 320 319
f 183 319 320
f 14 321 187
f 85 322 321
f 51 187 322
f 321 322 187
f 26 323 325
f 86 324 323
f 85 325 324
f 323 324 325
f 51 322 319
f 85 324 322
f 86 319 324
f 322 324 319
f 12 326 172
f 87 327 326
f 46 172 327
f 326 327 172
f 25 328 330
f 88 329 328
f 87 330 329
f 328 329 330
f 14 177 332
f 46 331 177
f 88 332 331
f 177 331 332
f 87 329 327
f 88 331 329
f 46 327 331
f 329 331 327
f 5 333 335
f 89 334 333
f 91 335 334
f 333 334 335
f 26 336 338
f 90 337 336
f 89 338 337
f 336 337 338
f 25 339 341
f 91 340 339
f 90 341 340
f 339 340 341
f 89 337 334
f 90 340 337
f 91 334 340
f 337 340 334
f 14 332 321
f 88 342 332
f 85 321 342
f 332 342 321
f 25 341 328
f 90 343 341
f 88 328 343
f 341 343 328
f 26 325 336
f 85 344 325
f 90 336 344
f 325 344 336
f 88 343 342
f 90 344 343
f 85 342 344
f 343 344 342
f 12 284 346
f 77 345 284
f 93 346 345
f 284 345 346
f 22 347 287
f 92 348 347
f 77 287 348
f 347 348 287
f 28 349 351
f 93 350 349
f 92 351 350
f 349 350 351
f 77 348 345
f 92 350 348
f 93 345 350
f 348 350 345
f 11 352 276
f 94 353 352
f 74 276 353
f 352 353 276
f 27 354 356
f 95 355 354
f 94 356 355
f 354 355 356
f 22 280 358
f 74 357 280
f 95 358 357
f 280 357 358
f 94 355 353
f 95 357 355
f 74 353 357
f 355 357 353
f 3 359 361
f 96 360 359
f 98 361 360
f 359 360 361
f 28 362 364
f 97 363 362
f 96 364 363
f 362 363 364
f 27 365 367
f 98 366 365
f 97 367 366
f 365 366 367
f 96 363 360
f 97 366 363
f 98 360 366
f 363 366 360
f 22 358 347
f 95 368 358
f 92 347 368
f 358 368 347
f 27 367 354
f 97 369 367
f 95 354 369
f 367 369 354
f 28 351 362
f 92 370 351
f 97 362 370
f 351 370 362
f 95 369 368
f 97 370 369
f 92 368 370
f 369 370 368
f 11 261 372
f 72 371 261
f 100 372 371
f 261 371 372
f 20 373 265
f 99 374 373
f 72 265 374
f 373 374 265
f 30 375 377
f 100 376 375
f 99 377 376
f 375 376 377
f 72 374 371
f 99 376 374
f 100 371 376
f 374 376 371
f 8 378 252
f 101 379 378
f 68 252 379
f 378 379 252
f 29 380 382
f 102 381 380
f 101 382 381
f 380 381 382
f 20 256 384
f 68 383 256
f 102 384 383
f 256 383 384
f 101 381 379
f 102 383 381
f 68 379 383
f 381 383 379
f 7 385 387
f 103 386 385
f 105 387 386
f 385 386 387
f 30 388 390
f 104 389 388
f 103 390 389
f 388 389 390
f 29 391 393
f 105 392 391
f 104 393 392
f 391 392 393
f 103 389 386
f 104 392 389
f 105 386 392
f 389 392 386
f 20 384 373
f 102 394 384
f 99 373 394
f 384 394 373
f 29 393 380
f 104 395 393
f 102 380 395
f 393 395 380
f 30 377 388
f 99 396 377
f 104 388 396
f 377 396 388
f 102 395 394
f 104 396 395
f 99 394 396
f 395 396 394
f 8 235 398
f 65 397 235
f 107 398 397
f 235 397 398
f 18 399 239
f 106 400 399
f 65 239 400
f 399 400 239
f 32 401 403
f 107 402 401
f 106 403 402
f 401 402 403
f 65 400 397
f 106 402 400
f 107 397 402
f 400 402 397
f 2 404 226
f 108 405 404
f 61 226 405
f 404 405 226
f 31 406 408
f 109 407 406
f 108 408 407
f 406 407 408
f 18 230 410
f 61 409 230
f 109 410 409
f 230 409 410
f 108 407 405
f 109 409 407
f 61 405 409
f 407 409 405
f 9 411 413
f 110 412 411
f 112 413 412
f 411 412 413
f 32 414 416
f 111 415 414
f 110 416 415
f 414 415 416
f 31 417 419
f 112 418 417
f 111 419 418
f 417 418 419
f 110 415 412
f 111 418 415
f 112 412 418
f 415 418 412
f 18 410 399
f 109 420 410
f 106 399 420
f 410 420 399
f 31 419 406
f 111 421 419
f 109 406 421
f 419 421 406
f 32 403 414
f 106 422 403
f 111 414 422
f 403 422 414
f 109 421 420
f 111 422 421
f 106 420 422
f 421 422 420
f 4 423 425
f 113 424 423
f 115 425 424
f 423 424 425
f 33 426 428
f 114 427 426
f 113 428 427
f 426 427 428
f 35 429 431
f 115 430 429
f 114 431 430
f 429 430 431
f 113 427 424
f 114 430 427
f 115 424 430
f 427 430 424
f 10 432 434
f 116 433 432
f 118 434 433
f 432 433 434
f 34 435 437
f 117 436 435
f 116 437 436
f 435 436 437
f 33 438 440
f 118 439 438
f 117 440 439
f 438 439 440
f 116 436 433
f 117 439 436
f 118 433 439
f 436 439 433
f 5 441 443
f 119 442 441
f 121 443 442
f 441 442 443
f 35 444 446
f 120 445 444
f 119 446 445
f 444 445 446
f 34 447 449
f 121 448 447
f 120 449 448
f 447 448 449
f 119 445 442
f 120 448 445
f 121 442 448
f 445 448 442
f 33 440 426
f 117 450 440
f 114 426 450
f 440 450 426
f 34 449 435
f 120 451 449
f 117 435 451
f 449 451 435
f 35 431 444
f 114 452 431
f 120 444 452
f 431 452 444
f 117 451 450
f 120 452 451
f 114 450 452
f 451 452 450
f 4 425 454
f 115 453 425
f 123 454 453
f 425 453 454
f 35 455 429
f 122 456 455
f 115 429 456
f 455 456 429
f 37 457 459
f 123 458 457
f 122 459 458
f 457 458 459
f 115 456 453
f 122 458 456
f 123 453 458
f 456 458 453
f 5 460 441
f 124 461 460
f 119 441 461
f 460 461 441
f 36 462 464
f 125 463 462
f 124 464 463
f 462 463 464
f 35 446 466
f 119 465 446
f 125 466 465
f 446 465 466
f 124 463 461
f 125 465 463
f 119 461 465
f 463 465 461
f 3 467 469
f 126 468 467
f 128 469 468
f 467 468 469
f 37 470 472
f 127 471 470
f 126 472 471
f 470 471 472
f 36 473 475
f 128 474 473
f 127 475 474
f 473 474 475
f 126 471 468
f 127 474 471
f 128 468 474
f 471 474 468
f 35 466 455
f 125 476 466
f 122 455 476
f 466 476 455
f 36 475 462
f 127 477 475
f 125 462 477
f 475 477 462
f 37 459 470
f 122 478 459
f 127 470 478
f 459 478 470
f 125 477 476
f 127 478 477
f 122 476 478
f 477 478 476
f 4 454 480
f 123 479 454
f 130 480 479
f 454 479 480
f 37 481 457
f 129 482 481
f 123 457 482
f 481 482 457
f 39 483 485
f 130 484 483
f 129 485 484
f 483 484 485
f 123 482 479
f 129 484 482
f 130 479 484
f 482 484 479
f 3 486 467
f 131 487 486
f 126 467 487
f 486 487 467
f 38 488 490
f 132 489 488
f 131 490 489
f 488 489 490
f 37 472 492
f 126 491 472
f 132 492 491
f 472 491 492
f 131 489 487
f 132 491 489
f 126 487 491
f 489 491 487
f 7 493 495
f 133 494 493
f 135 495 494
f 493 494 495
f 39 496 498
f 134 497 496
f 133 498 497
f 496 497 498
f 38 499 501
f 135 500 499
f 134 501 500
f 499 500 501
f 133 497 494
f 134 500 497
f 135 494 500
f 497 500 494
f 37 492 481
f 132 502 492
f 129 481 502
f 492 502 481
f 38 501 488
f 134 503 501
f 132 488 503
f 501 503 488
f 39 485 496
f 129 504 485
f 134 496 504
f 485 504 496
f 132 503 502
f 134 504 503
f 129 502 504
f 503 504 502
f 4 480 506
f 130 505 480
f 137 506 505
f 480 505 506
f 39 507 483
f 136 508 507
f 130 483 508
f 507 508 483
f 41 509 511
f 137 510 509
f 136 511 510
f 509 510 511
f 130 508 505
f 136 510 508
f 137 505 510
f 508 510 505
f 7 512 493
f 138 513 512
f 133 493 513
f 512 513 493
f 40 514 516
f 139 515 514
f 138 516 515
f 514 515 516
f 39 498 518
f 133 517 498
f 139 518 517
f 498 517 518
f 138 515 513
f 139 517 515
f 133 513 517
f 515 517 513
f 9 519 521
f 140 520 519
f 142 521 520
f 519 520 521
f 41 522 524
f 141 523 522
f 140 524 523
f 522 523 524
f 40 525 527
f 142 526 525
f 141 527 526
f 525 526 527
f 140 523 520
f 141 526 523
f 142 520 526
f 523 526 520
f 39 518 507
f 139 528 518
f 136 507 528
f 518 528 507
f 40 527 514
f 141 529 527
f 139 514 529
f 527 529 514
f 41 511 522
f 136 530 511
f 141 522 530
f 511 530 522
f 139 529 528
f 141 530 529
f 136 528 530
f 529 530 528
f 4 506 423
f 137 531 506
f 113 423 531
f 506 531 423
f 41 532 509
f 143 533 532
f 137 509 533
f 532 533 509
f 33 428 535
f 113 534 428
f 143 535 534
f 428 534 535
f 137 533 531
f 143 534 533
f 113 531 534
f 533 534 531
f 9 536 519
f 144 537 536
f 140 519 537
f 536 537 519
f 42 538 540
f 145 539 538
f 144 540 539
f 538 539 540
f 41 524 542
f 140 541 524
f 145 542 541
f 524 541 542
f 144 539 537
f 145 541 539
f 140 537 541
f 539 541 537
f 10 434 544
f 118 543 434
f 147 544 543
f 434 543 544
f 33 545 438
f 146 546 545
f 118 438 546
f 545 546 438
f 42 547 549
f 147 548 547
f 146 549 548
f 547 548 549
f 118 546 543
f 146 548 546
f 147 543 548
f 546 548 543
f 41 542 532
f 145 550 542
f 143 532 550
f 542 550 532
f 42 549 538
f 146 551 549
f 145 538 551
f 549 551 538
f 33 535 545
f 143 552 535
f 146 545 552
f 535 552 545
f 145 551 550
f 146 552 551
f 143 550 552
f 551 552 550
f 5 443 333
f 121 553 443
f 89 333 553
f 443 553 333
f 34 554 447
f 148 555 554
f 121 447 555
f 554 555 447
f 26 338 557
f 89 556 338
f 148 557 556
f 338 556 557
f 121 555 553
f 148 556 555
f 89 553 556
f 555 556 553
f 10 309 432
f 84 558 309
f 116 432 558
f 309 558 432
f 23 559 313
f 149 560 559
f 84 313 560
f 559 560 313
f 34 437 562
f 116 561 437
f 149 562 561
f 437 561 562
f 84 560 558
f 149 561 560
f 116 558 561
f 560 561 558
f 6 320 300
f 86 563 320
f 80 300 563
f 320 563 300
f 26 564 323
f 150 565 564
f 86 323 565
f 564 565 323
f 23 304 567
f 80 566 304
f 150 567 566
f 304 566 567
f 86 565 563
f 150 566 565
f 80 563 566
f 565 566 563
f 34 562 554
f 149 568 562
f 148 554 568
f 562 568 554
f 23 567 559
f 150 569 567
f 149 559 569
f 567 569 559
f 26 557 564
f 148 570 557
f 150 564 570
f 557 570 564
f 149 569 568
f 150 570 569
f 148 568 570
f 569 570 568
f 3 469 359
f 128 571 469
f 96 359 571
f 469 571 359
f 36 572 473
f 151 573 572
f 128 473 573
f 572 573 473
f 28 364 575
f 96 574 364
f 151 575 574
f 364 574 575
f 128 573 571
f 151 574 573
f 96 571 574
f 573 574 571
f 5 335 460
f 91 576 335
f 124 460 576
f 335 576 460
f 25 577 339
f 152 578 577
f 91 339 578
f 577 578 339
f 36 464 580
f 124 579 464
f 152 580 579
f 464 579 580
f 91 578 576
f 152 579 578
f 124 576 579
f 578 579 576
f 12 346 326
f 93 581 346
f 87 326 581
f 346 581 326
f 28 582 349
f 153 583 582
f 93 349 583
f 582 583 349
f 25 330 585
f 87 584 330
f 153 585 584
f 330 584 585
f 93 583 581
f 153 584 583
f 87 581 584
f 583 584 581
f 36 580 572
f 152 586 580
f 151 572 586
f 580 586 572
f 25 585 577
f 153 587 585
f 152 577 587
f 585 587 577
f 28 575 582
f 151 588 575
f 153 582 588
f 575 588 582
f 152 587 586
f 153 588 587
f 151 586 588
f 587 588 586
f 7 495 385
f 135 589 495
f 103 385 589
f 495 589 385
f 38 590 499
f 154 591 590
f 135 499 591
f 590 591 499
f 30 390 593
f 103 592 390
f 154 593 592
f 390 592 593
f 135 591 589
f 154 592 591
f 103 589 592
f 591 592 589
f 3 361 486
f 98 594 361
f 131 486 594
f 361 594 486
f 27 595 365
f 155 596 595
f 98 365 596
f 595 596 365
f 38 490 598
f 131 597 490
f 155 598 597
f 490 597 598
f 98 596 594
f 155 597 596
f 131 594 597
f 596 597 594
f 11 372 352
f 100 599 372
f 94 352 599
f 372 599 352
f 30 600 375
f 156 601 600
f 100 375 601
f 600 601 375
f 27 356 603
f 94 602 356
f 156 603 602
f 356 602 603
f 100 601 599
f 156 602 601
f 94 599 602
f 601 602 599
f 38 598 590
f 155 604 598
f 154 590 604
f 598 604 590
f 27 603 595
f 156 605 603
f 155 595 605
f 603 605 595
f 30 593 600
f 154 606 593
f 156 600 606
f 593 606 600
f 155 605 604
f 156 606 605
f 154 604 606
f 605 606 604
f 9 521 411
f 142 607 521
f 110 411 607
f 521 607 411
f 40 608 525
f 157 609 608
f 142 525 609
f 608 609 525
f 32 416 611
f 110 610 416
f 157 611 610
f 416 610 611
f 142 609 607
f 157 610 609
f 110 607 610
f 609 610 607
f 7 387 512
f 105 612 387
f 138 512 612
f 387 612 512
f 29 613 391
f 158 614 613
f 105 391 614
f 613 614 391
f 40 516 616
f 138 615 516
f 158 616 615
f 516 615 616
f 105 614 612
f 158 615 614
f 138 612 615
f 614 615 612
f 8 398 378
f 107 617 398
f 101 378 617
f 398 617 378
f 32 618 401
f 159 619 618
f 107 401 619
f 618 619 401
f 29 382 621
f 101 620 382
f 159 621 620
f 382 620 621
f 107 619 617
f 159 620 619
f 101 617 620
f 619 620 617
f 40 616 608
f 158 622 616
f 157 608 622
f 616 622 608
f 29 621 613
f 159 623 621
f 158 613 623
f 621 623 613
f 32 611 618
f 157 624 611
f 159 618 624
f 611 624 618
f 158 623 622
f 159 624 623
f 157 622 624
f 623 624 622
f 10 544 307
f 147 625 544
f 82 307 625
f 544 625 307
f 42 626 547
f 160 627 626
f 147 547 627
f 626 627 547
f 24 312 629
f 82 628 312
f 160 629 628
f 312 628 629
f 147 627 625
f 160 628 627
f 82 625 628
f 627 628 625
f 9 413 536
f 112 630 413
f 144 536 630
f 413 630 536
f 31 631 417
f 161 632 631
f 112 417 632
f 631 632 417
f 42 540 634
f 144 633 540
f 161 634 633
f 540 633 634
f 112 632 630
f 161 633 632
f 144 630 633
f 632 633 630
f 2 294 404
f 79 635 294
f 108 404 635
f 294 635 404
f 24 636 297
f 162 637 636
f 79 297 637
f 636 637 297
f 31 408 639
f 108 638 408
f 162 639 638
f 408 638 639
f 79 637 635
f 162 638 637
f 108 635 638
f 637 638 635
f 42 634 626
f 161 640 634
f 160 626 640
f 634 640 626
f 31 639 631
f 162 641 639
f 161 631 641
f 639 641 631
f 24 629 636
f 160 642 629
f 162 636 642
f 629 642 636
f 161 641 640
f 162 642 641
f 160 640 642
f 641 642 640
