101 198
v 0.1917572924 0.71376358539999996 0.64838399469999997
v 0.1889999789 0.79012302550000002 -0.55685780979999999
v -0.67329266470000004 0.66825069410000004 -0.25838615100000001
v 0.84929636369999995 0.37392697359999999 0.30112754679999998
v -0.60231697169999998 -0.33811680360000002 0.69269235829999998
v 0.0109797239 0.18371531830000001 0.96435462969999997
v 0.05005842521 0.1705746538 -0.96765432809999996
v 0.64907610189999998 -0.29097008619999998 0.67533372849999995
v -0.39986723899999999 -0.84238260580000002 -0.31165502779999998
v 0.25508902389999999 0.91712430550000001 -0.2420813547
v -0.95867626669999995 -0.078893275900000004 -0.20337421689999999
v -0.94129417829999995 0.16366619590000001 -0.20526006720000001
v 0.684620326 0.4020673434 0.57152709830000004
v -0.78598095700000004 -0.16727463840000001 0.56043326839999996
v 0.61270800319999996 0.67313328800000005 -0.375725696
v 0.88389525530000002 -0.43175804709999999 -0.042457315070000001
v -0.60160306600000002 -0.58205044380000004 -0.50562791900000004
v -0.53833676809999997 0.80532502589999999 0.10634069240000001
v -0.81874440339999999 0.33881530160000001 0.4309380974
v -0.6352507865 0.2032727698 0.72150882800000005
v -0.0070743243180000004 0.57265309789999996 0.80156339170000002
v -0.32148956350000002 0.34673485570000001 0.86231650270000004
v -0.57362071100000001 0.62067397430000004 0.50249307679999999
v -0.16678170940000001 0.96085894279999995 0.1040601229
v -0.31065933550000002 0.92183222460000003 -0.064439748690000007
v -0.37492017259999999 0.82963578169999996 0.3608251381
v -0.23106656789999999 0.74223547909999998 0.59602210430000002
v 0.25844259860000002 0.93262932620000005 0.1965063936
v 0.058887525119999999 0.89738802449999999 0.38738022770000002
v 0.058692980890000003 0.56787266650000001 -0.79748194900000002
v -0.074867324109999994 0.935831682 -0.26612190099999999
v -0.39260657739999999 0.83852355629999997 -0.3289022506
v -0.30119179330000001 0.46905079030000002 -0.80523972160000001
v -0.22300219930000001 0.73574531070000004 -0.60663358239999998
v -0.75189934250000001 0.04239781569 -0.63102533199999999
v -0.82963578169999996 0.3608251381 -0.37492017259999999
v -0.59318523410000001 0.29658066849999998 -0.71552405939999997
v -0.55931010699999995 0.53680993160000001 -0.59571615560000002
v -0.784182983 0.59012625559999998 0.03998544557
v -0.94699318139999999 0.069923582499999998 0.23968887429999999
v -0.91783683989999998 0.32945382000000001 0.034186884709999997
v 0.51388388799999996 0.83817332680000001 0.01082744615
v 0.90333522109999997 0.11580961250000001 0.3581546149
v 0.45796270439999998 0.54506086760000005 0.67027022300000005
v 0.61839885569999997 0.67641388069999997 0.3567330507
v -0.58613033589999997 -0.055837130319999997 0.77992723590000002
v -0.25401257059999999 -0.26109719749999999 0.90678493390000003
v 0.0070743243180000004 -0.57265309789999996 0.80156339170000002
v -0.34755844229999999 6.5326072319999997e-17 0.90991981509999997
v -0.94129417829999995 -0.16366619590000001 0.20526006720000001
v -0.82708867220000004 -0.37387356059999999 0.3683619185
v -0.84099739470000001 -0.31251113530000002 -0.40210855760000003
v -0.61785220649999995 -0.75529794449999998 -0.1040470813
v -0.73574531070000004 -0.60663358239999998 0.22300219930000001
v -0.75569450400000004 -0.59677394419999996 -0.15529736799999999
v -0.89670818320000001 -0.38476936140000001 -4.8037504509999997e-17
v -0.50836043679999998 -0.074624371649999993 -0.8399434174
v -0.25401257059999999 0.26109719749999999 -0.90678493390000003
v 0.063753781640000007 -0.52387372300000001 -0.83017681310000002
v -0.23322610020000001 -0.18057759870000001 -0.93578232110000004
v 0.18842705700000001 -0.17776804369999999 -0.94873869899999996
v 0.82708867220000004 0.37387356059999999 -0.3683619185
v 0.62360935070000001 -0.75323846169999997 0.074718823249999997
v 0.71552405939999997 -0.59318523410000001 0.29658066849999998
v 0.32692650229999998 -0.86176714249999997 0.31907217139999999
v 0.29658066849999998 -0.71552405939999997 0.59318523410000001
v 0.54506086760000005 -0.67027022300000005 0.45796270439999998
v 0.41372253549999999 -0.47469143330000002 0.75121022339999999
v 0.20810994660000001 -0.96089513000000004 0.0013852111109999999
v 0.0041806697780000001 -0.82260217830000004 0.52944739279999997
v -0.17162913430000001 -0.95774619429999996 0.067795751550000005
v -0.38659289720000001 -0.87634628879999998 0.22275210870000001
v 0.0066452748599999997 -0.93788952219999999 0.28134593000000002
v 0.26109719749999999 -0.90678493390000003 -0.25401257059999999
v -9.1637045450000009e-16 -0.77290301610000001 -0.61467530240000001
v -0.084104677350000004 -0.92732981950000004 -0.31681463170000002
v 0.60085584680000004 -0.73645982300000001 -0.25339526369999998
v 0.84929348159999996 0.017981522610000002 -0.49769146530000002
v 0.84238260580000002 -0.31165502779999998 -0.39986723899999999
v 0.64282949779999998 -0.43120658950000001 -0.59797001579999998
v 0.44518003830000002 -0.73723304860000005 -0.4662448193
v 0.42431399209999998 -0.51506722989999998 -0.72322856960000004
v 0.95774619429999996 -0.067795751550000005 -0.17162913430000001
v 0.8212573259 -0.23877684860000001 0.49165370079999998
v 0.95651394369999998 -0.20411912909999999 0.1236930763
v 0.25401257059999999 -0.26109719749999999 0.90678493390000003
v -3.3806150120000001e-16 -0.15191797330000001 0.96745872040000003
v 0.64924010229999995 0.19399861099999999 0.71237837429999995
v 0.58613033589999997 -0.055837130319999997 0.77992723590000002
v 0.31907217139999999 0.32692650229999998 0.86176714249999997
v 0.2881235251 0.032169169859999999 0.93397994600000001
v -0.1917572924 -0.71376358539999996 0.64838399469999997
v -0.54506086760000005 -0.67027022300000005 0.45796270439999998
v -0.41372253549999999 -0.47469143330000002 0.75121022339999999
v -0.3517104144 -0.54210162829999997 -0.73974076079999995
v -0.68043965620000002 -0.39948354740000003 -0.57829156410000004
v 0.66085180070000005 0.2309424782 -0.69257104950000004
v 0.54726189309999995 -0.042654550300000003 -0.8181372307
v 0.41827993769999999 0.41339469379999999 -0.7912619018
v 0.95772191780000004 0.20457444659999999 -0.033980139130000003
v 0.82626935219999997 0.53060212330000001 2.553039039e-17
f 19 23 39
f 39 23 18
f 23 26 18
f 14 20 19
f 23 22 27
f 27 22 21
f 19 20 23
f 22 23 20
f 26 23 27
f 26 24 18
f 18 24 25
f 29 27 1
f 21 1 27
f 24 26 29
f 27 29 26
f 1 28 29
f 24 29 28
f 18 25 32
f 31 25 24
f 31 32 25
f 28 42 10
f 24 28 10
f 34 2 30
f 24 10 31
f 2 34 31
f 32 31 34
f 10 2 31
f 18 32 3
f 34 30 33
f 38 34 33
f 38 37 36
f 36 37 35
f 3 32 38
f 34 38 32
f 37 38 33
f 3 38 36
f 3 39 18
f 36 35 12
f 11 12 35
f 14 19 40
f 41 40 19
f 3 36 39
f 12 41 36
f 36 41 39
f 11 40 12
f 40 41 12
f 39 41 19
f 1 45 28
f 28 45 42
f 88 44 90
f 90 44 21
f 44 1 21
f 84 43 88
f 43 4 13
f 43 13 88
f 1 44 45
f 88 13 44
f 4 45 13
f 13 45 44
f 6 21 22
f 14 46 20
f 14 5 46
f 87 47 48
f 94 48 47
f 5 94 47
f 46 49 20
f 20 49 22
f 5 47 46
f 47 49 46
f 22 49 6
f 47 87 49
f 6 49 87
f 40 50 14
f 11 50 40
f 14 50 51
f 35 52 11
f 56 55 54
f 54 55 53
f 11 56 50
f 11 52 56
f 55 56 52
f 50 56 51
f 51 56 54
f 57 35 37
f 7 58 30
f 30 58 33
f 37 33 58
f 95 60 59
f 61 59 60
f 57 60 95
f 7 61 60
f 37 58 57
f 58 7 60
f 58 60 57
f 2 99 30
f 2 10 15
f 10 42 15
f 78 97 62
f 99 2 15
f 97 15 62
f 97 99 15
f 66 65 67
f 65 63 67
f 64 67 63
f 66 68 48
f 8 67 84
f 84 67 64
f 68 66 67
f 8 68 67
f 65 69 63
f 73 69 65
f 48 70 66
f 48 92 70
f 73 72 71
f 66 70 65
f 70 73 65
f 92 72 70
f 72 73 70
f 69 73 71
f 63 69 77
f 69 74 77
f 77 74 81
f 53 9 72
f 71 72 9
f 69 71 76
f 71 9 76
f 74 69 76
f 9 75 76
f 81 74 75
f 74 76 75
f 81 75 82
f 75 59 82
f 82 98 80
f 98 78 80
f 79 80 78
f 81 80 77
f 77 80 79
f 82 80 81
f 79 16 77
f 64 63 16
f 77 16 63
f 83 79 78
f 16 79 83
f 64 85 84
f 43 84 85
f 85 16 83
f 64 16 85
f 68 86 48
f 87 48 86
f 8 86 68
f 8 84 89
f 88 89 84
f 90 21 6
f 91 90 6
f 8 89 86
f 89 91 86
f 89 88 91
f 90 91 88
f 6 87 91
f 86 91 87
f 54 53 72
f 92 93 72
f 93 54 72
f 94 92 48
f 5 14 51
f 94 93 92
f 5 51 93
f 54 93 51
f 5 93 94
f 75 95 59
f 9 95 75
f 52 17 55
f 17 53 55
f 17 9 53
f 35 57 96
f 35 96 52
f 9 17 95
f 52 96 17
f 57 95 96
f 95 17 96
f 98 97 78
f 59 61 82
f 99 7 30
f 82 61 98
f 97 98 99
f 7 99 98
f 7 98 61
f 100 43 85
f 100 4 43
f 85 83 100
f 83 78 100
f 62 100 78
f 45 101 42
f 15 42 101
f 4 101 45
f 62 15 101
f 100 62 101
f 100 101 4
