102 200
v -0.88807566640000002 0.40550956919999998 0.1283461598
v 0.70640150079999997 0.56635696160000004 0.36302533650000002
v -0.71600164070000005 0.44826161930000002 0.49393657279999997
v -0.088711316920000005 0.59855106430000005 0.77046190670000003
v 0.26529650649999997 0.62010996220000003 -0.70535372279999997
v 0.7838928288 0.29497324670000002 0.51071281180000005
v 0.17759143829999999 0.39487513070000002 -0.87795872100000005
v 0.67073904890000002 0.63851726310000001 -0.31831103760000001
v 0.72081940499999997 -0.66113843289999996 0.1055212334
v 0.17757920890000001 -0.94664245319999996 0.174746385
v -0.22288668989999999 -0.93345102759999998 -0.20397049710000001
v -0.22609651780000001 -0.74200042840000002 -0.60807308579999997
v 0.77263324060000005 -0.28738848810000001 -0.52623444529999996
v -0.8895622929 0.20437902929999999 0.35705195150000002
v -0.51520569289999996 0.37519612829999999 0.74174592719999999
v -0.0094845858169999991 0.98832286520000001 0.096518293180000006
v 0.14936629830000001 0.84275950690000001 0.48466320089999998
v -0.058107452560000002 0.68100575689999998 -0.70257766659999998
v -0.22326228740000001 0.79999249390000005 -0.52284382399999996
v -0.92102189489999997 0.16285702960000001 -0.31397438620000001
v 0.67725285570000004 -0.062872208870000001 0.70781021799999999
v 0.89732815860000004 0.27905155510000001 0.28341273709999998
v -0.1878516093 0.39389043270000001 0.87626116269999998
v -0.67207422579999998 -0.16892831250000001 0.69085942570000003
v -0.80975636979999999 -0.28951954689999998 -0.47519780509999998
v -0.3536023666 0.045801261099999997 -0.90986321989999996
v -0.23152673209999999 -0.3597647531 -0.88673741419999996
v -0.076149648400000006 0.054246481790000002 -0.97784670350000003
v 0.51184990620000004 0.249402816 -0.80063686789999999
v 0.4291975535 -0.83257741780000005 0.28452798429999998
v 0.1781343115 -0.55658511710000003 0.79007625370000001
v 0.36254425039999999 -0.59440090779999999 -0.69203915410000005
v -0.66374950899999996 -0.42942548200000003 0.57424569510000001
v -0.54743503520000003 -0.6028944289 -0.54053983709999998
v 0.28746399410000001 -0.28174386489999997 -0.89071777060000001
v -0.62872532349999999 0.72415188370000005 0.21974336890000001
v -0.29807035529999998 0.80904832699999996 0.47053701920000002
v -0.47231044509999998 0.59719684250000005 0.62093926440000002
v -0.32890119369999998 0.92019025430000001 0.076384523019999997
v 0.2216368551 0.95421693019999998 0.096777838579999997
v -0.52702264809999999 0.80765693689999996 -0.19883978099999999
v 0.54745981170000002 0.81133761839999996 -0.089860268839999993
v 0.24193730499999999 0.93660037249999994 -0.15069485930000001
v 0.29159469389999998 0.80136731520000004 -0.48805216689999997
v -0.1170244101 0.91605851999999999 -0.33745601040000001
v -0.41346824110000002 0.47468180119999998 -0.75116766450000005
v -0.58570444079999995 0.2121855527 -0.75572480639999995
v -0.62213920310000004 0.57564204230000005 -0.50563281299999996
v -0.79020124879999998 0.56468556319999996 -0.12501713759999999
v 0.50569431379999996 0.7538105799 0.38162351880000001
v 0.21633487770000001 0.65826013660000005 0.69611933029999995
v 0.56955637140000004 0.37856224970000002 0.70887211569999997
v -0.4615080406 0.12652472880000001 0.85734670189999995
v -0.088223550139999996 -0.23798383410000001 0.94925571919999996
v -0.22720547399999999 0.034102837300000001 0.95704693610000002
v -0.80887598900000002 0.081137396040000004 0.55526759640000001
v -0.98009407029999995 0.042671236080000001 0.044399923049999998
v -0.88606486849999999 -0.19613190950000001 0.3713005881
v -0.77039299009999995 -0.53563473989999999 -0.28486788969999999
v -0.80208263140000002 -0.55879894529999996 0.064339366770000003
v -0.95357284060000003 -0.22211656369999999 -0.085020261619999996
v -0.78325350140000005 0.1141843926 -0.58493753699999995
v -0.1906711811 0.42232714850000003 -0.86860049130000005
v -0.56638844109999997 -0.1163845276 -0.78972154770000003
v 0.80450573150000004 0.30504756399999999 -0.47318439150000002
v 0.50943705269999995 0.55094729539999998 -0.63720042359999995
v 0.51716658520000003 -0.47425735499999999 0.68155793870000003
v 0.74239273559999996 -0.28067977 0.5733264602
v 0.73707071980000005 -0.55845700180000002 0.34220975980000001
v 0.3264410613 -0.72523770180000002 0.57319872370000002
v -0.1164314447 -0.7442960368 0.63347483910000002
v 0.076864593430000003 -0.90089165559999995 0.38023146559999998
v -0.173984374 -0.94987380860000004 0.1910048409
v 0.22736333 -0.95757896499999995 -0.057663835390000001
v 0.39953188319999999 -0.82311849010000004 -0.36609705869999998
v 0.026720808190000001 -0.87258638320000004 -0.45073916809999998
v 0.58291874669999999 -0.78337551490000001 -0.065025698830000006
v 0.096239799220000005 -0.58685625880000003 -0.77910653819999998
v 0.7827577792 0.045277014460000001 -0.58540410190000003
v 0.68174001989999999 -0.52406645230000004 -0.47195550860000002
v 0.7697723139 -0.56729470319999997 -0.2044173423
v 0.92239756910000004 -0.065759007760000002 -0.32055238819999998
v 0.96957466800000003 0.044205348950000001 0.11886965770000001
v 0.92430481119999996 -0.3151772196 0.107461054
v 0.95208637519999995 -0.19584433209999999 -0.15981291589999999
v 0.22303182960000001 0.30948408389999998 0.91069366559999998
v 0.29027817239999998 -0.27812357869999998 0.89531040660000005
v 0.34420404719999997 -0.01349268704 0.92429582669999999
v -0.49393749219999999 -0.85074922740000003 -0.0050088954240000002
v -0.53377641090000005 -0.72401229079999996 0.4052510527
v -0.81941335329999998 -0.43853586639999997 0.30580033270000001
v -0.35691109679999999 -0.36740480949999998 0.84297683069999996
v -0.44387462789999999 -0.63901453559999999 0.59794761240000005
v -0.57101172820000001 -0.77316534969999995 -0.21357740820000001
v -0.50079099900000001 -0.41856488289999999 -0.73004427579999998
v 0.57254753390000002 -0.2710880027 -0.74608180639999999
v 0.54984826779999996 0.0040465413529999997 -0.81211326610000001
v -0.0020367394020000002 -0.28332018710000001 -0.93645103210000002
v 0.1791748728 0.039923755890000003 -0.96293528949999996
v 0.88676701430000004 -0.085764290839999993 0.40011994899999997
v 0.92338712460000005 0.31807977799999998 -0.1341778696
v 0.78064620169999999 0.59157134099999997 0.02416522569
f 39 41 36
f 3 36 1
f 3 56 15
f 1 14 3
f 3 14 56
f 37 38 4
f 38 15 23
f 38 23 4
f 36 3 38
f 3 15 38
f 36 38 37
f 16 39 37
f 36 37 39
f 17 37 4
f 17 4 51
f 50 42 40
f 40 17 50
f 16 37 17
f 40 16 17
f 45 39 16
f 19 41 45
f 45 41 39
f 42 43 40
f 42 44 43
f 40 43 16
f 18 44 5
f 19 44 18
f 45 16 43
f 19 45 44
f 43 44 45
f 48 41 19
f 41 48 49
f 18 63 46
f 47 46 63
f 46 19 18
f 48 19 46
f 49 48 20
f 20 48 62
f 46 47 48
f 47 62 48
f 36 41 49
f 1 36 49
f 61 57 20
f 57 56 14
f 1 49 20
f 14 1 57
f 20 57 1
f 102 42 50
f 50 2 102
f 86 51 4
f 51 86 52
f 17 51 50
f 100 6 21
f 52 21 6
f 2 6 22
f 52 50 51
f 2 52 6
f 2 50 52
f 23 86 4
f 55 23 53
f 15 53 23
f 23 55 86
f 92 53 24
f 15 56 53
f 53 56 24
f 92 31 54
f 54 55 92
f 53 92 55
f 57 58 56
f 58 57 61
f 25 20 62
f 61 25 59
f 61 20 25
f 60 94 89
f 60 59 94
f 61 59 60
f 58 61 91
f 60 91 61
f 64 62 47
f 26 47 63
f 28 26 63
f 27 98 78
f 64 27 95
f 98 27 28
f 64 47 26
f 26 28 27
f 26 27 64
f 18 7 63
f 18 5 7
f 66 5 44
f 5 66 7
f 29 7 66
f 8 44 42
f 66 44 8
f 65 29 66
f 101 65 8
f 65 79 29
f 66 8 65
f 9 30 77
f 69 70 30
f 69 30 9
f 21 68 100
f 87 67 21
f 67 68 21
f 31 67 87
f 68 67 69
f 31 70 67
f 70 69 67
f 30 74 77
f 30 10 74
f 70 72 30
f 10 30 72
f 74 10 73
f 70 31 71
f 72 70 71
f 11 73 89
f 90 89 73
f 90 73 71
f 72 71 73
f 72 73 10
f 77 74 75
f 94 11 89
f 12 11 94
f 73 11 74
f 75 76 32
f 32 76 78
f 76 12 78
f 76 74 11
f 76 11 12
f 74 76 75
f 80 81 75
f 75 81 77
f 35 32 78
f 96 32 35
f 96 79 13
f 80 75 32
f 13 80 96
f 80 32 96
f 81 9 77
f 13 79 82
f 80 85 81
f 80 13 85
f 82 85 13
f 69 84 68
f 68 84 100
f 84 85 83
f 84 83 100
f 9 81 84
f 84 81 85
f 84 69 9
f 87 54 31
f 55 54 88
f 88 54 87
f 88 52 86
f 21 52 88
f 88 87 21
f 88 86 55
f 60 89 90
f 91 60 90
f 92 71 31
f 71 93 90
f 93 71 92
f 24 56 58
f 33 58 91
f 33 92 24
f 33 24 58
f 33 93 92
f 33 90 93
f 90 33 91
f 12 27 78
f 95 27 12
f 34 94 59
f 34 12 94
f 64 25 62
f 64 95 25
f 95 12 34
f 34 59 25
f 25 95 34
f 96 97 79
f 29 79 97
f 98 35 78
f 99 98 28
f 35 98 99
f 28 63 7
f 99 7 29
f 7 99 28
f 97 35 99
f 35 97 96
f 97 99 29
f 83 22 100
f 6 100 22
f 65 82 79
f 85 101 83
f 85 82 101
f 101 82 65
f 22 102 2
f 8 102 101
f 8 42 102
f 22 83 101
f 101 102 22
