125 246
v -0.046502654419999997 -0.58198522109999995 -0.78306052579999996
v 0.1917572924 0.71376358539999996 0.64838399469999997
v 0.29658066849999998 0.71552405939999997 -0.59318523410000001
v -0.67329266470000004 0.66825069410000004 -0.25838615100000001
v 0.84929636369999995 0.37392697359999999 0.30112754679999998
v -0.60231697169999998 -0.33811680360000002 0.69269235829999998
v 0.0109797239 0.18371531830000001 0.96435462969999997
v -0.065481089480000004 0.1104975067 -0.96711220779999996
v -0.55271569519999997 -0.19063004010000001 -0.78100514889999995
v 0.64907610189999998 -0.29097008619999998 0.67533372849999995
v -0.39986723899999999 -0.84238260580000002 -0.31165502779999998
v 0.41439651259999999 -0.4070781752 -0.78381527419999997
v 0.25508902389999999 0.91712430550000001 -0.2420813547
v -0.95867626669999995 -0.078893275900000004 -0.20337421689999999
v -0.94129417829999995 0.16366619590000001 -0.20526006720000001
v 0.684620326 0.4020673434 0.57152709830000004
v -0.78598095700000004 -0.16727463840000001 0.56043326839999996
v 0.54506086760000005 0.67027022300000005 -0.45796270439999998
v 0.82260217830000004 -0.52944739279999997 -0.0041806697780000001
v -0.60160306600000002 -0.58205044380000004 -0.50562791900000004
v 0.1334568448 0.21003597669999999 -0.94630903209999995
v -0.53833676809999997 0.80532502589999999 0.10634069240000001
v -0.6349613503 0.62157910839999997 0.40286273010000001
v -0.78199021089999998 0.31211642049999999 0.50355711780000001
v -0.6352507865 0.2032727698 0.72150882800000005
v -0.0070743243180000004 0.57265309789999996 0.80156339170000002
v -0.36097225020000001 0.4366223326 0.79397139100000003
v -0.49595177550000002 0.56946348670000002 0.61489622269999999
v -0.16678170940000001 0.96085894279999995 0.1040601229
v -0.31065933550000002 0.92183222460000003 -0.064439748690000007
v -0.37492017259999999 0.82963578169999996 0.3608251381
v -0.23106656789999999 0.74223547909999998 0.59602210430000002
v 0.17162913430000001 0.95774619429999996 0.067795751550000005
v 0.32692650229999998 0.86176714249999997 0.31907217139999999
v 0.058887525119999999 0.89738802449999999 0.38738022770000002
v 0.058692980890000003 0.56787266650000001 -0.79748194900000002
v 0.078413539000000004 0.83548197800000001 -0.497650545
v -0.074867324109999994 0.935831682 -0.26612190099999999
v -0.39260657739999999 0.83852355629999997 -0.3289022506
v -0.30119179330000001 0.46905079030000002 -0.80523972160000001
v -0.22300219930000001 0.73574531070000004 -0.60663358239999998
v -0.75189934250000001 0.04239781569 -0.63102533199999999
v -0.82963578169999996 0.3608251381 -0.37492017259999999
v -0.59318523410000001 0.29658066849999998 -0.71552405939999997
v -0.55931010699999995 0.53680993160000001 -0.59571615560000002
v -0.784182983 0.59012625559999998 0.03998544557
v -0.84929636369999995 0.37392697359999999 0.30112754679999998
v -0.94699318139999999 0.069923582499999998 0.23968887429999999
v -0.91783683989999998 0.32945382000000001 0.034186884709999997
v 0.48281382299999998 0.84485977369999998 0.10298883070000001
v 0.68789875249999999 0.63867402289999997 0.26499319830000001
v 0.90333522109999997 0.11580961250000001 0.3581546149
v 0.45796270439999998 0.54506086760000005 0.67027022300000005
v 0.550880386 0.67193248949999995 0.44919322760000002
v -0.25401257059999999 0.26109719749999999 0.90678493390000003
v -0.58613033589999997 -0.055837130319999997 0.77992723590000002
v -0.25401257059999999 -0.26109719749999999 0.90678493390000003
v 0.0070743243180000004 -0.57265309789999996 0.80156339170000002
v -0.34755844229999999 6.5326072319999997e-17 0.90991981509999997
v -0.94129417829999995 -0.16366619590000001 0.20526006720000001
v -0.82708867220000004 -0.37387356059999999 0.3683619185
v -0.84099739470000001 -0.31251113530000002 -0.40210855760000003
v -0.61785220649999995 -0.75529794449999998 -0.1040470813
v -0.73574531070000004 -0.60663358239999998 0.22300219930000001
v -0.75569450400000004 -0.59677394419999996 -0.15529736799999999
v -0.89670818320000001 -0.38476936140000001 -4.8037504509999997e-17
v -0.44624858849999999 0.036457091050000001 -0.86702940959999997
v -0.25401257059999999 0.26109719749999999 -0.90678493390000003
v 0.1185004707 -0.47762872140000001 -0.84605682380000002
v -0.23322610020000001 -0.18057759870000001 -0.93578232110000004
v 0.067795751550000005 -0.17162913430000001 -0.95774619429999996
v 0.45132496239999997 0.50808557899999995 -0.69999264729999999
v 0.53833676809999997 0.80532502589999999 -0.10634069240000001
v 0.68789875249999999 0.63867402289999997 -0.26499319830000001
v 0.68728160770000002 0.32065459810000002 -0.61626104000000004
v 0.82708867220000004 0.37387356059999999 -0.3683619185
v 0.62360935070000001 -0.75323846169999997 0.074718823249999997
v 0.71552405939999997 -0.59318523410000001 0.29658066849999998
v 0.32692650229999998 -0.86176714249999997 0.31907217139999999
v 0.79397139100000003 -0.36097225020000001 0.4366223326
v 0.29658066849999998 -0.71552405939999997 0.59318523410000001
v 0.54506086760000005 -0.67027022300000005 0.45796270439999998
v 0.41372253549999999 -0.47469143330000002 0.75121022339999999
v 0.20810994660000001 -0.96089513000000004 0.0013852111109999999
v 0.0041806697780000001 -0.82260217830000004 0.52944739279999997
v -0.46457335760000001 -0.85209120309999997 0.11735363679999999
v -0.17162913430000001 -0.95774619429999996 0.067795751550000005
v -0.32692650229999998 -0.86176714249999997 0.31907217139999999
v 0.0066452748599999997 -0.93788952219999999 0.28134593000000002
v 0.26109719749999999 -0.90678493390000003 -0.25401257059999999
v -0.1720435508 -0.93151473630000003 -0.2443106142
v 0.15529736799999999 -0.75569450400000004 -0.59677394419999996
v -0.15529736799999999 -0.75569450400000004 -0.59677394419999996
v -4.1702842219999998e-16 -0.89670818320000001 -0.38476936140000001
v 0.49232434289999999 -0.80955707539999999 -0.22950040790000001
v 0.68789875249999999 -0.63867402289999997 -0.26499319830000001
v 0.79010126960000004 -0.06493556097 -0.57059305839999996
v 0.84238260580000002 -0.31165502779999998 -0.39986723899999999
v 0.64282949779999998 -0.43120658950000001 -0.59797001579999998
v 0.44518003830000002 -0.73723304860000005 -0.4662448193
v 0.43120658950000001 -0.59797001579999998 -0.64282949779999998
v 0.95774619429999996 -0.067795751550000005 -0.17162913430000001
v 0.84799608670000004 -0.086635038169999998 0.47691727639999998
v 0.90051327510000001 -0.327396399 0.1836363879
v 0.96711220779999996 -0.065481089480000004 0.1104975067
v 0.91329996059999996 -0.32511071349999998 -0.1113244152
v 0.25401257059999999 -0.26109719749999999 0.90678493390000003
v -3.3806150120000001e-16 -0.15191797330000001 0.96745872040000003
v 0.64924010229999995 0.19399861099999999 0.71237837429999995
v 0.58613033589999997 -0.055837130319999997 0.77992723590000002
v 0.31907217139999999 0.32692650229999998 0.86176714249999997
v 0.2881235251 0.032169169859999999 0.93397994600000001
v -0.1917572924 -0.71376358539999996 0.64838399469999997
v -0.54506086760000005 -0.67027022300000005 0.45796270439999998
v -0.41372253549999999 -0.47469143330000002 0.75121022339999999
v -0.3517104144 -0.54210162829999997 -0.73974076079999995
v -0.68043965620000002 -0.39948354740000003 -0.57829156410000004
v 0.60543197609999999 0.15543283760000001 -0.75477696699999997
v 0.59677394419999996 -0.15529736799999999 -0.75569450400000004
v 0.31907217139999999 0.32692650229999998 -0.86176714249999997
v 0.44624858849999999 0.036457091050000001 -0.86702940959999997
v 0.29560332020000002 -0.14877678820000001 -0.92044618
v 0.87328802149999996 0.1241039167 -0.41624150240000002
v 0.95772191780000004 0.20457444659999999 -0.033980139130000003
v 0.82626935219999997 0.53060212330000001 2.553039039e-17
f 47 23 46
f 46 23 22
f 23 31 22
f 17 25 24
f 28 27 32
f 32 27 26
f 47 24 23
f 24 25 28
f 27 28 25
f 23 28 31
f 31 28 32
f 24 28 23
f 31 29 22
f 22 29 30
f 35 32 2
f 26 2 32
f 35 34 33
f 33 34 50
f 29 31 35
f 32 35 31
f 2 34 35
f 29 35 33
f 22 30 39
f 38 30 29
f 38 39 30
f 33 50 13
f 73 13 50
f 29 33 13
f 36 37 3
f 41 37 36
f 29 13 38
f 3 37 13
f 37 41 38
f 39 38 41
f 13 37 38
f 22 39 4
f 41 36 40
f 45 41 40
f 45 44 43
f 43 44 42
f 4 39 45
f 41 45 39
f 44 45 40
f 4 45 43
f 4 46 22
f 43 42 15
f 14 15 42
f 17 24 48
f 24 47 48
f 49 48 47
f 4 43 46
f 15 49 43
f 43 49 46
f 14 48 15
f 48 49 15
f 46 49 47
f 2 54 34
f 34 54 50
f 54 51 50
f 109 53 111
f 111 53 26
f 53 2 26
f 103 52 109
f 52 5 16
f 52 16 109
f 2 53 54
f 109 16 53
f 5 51 16
f 51 54 16
f 16 54 53
f 27 55 26
f 7 26 55
f 25 55 27
f 17 56 25
f 17 6 56
f 108 57 58
f 115 58 57
f 6 115 57
f 56 59 25
f 25 59 55
f 6 57 56
f 57 59 56
f 55 59 7
f 57 108 59
f 7 59 108
f 48 60 17
f 14 60 48
f 17 60 61
f 42 62 14
f 66 65 64
f 64 65 63
f 14 66 60
f 14 62 66
f 65 66 62
f 60 66 61
f 61 66 64
f 67 42 44
f 67 9 42
f 21 68 36
f 36 68 40
f 44 40 68
f 21 8 68
f 116 70 1
f 71 69 70
f 1 70 69
f 9 70 116
f 8 71 70
f 44 68 67
f 68 8 70
f 9 67 70
f 68 70 67
f 118 120 72
f 120 36 72
f 3 72 36
f 3 13 18
f 13 73 18
f 74 18 73
f 118 75 97
f 97 75 123
f 123 75 76
f 72 3 18
f 75 18 76
f 76 18 74
f 118 72 75
f 75 72 18
f 81 79 82
f 79 77 82
f 78 82 77
f 80 103 10
f 81 83 58
f 10 82 80
f 80 82 78
f 83 81 82
f 10 83 82
f 79 84 77
f 89 84 79
f 58 85 81
f 58 113 85
f 89 88 87
f 87 88 86
f 81 85 79
f 85 89 79
f 113 88 85
f 88 89 85
f 84 89 87
f 77 84 95
f 84 90 95
f 95 90 100
f 63 11 86
f 87 86 11
f 84 87 91
f 87 11 91
f 92 1 69
f 94 93 92
f 92 93 1
f 90 84 94
f 91 94 84
f 11 93 91
f 93 94 91
f 100 90 92
f 90 94 92
f 96 77 95
f 100 96 95
f 100 92 101
f 92 69 101
f 12 101 69
f 12 119 99
f 119 97 99
f 98 99 97
f 99 101 12
f 100 99 96
f 96 99 98
f 101 99 100
f 98 19 96
f 78 77 19
f 96 19 77
f 97 123 98
f 102 98 123
f 106 98 102
f 78 104 80
f 80 104 103
f 52 103 105
f 104 105 103
f 98 106 19
f 104 106 105
f 105 106 102
f 78 19 104
f 19 106 104
f 83 107 58
f 108 58 107
f 10 107 83
f 10 103 110
f 109 110 103
f 111 26 7
f 112 111 7
f 10 110 107
f 110 112 107
f 110 109 112
f 111 112 109
f 7 108 112
f 107 112 108
f 64 63 86
f 113 114 88
f 88 114 86
f 114 64 86
f 115 113 58
f 6 17 61
f 115 114 113
f 6 61 114
f 64 114 61
f 6 114 115
f 93 116 1
f 11 116 93
f 62 20 65
f 20 63 65
f 20 11 63
f 42 9 117
f 42 117 62
f 11 20 116
f 62 117 20
f 9 116 117
f 116 20 117
f 119 118 97
f 121 118 119
f 69 122 12
f 71 122 69
f 120 21 36
f 12 122 119
f 122 121 119
f 8 21 71
f 21 122 71
f 118 121 120
f 21 120 121
f 21 121 122
f 124 52 105
f 124 5 52
f 105 102 124
f 102 123 124
f 76 124 123
f 51 125 50
f 74 73 125
f 50 125 73
f 5 125 51
f 76 74 125
f 124 76 125
f 124 125 5
