78 152
v -0.88807566640000002 0.40550956919999998 0.1283461598
v 0.58111246039999997 0.70610870859999997 0.37824999739999998
v -0.85144910620000003 0.3366795179 0.38523521620000001
v -0.1445360457 0.50459116400000004 0.83719325609999995
v 0.21602032409999999 0.49988520339999998 -0.82516917970000003
v 0.67073904890000002 0.63851726310000001 -0.31831103760000001
v 0.72081940499999997 -0.66113843289999996 0.1055212334
v -0.22288668989999999 -0.93345102759999998 -0.20397049710000001
v -0.22609651780000001 -0.74200042840000002 -0.60807308579999997
v -0.0094845858169999991 0.98832286520000001 0.096518293180000006
v 0.14936629830000001 0.84275950690000001 0.48466320089999998
v -0.14928136910000001 0.7488714823 -0.62917818729999997
v -0.92102189489999997 0.16285702960000001 -0.31397438620000001
v 0.85366410439999996 0.29548694269999998 0.40625130850000002
v -0.68676789260000004 -0.2972253473 0.64643096929999999
v -0.80975636979999999 -0.28951954689999998 -0.47519780509999998
v -0.23152673209999999 -0.3597647531 -0.88673741419999996
v -0.2104015531 0.049470522230000001 -0.96385303919999998
v 0.4291975535 -0.83257741780000005 0.28452798429999998
v 0.1781343115 -0.55658511710000003 0.79007625370000001
v 0.2503331432 -0.58798160259999999 -0.75828975379999997
v -0.52508315100000003 -0.52309816740000004 -0.65339644279999998
v -0.62872532349999999 0.72415188370000005 0.21974336890000001
v -0.29807035529999998 0.80904832699999996 0.47053701920000002
v -0.47231044509999998 0.59719684250000005 0.62093926440000002
v -0.32890119369999998 0.92019025430000001 0.076384523019999997
v 0.23166870819999999 0.96375335920000005 0.003675990988
v -0.52702264809999999 0.80765693689999996 -0.19883978099999999
v 0.54745981170000002 0.81133761839999996 -0.089860268839999993
v 0.29159469389999998 0.80136731520000004 -0.48805216689999997
v -0.1170244101 0.91605851999999999 -0.33745601040000001
v -0.49466159469999998 0.36662583679999999 -0.7787195697
v -0.62213920310000004 0.57564204230000005 -0.50563281299999996
v -0.79020124879999998 0.56468556319999996 -0.12501713759999999
v 0.21633487770000001 0.65826013660000005 0.69611933029999995
v 0.56955637140000004 0.37856224970000002 0.70887211569999997
v -0.51903411239999997 0.24528299200000001 0.80460257989999995
v -0.088223550139999996 -0.23798383410000001 0.94925571919999996
v -0.22720547399999999 0.034102837300000001 0.95704693610000002
v -0.80887598900000002 0.081137396040000004 0.55526759640000001
v -0.98009407029999995 0.042671236080000001 0.044399923049999998
v -0.86305020020000001 -0.32136999989999998 0.3582162961
v -0.77039299009999995 -0.53563473989999999 -0.28486788969999999
v -0.80208263140000002 -0.55879894529999996 0.064339366770000003
v -0.95357284060000003 -0.22211656369999999 -0.085020261619999996
v -0.78325350140000005 0.1141843926 -0.58493753699999995
v -0.1906711811 0.42232714850000003 -0.86860049130000005
v -0.56638844109999997 -0.1163845276 -0.78972154770000003
v 0.50943705269999995 0.55094729539999998 -0.63720042359999995
v 0.40246379710000002 -0.61374521869999998 0.67092839599999998
v 0.7284098162 -0.15275104449999999 0.65246360790000002
v 0.73707071980000005 -0.55845700180000002 0.34220975980000001
v -0.1164314447 -0.7442960368 0.63347483910000002
v 0.13922656959999999 -0.93805841629999998 0.27885146230000002
v -0.173984374 -0.94987380860000004 0.1910048409
v 0.22736333 -0.95757896499999995 -0.057663835390000001
v 0.39953188319999999 -0.82311849010000004 -0.36609705869999998
v 0.026720808190000001 -0.87258638320000004 -0.45073916809999998
v 0.80092389340000003 0.18837711609999999 -0.55255712379999999
v 0.72562313489999997 -0.4247200136 -0.52100858589999999
v 0.70694853229999999 -0.68844367360000003 -0.1056348597
v 0.9515439939 -0.1315940599 -0.2308381618
v 0.95555818209999999 0.0082884390359999997 0.26228144409999998
v 0.92430481119999996 -0.3151772196 0.107461054
v 0.22303182960000001 0.30948408389999998 0.91069366559999998
v 0.29027817239999998 -0.27812357869999998 0.89531040660000005
v 0.34420404719999997 -0.01349268704 0.92429582669999999
v -0.49393749219999999 -0.85074922740000003 -0.0050088954240000002
v -0.53377641090000005 -0.72401229079999996 0.4052510527
v -0.35691109679999999 -0.36740480949999998 0.84297683069999996
v -0.44387462789999999 -0.63901453559999999 0.59794761240000005
v -0.57101172820000001 -0.77316534969999995 -0.21357740820000001
v 0.57254753390000002 -0.2710880027 -0.74608180639999999
v 0.53021506979999999 0.12586202699999999 -0.82547728860000003
v 0.14212611620000001 -0.31786627620000002 -0.92590085570000003
v 0.1791748728 0.039923755890000003 -0.96293528949999996
v 0.92338712460000005 0.31807977799999998 -0.1341778696
v 0.78064620169999999 0.59157134099999997 0.02416522569
f 26 28 23
f 3 23 1
f 3 40 37
f 24 25 4
f 25 37 4
f 23 3 25
f 3 37 25
f 23 25 24
f 10 26 24
f 23 24 26
f 11 24 4
f 11 4 35
f 2 29 27
f 27 11 2
f 10 24 11
f 27 10 11
f 31 26 10
f 12 28 31
f 31 28 26
f 29 30 27
f 12 30 5
f 31 10 27
f 12 31 30
f 27 30 31
f 33 28 12
f 28 33 34
f 12 47 32
f 33 12 32
f 34 33 13
f 13 33 46
f 32 46 33
f 23 28 34
f 1 23 34
f 45 41 13
f 41 40 3
f 1 34 13
f 3 1 41
f 13 41 1
f 78 29 2
f 65 35 4
f 35 65 36
f 11 35 2
f 63 14 51
f 36 51 14
f 36 2 35
f 2 36 14
f 39 4 37
f 4 39 65
f 70 37 15
f 37 40 15
f 70 20 38
f 38 39 70
f 37 70 39
f 41 42 40
f 42 41 45
f 16 13 46
f 45 16 43
f 45 13 16
f 44 72 68
f 44 43 72
f 45 43 44
f 44 42 45
f 48 46 32
f 18 32 47
f 17 75 21
f 48 17 22
f 75 17 18
f 48 32 18
f 18 17 48
f 12 5 47
f 49 5 30
f 74 5 49
f 6 30 29
f 49 30 6
f 59 74 49
f 77 59 6
f 49 6 59
f 7 19 61
f 52 50 19
f 52 19 7
f 66 50 51
f 20 50 66
f 51 50 52
f 19 56 61
f 19 54 56
f 50 54 19
f 56 54 55
f 50 20 53
f 54 50 53
f 8 55 68
f 69 68 55
f 69 55 53
f 54 53 55
f 61 56 57
f 72 8 68
f 9 8 72
f 55 8 56
f 57 58 21
f 58 9 21
f 58 56 8
f 58 8 9
f 56 58 57
f 60 61 57
f 73 21 75
f 73 59 60
f 60 57 21
f 60 21 73
f 60 59 62
f 60 62 61
f 52 64 51
f 51 64 63
f 64 62 63
f 7 61 64
f 64 61 62
f 64 52 7
f 66 38 20
f 39 38 67
f 67 38 66
f 67 36 65
f 51 36 67
f 67 66 51
f 67 65 39
f 44 68 69
f 42 44 69
f 70 53 20
f 53 71 69
f 71 53 70
f 15 40 42
f 15 71 70
f 15 69 71
f 69 15 42
f 9 17 21
f 22 17 9
f 22 72 43
f 22 9 72
f 48 16 46
f 48 22 16
f 22 43 16
f 73 74 59
f 76 75 18
f 18 47 5
f 76 5 74
f 5 76 18
f 74 75 76
f 75 74 73
f 62 77 63
f 77 62 59
f 14 78 2
f 6 78 77
f 6 29 78
f 14 63 77
f 77 78 14
