237 474
v 0.96999999999999997 -7.5839178440000002e-17 -2.1184668470000001e-17
v 0.94158782870000002 -7.5839178440000002e-17 0.12448185589999999
v 0.50393450870000001 -0.052855366309999999 0.22378846790000001
v 0.39613333909999998 0.044633507910000002 5.984795992e-17
v 0.61994695330000005 0.059062377489999998 -0.27967552569999998
v 0.744161564 0.1007337843 -0.27975673140000001
v 0.86158280789999997 -0.085772720679999997 -0.2254705944
v 0.94158782870000002 -7.5839178440000002e-17 -0.12448185589999999
v 0.94568007480000005 0.21584530590000001 -2.1184668470000001e-17
v 0.91798025599999999 0.20952300300000001 0.12448185589999999
v 0.86158280789999997 0.085772720679999997 0.2254705944
v 0.58417910979999998 0.2157715388 0.27967552569999998
v 0.4769623878 0.17102794939999999 0.22378846790000001
v 0.42416673399999999 0.048850927779999997 0.1239361048
v 0.41396351139999998 0.094484470099999995 -0.12448185589999999
v 0.81347467579999999 0.29654821920000002 -0.2254705944
v 0.91798025599999999 0.20952300300000001 -0.12448185589999999
v 0.87393980189999998 0.4208672269 -2.1184668470000001e-17
v 0.84834132009999996 0.40853964780000002 0.12448185589999999
v 0.77661596799999999 0.37399853869999999 0.22430855350000001
v 0.74419871100000001 0.14534236079999999 0.27988132469999999
v 0.36096539890000001 0.22805221370000001 0.1239361048
v 0.49930910439999998 0.1081162417 -0.22294098300000001
v 0.50117118169999997 0.3798866957 -0.27959152929999997
v 0.57763354030000003 0.49121850169999998 -0.27988132469999999
v 0.84834132009999996 0.40853964780000002 -0.12448185589999999
v 0.75837653800000004 0.60478510780000005 -2.1184668470000001e-17
v 0.73616300800000001 0.58707040880000005 0.12448185589999999
v 0.35552201639999997 0.36103708210000002 0.22378846790000001
v 0.33753805279999999 0.21208921550000001 -4.6635996749999996e-16
v 0.36208496169999999 0.22627043960000001 -0.1239361048
v 0.60424790750000001 0.62013414730000005 -0.2254705944
v 0.73616300800000001 0.58707040880000005 -0.12448185589999999
v 0.60478510780000005 0.75837653800000004 -2.1184668470000001e-17
v 0.58707040880000005 0.73616300800000001 0.12448185589999999
v 0.62013414730000005 0.60424790750000001 0.2254705944
v 0.43270742919999999 0.44786925550000001 0.27967552569999998
v 0.21208921550000001 0.33753805279999999 -5.0875632809999999e-17
v 0.26473960219999998 0.33197296100000001 -0.12448185589999999
v 0.36103708210000002 0.35552201639999997 -0.22378846790000001
v 0.58707040880000005 0.73616300800000001 -0.12448185589999999
v 0.4208672269 0.87393980189999998 -2.1184668470000001e-17
v 0.40853964780000002 0.84834132009999996 0.12448185589999999
v 0.29654821920000002 0.81347467579999999 0.2254705944
v 0.49121850169999998 0.57763354030000003 0.27988132469999999
v 0.1248160599 0.61636629210000005 0.27959152929999997
v 0.1636661495 0.47953839300000001 0.22378846790000001
v 0.22627043960000001 0.36208496169999999 0.1239361048
v 0.2157715388 0.58417910979999998 -0.27967552569999998
v 0.23212159830000001 0.71417315280000004 -0.27975673140000001
v 0.27534243060000002 0.82089490210000005 -0.2254705944
v 0.40853964780000002 0.84834132009999996 -0.12448185589999999
v 0.21584530590000001 0.94568007480000005 -2.1184668470000001e-17
v 0.20952300300000001 0.91798025599999999 0.12448185589999999
v 0.044633507910000002 0.39613333909999998 1.8995222059999999e-16
v 0.14201211080000001 0.40266163430000002 -0.1239361048
v 0.17102794939999999 0.4769623878 -0.22378846790000001
v 0.20952300300000001 0.91798025599999999 -0.12448185589999999
v 6.2103911849999999e-17 0.96999999999999997 -2.1184668470000001e-17
v 6.036416812e-17 0.94158782870000002 0.12448185589999999
v 5.5489514510000002e-17 0.86197869390000004 0.22430855350000001
v 0.1007337843 0.744161564 0.27975673140000001
v -0.0606058056 0.50306124389999995 0.22378846790000001
v 0.046759844770000003 0.42440234249999997 0.1239361048
v -0.052855366309999999 0.50393450870000001 -0.22378846790000001
v -0.1080979916 0.8590673539 -0.2254705944
v 6.036416812e-17 0.94158782870000002 -0.12448185589999999
v -0.21584530590000001 0.94568007480000005 -2.1184668470000001e-17
v -0.20952300300000001 0.91798025599999999 0.12448185589999999
v -0.27534243060000002 0.82089490210000005 0.2254705944
v -0.23212159830000001 0.71417315280000004 0.27975673140000001
v -0.094484470099999995 0.41396351139999998 0.12448185589999999
v -0.1316624133 0.37626955940000001 2.8829525259999999e-16
v -0.046759844770000003 0.42440234249999997 -0.1239361048
v -0.059062377489999998 0.61994695330000005 -0.27967552569999998
v -0.20952300300000001 0.91798025599999999 -0.12448185589999999
v -0.4208672269 0.87393980189999998 -2.1184668470000001e-17
v -0.40853964780000002 0.84834132009999996 0.12448185589999999
v -0.2157715388 0.58417910979999998 0.27967552569999998
v -0.27287403760000001 0.42694664589999998 0.22378846790000001
v -0.22805221370000001 0.36096539890000001 0.1239361048
v -0.26627002849999998 0.43109621980000001 -0.22378846790000001
v -0.19194677709999999 0.73356155710000004 -0.27988132469999999
v -0.40853964780000002 0.84834132009999996 -0.12448185589999999
v -0.60478510780000005 0.75837653800000004 -2.1184668470000001e-17
v -0.58707040880000005 0.73616300800000001 0.12448185589999999
v -0.60424790750000001 0.62013414730000005 0.2254705944
v -0.28188097880000001 0.28188097880000001 -1.695854427e-16
v -0.22627043960000001 0.36208496169999999 -0.1239361048
v -0.47012828080000002 0.72709098059999999 -0.2254705944
v -0.58707040880000005 0.73616300800000001 -0.12448185589999999
v -0.75837653800000004 0.60478510780000005 -2.1184668470000001e-17
v -0.73616300800000001 0.58707040880000005 0.12448185589999999
v -0.51900245160000003 0.54273399 0.27975673140000001
v -0.44786925550000001 0.43270742919999999 0.27967552569999998
v -0.33197296100000001 0.26473960219999998 0.12448185589999999
v -0.45778495139999997 0.22678545310000001 -0.22294098300000001
v -0.3798866957 0.50117118169999997 -0.27959152929999997
v -0.54273399 0.51900245160000003 -0.27975673140000001
v -0.73616300800000001 0.58707040880000005 -0.12448185589999999
v -0.87393980189999998 0.4208672269 -2.1184668470000001e-17
v -0.84834132009999996 0.40853964780000002 0.12448185589999999
v -0.59126097339999995 0.19553273539999999 0.27967552569999998
v -0.46273225559999998 0.21651227000000001 0.22294098300000001
v -0.40335664529999998 0.1400258835 0.1239361048
v -0.35696132749999998 0.1719035152 1.3950620680000001e-17
v -0.36096539890000001 0.22805221370000001 -0.1239361048
v -0.71417315280000004 0.23212159830000001 -0.27975673140000001
v -0.73904389820000005 0.45110532129999997 -0.2254705944
v -0.84834132009999996 0.40853964780000002 -0.12448185589999999
v -0.94568007480000005 0.21584530590000001 -2.1184668470000001e-17
v -0.91798025599999999 0.20952300300000001 0.12448185589999999
v -0.81347467579999999 0.29654821920000002 0.2254705944
v -0.73356155710000004 0.19194677709999999 0.27988132469999999
v -0.42416673399999999 0.048850927779999997 -0.1239361048
v -0.58417910979999998 0.2157715388 -0.27967552569999998
v -0.91798025599999999 0.20952300300000001 -0.12448185589999999
v -0.96999999999999997 4.2951561070000002e-17 -2.1184668470000001e-17
v -0.94158782870000002 3.9472073609999998e-17 0.12448185589999999
v -0.86158280789999997 -0.085772720679999997 0.2254705944
v -0.4967718377 -0.1192327333 0.22294098300000001
v -0.42416673399999999 -0.048850927779999997 0.1239361048
v -0.39613333909999998 0.044633507910000002 1.856154119e-16
v -0.61994695330000005 -0.059062377489999998 -0.27967552569999998
v -0.744161564 -0.1007337843 -0.27975673140000001
v -0.86158280789999997 0.085772720679999997 -0.2254705944
v -0.94158782870000002 3.9472073609999998e-17 -0.12448185589999999
v -0.94568007480000005 -0.21584530590000001 -2.1184668470000001e-17
v -0.91798025599999999 -0.20952300300000001 0.12448185589999999
v -0.60948249919999997 -0.15497592730000001 0.27959152929999997
v -0.40335664529999998 -0.1400258835 -0.1239361048
v -0.50393450870000001 -0.052855366309999999 -0.22378846790000001
v -0.81347467579999999 -0.29654821920000002 -0.2254705944
v -0.91798025599999999 -0.20952300300000001 -0.12448185589999999
v -0.87393980189999998 -0.4208672269 -2.1184668470000001e-17
v -0.84834132009999996 -0.40853964780000002 0.12448185589999999
v -0.77661596799999999 -0.37399853869999999 0.22430855350000001
v -0.71417315280000004 -0.23212159830000001 0.27975673140000001
v -0.3825598093 -0.18423109430000001 0.12448185589999999
v -0.37626955940000001 -0.1316624133 1.102305378e-16
v -0.84834132009999996 -0.40853964780000002 -0.12448185589999999
v -0.75837653800000004 -0.60478510780000005 -2.1184668470000001e-17
v -0.73616300800000001 -0.58707040880000005 0.12448185589999999
v -0.3798866957 -0.50117118169999997 0.27959152929999997
v -0.30116885119999998 -0.30265682620000001 0.1239361048
v -0.28188097880000001 -0.28188097880000001 1.017512656e-16
v -0.33197296100000001 -0.26473960219999998 -0.12448185589999999
v -0.43109621980000001 -0.26627002849999998 -0.22378846790000001
v -0.53292669950000005 -0.32219826550000003 -0.27967552569999998
v -0.62675965089999996 -0.41363760550000001 -0.27975673140000001
v -0.67392208009999999 -0.53743492500000001 -0.22430855350000001
v -0.73616300800000001 -0.58707040880000005 -0.12448185589999999
v -0.60478510780000005 -0.75837653800000004 -2.1184668470000001e-17
v -0.58707040880000005 -0.73616300800000001 0.12448185589999999
v -0.62013414730000005 -0.60424790750000001 0.2254705944
v -0.54273399 -0.51900245160000003 0.27975673140000001
v -0.35552201639999997 -0.36103708210000002 0.22378846790000001
v -0.22805221370000001 -0.36096539890000001 -0.1239361048
v -0.34035377690000002 -0.52151883560000001 -0.27967552569999998
v -0.38522030219999998 -0.64461542599999999 -0.27975673140000001
v -0.58707040880000005 -0.73616300800000001 -0.12448185589999999
v -0.4208672269 -0.87393980189999998 -2.1184668470000001e-17
v -0.40853964780000002 -0.84834132009999996 0.12448185589999999
v -0.19194677709999999 -0.73356155710000004 0.27988132469999999
v -0.1081162417 -0.49930910439999998 0.22294098300000001
v -0.1400258835 -0.40335664529999998 0.1239361048
v -0.1719035152 -0.35696132749999998 1.3950620680000001e-17
v -0.22678545310000001 -0.45778495139999997 -0.22294098300000001
v -0.45110532129999997 -0.73904389820000005 -0.2254705944
v -0.40853964780000002 -0.84834132009999996 -0.12448185589999999
v -0.21584530590000001 -0.94568007480000005 -2.1184668470000001e-17
v -0.20952300300000001 -0.91798025599999999 0.12448185589999999
v -0.29654821920000002 -0.81347467579999999 0.2254705944
v -0.059062377489999998 -0.61994695330000005 0.27967552569999998
v -0.044633507910000002 -0.39613333909999998 6.8521577299999998e-17
v -0.094484470099999995 -0.41396351139999998 -0.12448185589999999
v -0.080369614670000006 -0.61754620419999995 -0.27967552569999998
v -0.067383348209999999 -0.74791925569999995 -0.27975673140000001
v -0.19180830400000001 -0.84036708829999995 -0.22430855350000001
v -0.20952300300000001 -0.91798025599999999 -0.12448185589999999
v -1.7547756720000001e-16 -0.96999999999999997 -2.1184668470000001e-17
v -1.70258336e-16 -0.94158782870000002 0.12448185589999999
v 0.085772720679999997 -0.86158280789999997 0.2254705944
v -7.529093092e-17 -0.42460935440000003 0.12448185589999999
v 0.052855366309999999 -0.50393450870000001 -0.22378846790000001
v -1.70258336e-16 -0.94158782870000002 -0.12448185589999999
v 0.21584530590000001 -0.94568007480000005 -2.1184668470000001e-17
v 0.20952300300000001 -0.91798025599999999 0.12448185589999999
v 0.23212159830000001 -0.71417315280000004 0.27975673140000001
v 0.17102794939999999 -0.4769623878 0.22378846790000001
v 0.14201211080000001 -0.40266163430000002 0.1239361048
v 0.088162167210000003 -0.38626369249999998 1.3950620680000001e-17
v 0.046759844770000003 -0.42440234249999997 -0.1239361048
v 0.19553273539999999 -0.59126097339999995 -0.27967552569999998
v 0.26379970429999999 -0.70308850410000001 -0.27975673140000001
v 0.1080979916 -0.8590673539 -0.2254705944
v 0.20952300300000001 -0.91798025599999999 -0.12448185589999999
v 0.4208672269 -0.87393980189999998 -2.1184668470000001e-17
v 0.40853964780000002 -0.84834132009999996 0.12448185589999999
v 0.37399853869999999 -0.77661596799999999 0.22430855350000001
v 0.28671297220000003 -0.55971611239999997 0.27959152929999997
v 0.22627043960000001 -0.36208496169999999 -0.1239361048
v 0.47012828080000002 -0.72709098059999999 -0.2254705944
v 0.40853964780000002 -0.84834132009999996 -0.12448185589999999
v 0.60478510780000005 -0.75837653800000004 -2.1184668470000001e-17
v 0.58707040880000005 -0.73616300800000001 0.12448185589999999
v 0.30265682620000001 -0.30116885119999998 0.1239361048
v 0.21208921550000001 -0.33753805279999999 -1.7806471489999999e-16
v 0.54273399 -0.51900245160000003 -0.27975673140000001
v 0.58707040880000005 -0.73616300800000001 -0.12448185589999999
v 0.75837653800000004 -0.60478510780000005 -2.1184668470000001e-17
v 0.73616300800000001 -0.58707040880000005 0.12448185589999999
v 0.60424790750000001 -0.62013414730000005 0.2254705944
v 0.51900245160000003 -0.54273399 0.27975673140000001
v 0.53292669950000005 -0.32219826550000003 0.27967552569999998
v 0.40295207929999999 -0.31405146909999998 0.22294098300000001
v 0.30975943099999997 -0.24702490320000001 1.3950620680000001e-17
v 0.36096539890000001 -0.22805221370000001 -0.1239361048
v 0.31405146909999998 -0.40295207929999999 -0.22294098300000001
v 0.43270742919999999 -0.44786925550000001 -0.27967552569999998
v 0.73904389820000005 -0.45110532129999997 -0.2254705944
v 0.73616300800000001 -0.58707040880000005 -0.12448185589999999
v 0.87393980189999998 -0.4208672269 -2.1184668470000001e-17
v 0.84834132009999996 -0.40853964780000002 0.12448185589999999
v 0.70308850410000001 -0.26379970429999999 0.27975673140000001
v 0.37626955940000001 -0.1316624133 -1.4414762629999999e-16
v 0.4769623878 -0.17102794939999999 -0.22378846790000001
v 0.58417910979999998 -0.2157715388 -0.27967552569999998
v 0.71417315280000004 -0.23212159830000001 -0.27975673140000001
v 0.84834132009999996 -0.40853964780000002 -0.12448185589999999
v 0.94568007480000005 -0.21584530590000001 -2.1184668470000001e-17
v 0.91798025599999999 -0.20952300300000001 0.12448185589999999
v 0.81347467579999999 -0.29654821920000002 0.2254705944
v 0.61994695330000005 -0.059062377489999998 0.27967552569999998
v 0.40335664529999998 -0.1400258835 0.1239361048
v 0.42416673399999999 -0.048850927779999997 -0.1239361048
v 0.91798025599999999 -0.20952300300000001 -0.12448185589999999
f 1 9 10
f 1 10 2
f 2 10 11
f 21 12 234
f 234 12 13
f 234 13 3
f 3 13 14
f 4 15 236
f 236 15 23
f 6 16 7
f 7 16 17
f 7 17 8
f 8 17 9
f 8 9 1
f 9 18 19
f 9 19 10
f 10 19 20
f 10 20 11
f 11 20 21
f 13 22 14
f 14 22 30
f 14 30 4
f 4 30 31
f 4 31 15
f 15 31 23
f 23 24 5
f 5 24 25
f 5 25 6
f 6 25 16
f 16 26 17
f 17 26 18
f 17 18 9
f 18 27 28
f 18 28 19
f 19 28 36
f 19 36 20
f 20 36 45
f 20 45 21
f 21 45 37
f 21 37 12
f 12 37 29
f 12 29 13
f 13 29 22
f 31 40 23
f 23 40 24
f 25 32 16
f 16 32 33
f 16 33 26
f 26 33 27
f 26 27 18
f 27 34 35
f 27 35 28
f 28 35 36
f 29 48 22
f 22 48 38
f 22 38 30
f 30 38 39
f 30 39 31
f 31 39 40
f 32 41 33
f 33 41 34
f 33 34 27
f 34 42 43
f 34 43 35
f 35 43 44
f 35 44 36
f 36 44 45
f 45 46 37
f 37 46 47
f 37 47 29
f 29 47 48
f 38 56 39
f 39 56 57
f 39 57 40
f 40 57 49
f 40 49 24
f 24 49 50
f 24 50 25
f 25 50 51
f 25 51 32
f 32 51 52
f 32 52 41
f 41 52 42
f 41 42 34
f 42 53 54
f 42 54 43
f 43 54 44
f 44 62 45
f 45 62 46
f 47 64 48
f 48 64 55
f 48 55 38
f 38 55 56
f 51 58 52
f 52 58 53
f 52 53 42
f 53 59 60
f 53 60 54
f 54 60 61
f 54 61 44
f 44 61 62
f 46 63 47
f 47 63 64
f 55 74 56
f 56 74 65
f 56 65 57
f 57 65 75
f 57 75 49
f 49 75 83
f 49 83 50
f 50 83 66
f 50 66 51
f 51 66 67
f 51 67 58
f 58 67 59
f 58 59 53
f 59 68 69
f 59 69 60
f 60 69 70
f 60 70 61
f 61 70 71
f 61 71 62
f 62 71 79
f 62 79 46
f 46 79 63
f 63 72 64
f 64 72 73
f 64 73 55
f 55 73 74
f 66 76 67
f 67 76 68
f 67 68 59
f 68 77 78
f 68 78 69
f 69 78 70
f 79 80 63
f 63 80 81
f 63 81 72
f 72 81 73
f 73 89 74
f 74 89 82
f 74 82 65
f 65 82 98
f 65 98 75
f 75 98 83
f 83 90 66
f 66 90 84
f 66 84 76
f 76 84 77
f 76 77 68
f 77 85 86
f 77 86 78
f 78 86 87
f 78 87 70
f 70 87 94
f 70 94 71
f 71 94 95
f 71 95 79
f 79 95 80
f 81 88 73
f 73 88 89
f 98 99 83
f 83 99 90
f 90 91 84
f 84 91 85
f 84 85 77
f 85 92 93
f 85 93 86
f 86 93 87
f 95 104 80
f 80 104 96
f 80 96 81
f 81 96 88
f 88 107 89
f 89 107 97
f 89 97 82
f 82 97 98
f 99 109 90
f 90 109 100
f 90 100 91
f 91 100 92
f 91 92 85
f 92 101 102
f 92 102 93
f 93 102 113
f 93 113 87
f 87 113 114
f 87 114 94
f 94 114 103
f 94 103 95
f 95 103 104
f 104 105 96
f 96 105 106
f 96 106 88
f 88 106 107
f 97 116 98
f 98 116 108
f 98 108 99
f 99 108 109
f 109 110 100
f 100 110 101
f 100 101 92
f 101 111 112
f 101 112 102
f 102 112 113
f 105 123 106
f 106 123 115
f 106 115 107
f 107 115 97
f 108 126 109
f 109 126 117
f 109 117 110
f 110 117 111
f 110 111 101
f 111 118 119
f 111 119 112
f 112 119 120
f 112 120 113
f 113 120 114
f 114 130 103
f 103 130 121
f 103 121 104
f 104 121 122
f 104 122 105
f 105 122 123
f 115 132 97
f 97 132 124
f 97 124 116
f 116 124 125
f 116 125 108
f 108 125 126
f 126 127 117
f 117 127 118
f 117 118 111
f 118 128 129
f 118 129 119
f 119 129 120
f 120 138 114
f 114 138 130
f 122 140 123
f 123 140 131
f 123 131 115
f 115 131 132
f 125 133 126
f 126 133 134
f 126 134 127
f 127 134 128
f 127 128 118
f 128 135 136
f 128 136 129
f 129 136 137
f 129 137 120
f 120 137 138
f 121 139 122
f 122 139 140
f 131 148 132
f 132 148 149
f 132 149 124
f 124 149 150
f 124 150 125
f 125 150 133
f 133 141 134
f 134 141 135
f 134 135 128
f 135 142 143
f 135 143 136
f 136 143 155
f 136 155 137
f 137 155 156
f 137 156 138
f 138 156 144
f 138 144 130
f 130 144 157
f 130 157 121
f 121 157 145
f 121 145 139
f 139 145 146
f 139 146 140
f 140 146 147
f 140 147 131
f 131 147 148
f 150 151 133
f 133 151 152
f 133 152 141
f 141 152 142
f 141 142 135
f 142 153 154
f 142 154 143
f 143 154 155
f 146 158 147
f 147 158 168
f 147 168 148
f 148 168 159
f 148 159 149
f 149 159 160
f 149 160 150
f 150 160 169
f 150 169 151
f 151 169 161
f 151 161 152
f 152 161 153
f 152 153 142
f 153 162 163
f 153 163 154
f 154 163 173
f 154 173 155
f 155 173 164
f 155 164 156
f 156 164 144
f 144 165 157
f 157 165 166
f 157 166 145
f 145 166 167
f 145 167 146
f 146 167 158
f 169 170 161
f 161 170 162
f 161 162 153
f 162 171 172
f 162 172 163
f 163 172 173
f 164 174 144
f 144 174 165
f 166 175 167
f 167 175 176
f 167 176 158
f 158 176 168
f 168 177 159
f 159 177 178
f 159 178 160
f 160 178 179
f 160 179 169
f 169 179 180
f 169 180 170
f 170 180 171
f 170 171 162
f 171 181 182
f 171 182 172
f 172 182 183
f 172 183 173
f 173 183 164
f 165 184 166
f 166 184 175
f 175 193 176
f 176 193 185
f 176 185 168
f 168 185 177
f 178 196 179
f 179 196 186
f 179 186 180
f 180 186 181
f 180 181 171
f 181 187 188
f 181 188 182
f 182 188 183
f 183 189 164
f 164 189 201
f 164 201 174
f 174 201 190
f 174 190 165
f 165 190 191
f 165 191 184
f 184 191 192
f 184 192 175
f 175 192 193
f 185 194 177
f 177 194 195
f 177 195 178
f 178 195 196
f 196 197 186
f 186 197 187
f 186 187 181
f 187 198 199
f 187 199 188
f 188 199 200
f 188 200 183
f 183 200 189
f 191 208 192
f 192 208 202
f 192 202 193
f 193 202 219
f 193 219 185
f 185 219 194
f 195 203 196
f 196 203 204
f 196 204 197
f 197 204 198
f 197 198 187
f 198 205 206
f 198 206 199
f 199 206 213
f 199 213 200
f 200 213 214
f 200 214 189
f 189 214 201
f 201 216 190
f 190 216 207
f 190 207 191
f 191 207 208
f 219 220 194
f 194 220 209
f 194 209 195
f 195 209 203
f 203 210 204
f 204 210 205
f 204 205 198
f 205 211 212
f 205 212 206
f 206 212 213
f 214 215 201
f 201 215 216
f 207 217 208
f 208 217 218
f 208 218 202
f 202 218 219
f 209 221 203
f 203 221 222
f 203 222 210
f 210 222 211
f 210 211 205
f 211 223 224
f 211 224 212
f 212 224 233
f 212 233 213
f 213 233 225
f 213 225 214
f 214 225 215
f 216 235 207
f 207 235 226
f 207 226 217
f 217 226 218
f 218 227 219
f 219 227 228
f 219 228 220
f 220 228 229
f 220 229 209
f 209 229 221
f 221 230 222
f 222 230 223
f 222 223 211
f 223 231 232
f 223 232 224
f 224 232 233
f 225 234 215
f 215 234 3
f 215 3 216
f 216 3 235
f 226 236 218
f 218 236 227
f 229 7 221
f 221 7 237
f 221 237 230
f 230 237 231
f 230 231 223
f 231 1 2
f 231 2 232
f 232 2 11
f 232 11 233
f 233 11 21
f 233 21 225
f 225 21 234
f 3 14 235
f 235 14 4
f 235 4 226
f 226 4 236
f 236 23 227
f 227 23 5
f 227 5 228
f 228 5 6
f 228 6 229
f 229 6 7
f 7 8 237
f 237 8 1
f 237 1 231
