194 388
v 0.96999999999999997 -7.5839178440000002e-17 -2.1184668470000001e-17
v 0.94128898360000002 0.1005360723 0.12606710369999999
v 0.50393450870000001 -0.052855366309999999 0.22378846790000001
v 0.39613333909999998 0.044633507910000002 5.984795992e-17
v 0.63106641460000001 -0.089029262730000003 -0.27940668270000002
v 0.744161564 0.1007337843 -0.27975673140000001
v 0.86158280789999997 -0.085772720679999997 -0.2254705944
v 0.94568007480000005 0.21584530590000001 -2.1184668470000001e-17
v 0.86158280789999997 0.085772720679999997 0.2254705944
v 0.5299428437 0.3540220496 0.27940668270000002
v 0.4769623878 0.17102794939999999 0.22378846790000001
v 0.42416673399999999 0.048850927779999997 0.1239361048
v 0.43079321539999998 -0.0015916265779999999 -0.1228259558
v 0.81347467579999999 0.29654821920000002 -0.2254705944
v 0.91798025599999999 0.20952300300000001 -0.12448185589999999
v 0.87393980189999998 0.4208672269 -2.1184668470000001e-17
v 0.80445110289999999 0.49898985499999998 0.12606710369999999
v 0.77661596799999999 0.37399853869999999 0.22430855350000001
v 0.74419871100000001 0.14534236079999999 0.27988132469999999
v 0.36096539890000001 0.22805221370000001 0.1239361048
v 0.49930910439999998 0.1081162417 -0.22294098300000001
v 0.50117118169999997 0.3798866957 -0.27959152929999997
v 0.57763354030000003 0.49121850169999998 -0.27988132469999999
v 0.75837653800000004 0.60478510780000005 -2.1184668470000001e-17
v 0.35552201639999997 0.36103708210000002 0.22378846790000001
v 0.33753805279999999 0.21208921550000001 -4.6635996749999996e-16
v 0.33780006109999999 0.26735079270000001 -0.1228259558
v 0.60424790750000001 0.62013414730000005 -0.2254705944
v 0.79861257730000001 0.50828181539999995 -0.12606710369999999
v 0.60478510780000005 0.75837653800000004 -2.1184668470000001e-17
v 0.58707040880000005 0.73616300800000001 0.12448185589999999
v 0.62013414730000005 0.60424790750000001 0.2254705944
v 0.21208921550000001 0.33753805279999999 -5.0875632809999999e-17
v 0.36103708210000002 0.35552201639999997 -0.22378846790000001
v 0.58707040880000005 0.73616300800000001 -0.12448185589999999
v 0.4208672269 0.87393980189999998 -2.1184668470000001e-17
v 0.29654821920000002 0.81347467579999999 0.2254705944
v 0.49121850169999998 0.57763354030000003 0.27988132469999999
v 0.1248160599 0.61636629210000005 0.27959152929999997
v 0.1636661495 0.47953839300000001 0.22378846790000001
v 0.22627043960000001 0.36208496169999999 0.1239361048
v 0.23212159830000001 0.71417315280000004 -0.27975673140000001
v 0.27534243060000002 0.82089490210000005 -0.2254705944
v 0.30747192680000002 0.89531752279999999 -0.12606710369999999
v 0.21584530590000001 0.94568007480000005 -2.1184668470000001e-17
v 0.31783011249999998 0.89169303690000001 0.12606710369999999
v 0.044633507910000002 0.39613333909999998 1.8995222059999999e-16
v 0.14201211080000001 0.40266163430000002 -0.1239361048
v 0.17102794939999999 0.4769623878 -0.22378846790000001
v 6.2103911849999999e-17 0.96999999999999997 -2.1184668470000001e-17
v -0.1005360723 0.94128898360000002 0.12606710369999999
v 5.5489514510000002e-17 0.86197869390000004 0.22430855350000001
v 0.1007337843 0.744161564 0.27975673140000001
v -0.0606058056 0.50306124389999995 0.22378846790000001
v 0.046759844770000003 0.42440234249999997 0.1239361048
v -0.052855366309999999 0.50393450870000001 -0.22378846790000001
v -0.1080979916 0.8590673539 -0.2254705944
v 6.036416812e-17 0.94158782870000002 -0.12448185589999999
v -0.21584530590000001 0.94568007480000005 -2.1184668470000001e-17
v -0.27534243060000002 0.82089490210000005 0.2254705944
v -0.23212159830000001 0.71417315280000004 0.27975673140000001
v -0.1316624133 0.37626955940000001 2.8829525259999999e-16
v -0.046759844770000003 0.42440234249999997 -0.1239361048
v 0.089029262730000003 0.63106641460000001 -0.27940668270000002
v -0.31783011249999998 0.89169303690000001 -0.12606710369999999
v -0.4208672269 0.87393980189999998 -2.1184668470000001e-17
v -0.40853964780000002 0.84834132009999996 0.12448185589999999
v -0.2157715388 0.58417910979999998 0.27967552569999998
v -0.27287403760000001 0.42694664589999998 0.22378846790000001
v -0.18834817710000001 0.38744069469999998 0.1228259558
v -0.26627002849999998 0.43109621980000001 -0.22378846790000001
v -0.19194677709999999 0.73356155710000004 -0.27988132469999999
v -0.60478510780000005 0.75837653800000004 -2.1184668470000001e-17
v -0.60424790750000001 0.62013414730000005 0.2254705944
v -0.28188097880000001 0.28188097880000001 -1.695854427e-16
v -0.22627043960000001 0.36208496169999999 -0.1239361048
v -0.47012828080000002 0.72709098059999999 -0.2254705944
v -0.58707040880000005 0.73616300800000001 -0.12448185589999999
v -0.75837653800000004 0.60478510780000005 -2.1184668470000001e-17
v -0.66548634829999997 0.67324614559999996 0.12606710369999999
v -0.51900245160000003 0.54273399 0.27975673140000001
v -0.3888218564 0.18548016510000001 0.1228259558
v -0.45778495139999997 0.22678545310000001 -0.22294098300000001
v -0.3798866957 0.50117118169999997 -0.27959152929999997
v -0.54273399 0.51900245160000003 -0.27975673140000001
v -0.87393980189999998 0.4208672269 -2.1184668470000001e-17
v -0.54889642780000003 0.32385759330000002 0.27940668270000002
v -0.46273225559999998 0.21651227000000001 0.22294098300000001
v -0.39260283969999998 0.089609036180000004 3.842943677e-17
v -0.36096539890000001 0.22805221370000001 -0.1239361048
v -0.71417315280000004 0.23212159830000001 -0.27975673140000001
v -0.73904389820000005 0.45110532129999997 -0.2254705944
v -0.80445110289999999 0.49898985499999998 -0.12606710369999999
v -0.94568007480000005 0.21584530590000001 -2.1184668470000001e-17
v -0.89169303690000001 0.31783011249999998 0.12606710369999999
v -0.81347467579999999 0.29654821920000002 0.2254705944
v -0.73356155710000004 0.19194677709999999 0.27988132469999999
v -0.42416673399999999 0.048850927779999997 -0.1239361048
v -0.58417910979999998 0.2157715388 -0.27967552569999998
v -0.91798025599999999 0.20952300300000001 -0.12448185589999999
v -0.96999999999999997 4.2951561070000002e-17 -2.1184668470000001e-17
v -0.94158782870000002 3.9472073609999998e-17 0.12448185589999999
v -0.86158280789999997 -0.085772720679999997 0.2254705944
v -0.4967718377 -0.1192327333 0.22294098300000001
v -0.42416673399999999 -0.048850927779999997 0.1239361048
v -0.60719954249999997 -0.19359686149999999 -0.27940668270000002
v -0.744161564 -0.1007337843 -0.27975673140000001
v -0.86158280789999997 0.085772720679999997 -0.2254705944
v -0.94568007480000005 -0.21584530590000001 -2.1184668470000001e-17
v -0.89531752279999999 -0.30747192680000002 0.12606710369999999
v -0.60948249919999997 -0.15497592730000001 0.27959152929999997
v -0.40335664529999998 -0.1400258835 -0.1239361048
v -0.50393450870000001 -0.052855366309999999 -0.22378846790000001
v -0.81347467579999999 -0.29654821920000002 -0.2254705944
v -0.94006028419999998 -0.1114410807 -0.12606710369999999
v -0.87393980189999998 -0.4208672269 -2.1184668470000001e-17
v -0.77661596799999999 -0.37399853869999999 0.22430855350000001
v -0.71417315280000004 -0.23212159830000001 0.27975673140000001
v -0.33581533530000002 -0.2698395603 0.1228259558
v -0.37626955940000001 -0.1316624133 1.102305378e-16
v -0.75837653800000004 -0.60478510780000005 -2.1184668470000001e-17
v -0.73616300800000001 -0.58707040880000005 0.12448185589999999
v -0.3798866957 -0.50117118169999997 0.27959152929999997
v -0.43109621980000001 -0.26627002849999998 -0.22378846790000001
v -0.62675965089999996 -0.41363760550000001 -0.27975673140000001
v -0.67392208009999999 -0.53743492500000001 -0.22430855350000001
v -0.79861257730000001 -0.50828181539999995 -0.12606710369999999
v -0.60478510780000005 -0.75837653800000004 -2.1184668470000001e-17
v -0.62013414730000005 -0.60424790750000001 0.2254705944
v -0.54273399 -0.51900245160000003 0.27975673140000001
v -0.35552201639999997 -0.36103708210000002 0.22378846790000001
v -0.2698395603 -0.33581533530000002 -0.1228259558
v -0.22722260120000001 -0.59543338729999995 -0.27940668270000002
v -0.38522030219999998 -0.64461542599999999 -0.27975673140000001
v -0.49898985499999998 -0.80445110289999999 -0.12606710369999999
v -0.4208672269 -0.87393980189999998 -2.1184668470000001e-17
v -0.50828181539999995 -0.79861257730000001 0.12606710369999999
v -0.19194677709999999 -0.73356155710000004 0.27988132469999999
v -0.1081162417 -0.49930910439999998 0.22294098300000001
v -0.1400258835 -0.40335664529999998 0.1239361048
v -0.25107893990000002 -0.31484303229999999 1.317580689e-16
v -0.22678545310000001 -0.45778495139999997 -0.22294098300000001
v -0.45110532129999997 -0.73904389820000005 -0.2254705944
v -0.21584530590000001 -0.94568007480000005 -2.1184668470000001e-17
v -0.1114410807 -0.94006028419999998 0.12606710369999999
v -0.29654821920000002 -0.81347467579999999 0.2254705944
v -0.059062377489999998 -0.61994695330000005 0.27967552569999998
v -0.044633507910000002 -0.39613333909999998 6.8521577299999998e-17
v -0.0015916265779999999 -0.43079321539999998 -0.1228259558
v -0.067383348209999999 -0.74791925569999995 -0.27975673140000001
v -0.19180830400000001 -0.84036708829999995 -0.22430855350000001
v -0.20952300300000001 -0.91798025599999999 -0.12448185589999999
v -1.7547756720000001e-16 -0.96999999999999997 -2.1184668470000001e-17
v 0.085772720679999997 -0.86158280789999997 0.2254705944
v 0.0974122298 -0.41963815980000002 0.1228259558
v 0.052855366309999999 -0.50393450870000001 -0.22378846790000001
v 0.21584530590000001 -0.94568007480000005 -2.1184668470000001e-17
v 0.23212159830000001 -0.71417315280000004 0.27975673140000001
v 0.17102794939999999 -0.4769623878 0.22378846790000001
v 0.17472470109999999 -0.36281958040000001 -7.6858873530000004e-17
v 0.26379970429999999 -0.70308850410000001 -0.27975673140000001
v 0.1080979916 -0.8590673539 -0.2254705944
v 0.1114410807 -0.94006028419999998 -0.12606710369999999
v 0.4208672269 -0.87393980189999998 -2.1184668470000001e-17
v 0.30747192680000002 -0.89531752279999999 0.12606710369999999
v 0.37399853869999999 -0.77661596799999999 0.22430855350000001
v 0.28671297220000003 -0.55971611239999997 0.27959152929999997
v 0.22627043960000001 -0.36208496169999999 -0.1239361048
v 0.47012828080000002 -0.72709098059999999 -0.2254705944
v 0.50828181539999995 -0.79861257730000001 -0.12606710369999999
v 0.60478510780000005 -0.75837653800000004 -2.1184668470000001e-17
v 0.66548634829999997 -0.67324614559999996 0.12606710369999999
v 0.30265682620000001 -0.30116885119999998 0.1239361048
v 0.54273399 -0.51900245160000003 -0.27975673140000001
v 0.75837653800000004 -0.60478510780000005 -2.1184668470000001e-17
v 0.60424790750000001 -0.62013414730000005 0.2254705944
v 0.51900245160000003 -0.54273399 0.27975673140000001
v 0.60719954249999997 -0.19359686149999999 0.27940668270000002
v 0.40295207929999999 -0.31405146909999998 0.22294098300000001
v 0.36281958040000001 -0.17472470109999999 -4.9409275840000002e-17
v 0.36096539890000001 -0.22805221370000001 -0.1239361048
v 0.31405146909999998 -0.40295207929999999 -0.22294098300000001
v 0.32385759330000002 -0.54889642780000003 -0.27940668270000002
v 0.73904389820000005 -0.45110532129999997 -0.2254705944
v 0.80445110289999999 -0.49898985499999998 -0.12606710369999999
v 0.87393980189999998 -0.4208672269 -2.1184668470000001e-17
v 0.70308850410000001 -0.26379970429999999 0.27975673140000001
v 0.4769623878 -0.17102794939999999 -0.22378846790000001
v 0.71417315280000004 -0.23212159830000001 -0.27975673140000001
v 0.94568007480000005 -0.21584530590000001 -2.1184668470000001e-17
v 0.89169303690000001 -0.31783011249999998 0.12606710369999999
v 0.81347467579999999 -0.29654821920000002 0.2254705944
v 0.40335664529999998 -0.1400258835 0.1239361048
v 0.94128898360000002 -0.1005360723 -0.12606710369999999
f 1 8 2
f 19 10 178
f 178 10 11
f 178 11 3
f 3 11 12
f 6 14 7
f 7 14 15
f 7 15 194
f 194 15 8
f 194 8 1
f 8 16 17
f 8 17 2
f 2 17 18
f 2 18 9
f 9 18 19
f 11 20 12
f 12 20 26
f 12 26 4
f 4 26 27
f 4 27 13
f 13 27 21
f 21 22 5
f 5 22 23
f 5 23 6
f 6 23 14
f 14 29 15
f 15 29 16
f 15 16 8
f 16 24 17
f 17 32 18
f 18 32 38
f 18 38 19
f 19 38 10
f 10 25 11
f 11 25 20
f 27 34 21
f 21 34 22
f 23 28 14
f 14 28 29
f 29 24 16
f 24 30 31
f 24 31 17
f 17 31 32
f 25 41 20
f 20 41 33
f 20 33 26
f 26 33 27
f 28 35 29
f 29 35 30
f 29 30 24
f 30 36 46
f 30 46 31
f 31 46 37
f 31 37 32
f 32 37 38
f 38 39 10
f 10 39 40
f 10 40 25
f 25 40 41
f 33 48 27
f 27 48 49
f 27 49 34
f 34 49 64
f 34 64 22
f 22 64 42
f 22 42 23
f 23 42 43
f 23 43 28
f 28 43 44
f 28 44 35
f 35 44 36
f 35 36 30
f 36 45 46
f 37 53 38
f 38 53 39
f 40 55 41
f 41 55 47
f 41 47 33
f 33 47 48
f 44 45 36
f 45 50 51
f 45 51 46
f 46 51 52
f 46 52 37
f 37 52 53
f 39 54 40
f 40 54 55
f 47 63 48
f 48 63 56
f 48 56 49
f 49 56 64
f 64 72 42
f 42 72 57
f 42 57 43
f 43 57 58
f 43 58 44
f 44 58 50
f 44 50 45
f 50 59 51
f 51 60 52
f 52 60 61
f 52 61 53
f 53 61 68
f 53 68 39
f 39 68 54
f 54 70 55
f 55 70 62
f 55 62 47
f 47 62 63
f 57 65 58
f 58 65 59
f 58 59 50
f 59 66 67
f 59 67 51
f 51 67 60
f 68 69 54
f 54 69 70
f 62 76 63
f 63 76 71
f 63 71 56
f 56 71 84
f 56 84 64
f 64 84 72
f 72 77 57
f 57 77 65
f 65 66 59
f 66 73 80
f 66 80 67
f 67 80 74
f 67 74 60
f 60 74 81
f 60 81 61
f 61 81 87
f 61 87 68
f 68 87 69
f 70 75 62
f 62 75 76
f 84 85 72
f 72 85 77
f 77 78 65
f 65 78 73
f 65 73 66
f 73 79 80
f 87 88 69
f 69 88 82
f 69 82 70
f 70 82 75
f 75 90 76
f 76 90 83
f 76 83 71
f 71 83 84
f 85 92 77
f 77 92 93
f 77 93 78
f 78 93 79
f 78 79 73
f 79 86 95
f 79 95 80
f 80 95 96
f 80 96 74
f 74 96 97
f 74 97 81
f 81 97 87
f 82 89 75
f 75 89 90
f 83 99 84
f 84 99 91
f 84 91 85
f 85 91 92
f 93 86 79
f 86 94 95
f 89 98 90
f 90 98 83
f 91 108 92
f 92 108 100
f 92 100 93
f 93 100 94
f 93 94 86
f 94 101 102
f 94 102 95
f 95 102 103
f 95 103 96
f 96 103 97
f 97 111 87
f 87 111 104
f 87 104 88
f 88 104 105
f 88 105 82
f 82 105 89
f 98 113 83
f 83 113 106
f 83 106 99
f 99 106 107
f 99 107 91
f 91 107 108
f 108 115 100
f 100 115 101
f 100 101 94
f 101 109 110
f 101 110 102
f 102 110 103
f 103 118 97
f 97 118 111
f 105 120 89
f 89 120 112
f 89 112 98
f 98 112 113
f 107 114 108
f 108 114 115
f 115 109 101
f 109 116 110
f 110 117 103
f 103 117 118
f 104 119 105
f 105 119 120
f 112 124 113
f 113 124 106
f 106 125 107
f 107 125 114
f 114 127 115
f 115 127 116
f 115 116 109
f 116 121 122
f 116 122 110
f 110 122 129
f 110 129 117
f 117 129 130
f 117 130 118
f 118 130 123
f 118 123 111
f 111 123 131
f 111 131 104
f 104 131 119
f 119 141 120
f 120 141 132
f 120 132 112
f 112 132 124
f 125 126 114
f 114 126 127
f 127 121 116
f 121 128 137
f 121 137 122
f 122 137 129
f 132 142 124
f 124 142 133
f 124 133 106
f 106 133 134
f 106 134 125
f 125 134 143
f 125 143 126
f 126 143 135
f 126 135 127
f 127 135 128
f 127 128 121
f 128 136 137
f 137 146 129
f 129 146 138
f 129 138 130
f 130 138 123
f 123 139 131
f 131 139 140
f 131 140 119
f 119 140 141
f 135 136 128
f 136 144 145
f 136 145 137
f 137 145 146
f 138 147 123
f 123 147 139
f 140 148 141
f 141 148 149
f 141 149 132
f 132 149 142
f 133 150 134
f 134 150 151
f 134 151 143
f 143 151 152
f 143 152 135
f 135 152 144
f 135 144 136
f 144 153 145
f 145 154 146
f 146 154 138
f 139 155 140
f 140 155 148
f 149 156 142
f 142 156 133
f 150 162 151
f 151 162 163
f 151 163 152
f 152 163 153
f 152 153 144
f 153 157 165
f 153 165 145
f 145 165 154
f 154 158 138
f 138 158 167
f 138 167 147
f 147 167 159
f 147 159 139
f 139 159 155
f 155 160 148
f 148 160 149
f 156 183 133
f 133 183 161
f 133 161 150
f 150 161 162
f 163 157 153
f 157 164 165
f 165 166 154
f 154 166 158
f 160 168 149
f 149 168 182
f 149 182 156
f 156 182 183
f 161 169 162
f 162 169 170
f 162 170 163
f 163 170 164
f 163 164 157
f 164 171 172
f 164 172 165
f 165 172 176
f 165 176 166
f 166 176 177
f 166 177 158
f 158 177 167
f 167 179 159
f 159 179 173
f 159 173 155
f 155 173 160
f 183 174 161
f 161 174 169
f 170 171 164
f 171 175 172
f 177 178 167
f 167 178 179
f 173 180 160
f 160 180 181
f 160 181 168
f 168 181 182
f 174 184 169
f 169 184 185
f 169 185 170
f 170 185 175
f 170 175 171
f 175 186 191
f 175 191 172
f 172 191 192
f 172 192 176
f 176 192 187
f 176 187 177
f 177 187 178
f 179 193 173
f 173 193 180
f 181 188 182
f 182 188 5
f 182 5 183
f 183 5 189
f 183 189 174
f 174 189 184
f 185 186 175
f 186 190 191
f 178 3 179
f 179 3 193
f 180 13 181
f 181 13 188
f 189 7 184
f 184 7 194
f 184 194 185
f 185 194 190
f 185 190 186
f 190 1 2
f 190 2 191
f 191 2 9
f 191 9 192
f 192 9 19
f 192 19 187
f 187 19 178
f 3 12 193
f 193 12 4
f 193 4 180
f 180 4 13
f 13 21 188
f 188 21 5
f 5 6 189
f 189 6 7
f 194 1 190
