392 784
v 0.96999999999999986 -7.5839178442704353e-17 -2.1184668468051342e-17
v 0.94158782872073621 -7.5839178442704353e-17 0.12448185585668528
v 0.86197869385721682 -7.5839178442704353e-17 0.22430855349117976
v 0.74694016091112847 -7.5839178442704353e-17 0.27970819114286966
v 0.61925702218746304 -7.5839178442704353e-17 0.27970819114286966
v 0.50421848924137458 -7.5839178442704353e-17 0.22430855349117976
v 0.42460935437785519 -7.5839178442704353e-17 0.12448185585668534
v 0.39619718309859153 -7.5839178442704353e-17 1.3950620684950886e-17
v 0.42460935437785519 -7.5839178442704353e-17 -0.12448185585668531
v 0.50421848924137447 -7.5839178442704353e-17 -0.22430855349117981
v 0.61925702218746292 -7.5839178442704353e-17 -0.27970819114286971
v 0.74694016091112814 -7.5839178442704353e-17 -0.27970819114286977
v 0.8619786938572167 -7.5839178442704353e-17 -0.22430855349117984
v 0.94158782872073621 -7.5839178442704353e-17 -0.12448185585668514
v 0.94568007481636873 0.21584530593762485 -2.1184668468051342e-17
v 0.9179802559905238 0.20952300304883634 0.12448185585668528
v 0.84036708834743179 0.19180830400755181 0.22430855349117976
v 0.72821281160184181 0.16620982221542399 0.27970819114286966
v 0.60373095574515656 0.13779765093616028 0.27970819114286966
v 0.49157667899956664 0.11219916914403245 0.22430855349117976
v 0.41396351135647447 0.094484470102747936 0.12448185585668534
v 0.38626369253062953 0.088162167213959419 1.3950620684950886e-17
v 0.41396351135647447 0.094484470102747936 -0.12448185585668531
v 0.49157667899956659 0.11219916914403244 -0.22430855349117981
v 0.60373095574515656 0.13779765093616028 -0.27970819114286971
v 0.72821281160184159 0.16620982221542394 -0.27970819114286977
v 0.84036708834743157 0.19180830400755178 -0.22430855349117984
v 0.9179802559905238 0.20952300304883634 -0.12448185585668514
v 0.87393980186534637 0.42086722694403123 -2.1184668468051342e-17
v 0.84834132007321861 0.40853964783293584 0.12448185585668528
v 0.77661596796054255 0.37399853873043815 0.22430855349117976
v 0.67296983116695008 0.32408518991319085 0.27970819114286966
v 0.55793129822086174 0.26868555226150104 0.27970819114286966
v 0.45428516142726932 0.21877220344425377 0.22430855349117976
v 0.38255980931459332 0.18423109434175602 0.12448185585668534
v 0.35696132752246545 0.17190351523066064 1.3950620684950886e-17
v 0.38255980931459332 0.18423109434175602 -0.12448185585668531
v 0.45428516142726927 0.21877220344425374 -0.22430855349117981
v 0.55793129822086174 0.26868555226150098 -0.27970819114286971
v 0.67296983116694986 0.32408518991319069 -0.27970819114286977
v 0.77661596796054244 0.37399853873043809 -0.22430855349117984
v 0.84834132007321861 0.40853964783293584 -0.12448185585668514
v 0.75837653799398874 0.60478510780297134 -2.1184668468051342e-17
v 0.73616300800258649 0.58707040876168681 0.12448185585668528
v 0.67392208007424392 0.53743492503948598 0.22430855349117976
v 0.58398133332005631 0.46570957292680992 0.27970819114286966
v 0.48415463568556183 0.38610043806329053 0.27970819114286966
v 0.39421388893137421 0.31437508595061447 0.22430855349117976
v 0.33197296100303159 0.26473960222841364 0.12448185585668534
v 0.30975943101162928 0.24702490318712914 1.3950620684950886e-17
v 0.33197296100303159 0.26473960222841364 -0.12448185585668531
v 0.39421388893137421 0.31437508595061442 -0.22430855349117981
v 0.48415463568556177 0.38610043806329047 -0.27970819114286971
v 0.58398133332005608 0.46570957292680976 -0.27970819114286977
v 0.67392208007424381 0.53743492503948587 -0.22430855349117984
v 0.73616300800258649 0.58707040876168681 -0.12448185585668514
v 0.60478510780297146 0.75837653799398863 -2.1184668468051342e-17
v 0.58707040876168703 0.73616300800258649 0.12448185585668528
v 0.53743492503948609 0.67392208007424381 0.22430855349117976
v 0.46570957292681009 0.5839813333200562 0.27970819114286966
v 0.3861004380632907 0.48415463568556177 0.27970819114286966
v 0.31437508595061464 0.3942138889313741 0.22430855349117976
v 0.26473960222841375 0.33197296100303147 0.12448185585668534
v 0.24702490318712925 0.30975943101162917 1.3950620684950886e-17
v 0.26473960222841375 0.33197296100303147 -0.12448185585668531
v 0.31437508595061459 0.3942138889313741 -0.22430855349117981
v 0.38610043806329064 0.48415463568556166 -0.27970819114286971
v 0.46570957292680981 0.58398133332005597 -0.27970819114286977
v 0.53743492503948598 0.6739220800742437 -0.22430855349117984
v 0.58707040876168703 0.73616300800258649 -0.12448185585668514
v 0.42086722694403139 0.87393980186534637 -2.1184668468051342e-17
v 0.408539647832936 0.8483413200732185 0.12448185585668528
v 0.37399853873043826 0.77661596796054244 0.22430855349117976
v 0.32408518991319096 0.67296983116695008 0.27970819114286966
v 0.26868555226150115 0.55793129822086174 0.27970819114286966
v 0.21877220344425385 0.45428516142726927 0.22430855349117976
v 0.18423109434175614 0.38255980931459321 0.12448185585668534
v 0.17190351523066072 0.35696132752246534 1.3950620684950886e-17
v 0.18423109434175614 0.38255980931459321 -0.12448185585668531
v 0.21877220344425385 0.45428516142726916 -0.22430855349117981
v 0.26868555226150109 0.55793129822086163 -0.27970819114286971
v 0.32408518991319085 0.67296983116694986 -0.27970819114286977
v 0.37399853873043815 0.77661596796054244 -0.22430855349117984
v 0.408539647832936 0.8483413200732185 -0.12448185585668514
v 0.21584530593762499 0.94568007481636873 -2.1184668468051342e-17
v 0.20952300304883645 0.91798025599052369 0.12448185585668528
v 0.19180830400755192 0.84036708834743157 0.22430855349117976
v 0.1662098222154241 0.72821281160184181 0.27970819114286966
v 0.13779765093616042 0.60373095574515656 0.27970819114286966
v 0.11219916914403255 0.49157667899956659 0.22430855349117976
v 0.094484470102748033 0.41396351135647436 0.12448185585668534
v 0.088162167213959516 0.38626369253062948 1.3950620684950886e-17
v 0.094484470102748033 0.41396351135647436 -0.12448185585668531
v 0.11219916914403254 0.49157667899956647 -0.22430855349117981
v 0.13779765093616039 0.60373095574515645 -0.27970819114286971
v 0.16620982221542405 0.72821281160184148 -0.27970819114286977
v 0.19180830400755189 0.84036708834743157 -0.22430855349117984
v 0.20952300304883645 0.91798025599052369 -0.12448185585668514
v 6.2103911845886052e-17 0.96999999999999986 -2.1184668468051342e-17
v 6.0364168115187221e-17 0.94158782872073621 0.12448185585668528
v 5.5489514505512289e-17 0.8619786938572167 0.22430855349117976
v 4.844543594796056e-17 0.74694016091112825 0.27970819114286966
v 4.0627098590809347e-17 0.61925702218746292 0.27970819114286966
v 3.3583020033257612e-17 0.50421848924137447 0.22430855349117976
v 2.8708366423582667e-17 0.42460935437785513 0.12448185585668534
v 2.6968622692883837e-17 0.39619718309859148 1.3950620684950886e-17
v 2.8708366423582667e-17 0.42460935437785513 -0.12448185585668531
v 3.3583020033257606e-17 0.50421848924137447 -0.22430855349117981
v 4.0627098590809341e-17 0.61925702218746281 -0.27970819114286971
v 4.8445435947960541e-17 0.74694016091112791 -0.27970819114286977
v 5.5489514505512283e-17 0.8619786938572167 -0.22430855349117984
v 6.0364168115187221e-17 0.94158782872073621 -0.12448185585668514
v -0.21584530593762485 0.94568007481636873 -2.1184668468051342e-17
v -0.20952300304883634 0.91798025599052369 0.12448185585668528
v -0.19180830400755186 0.84036708834743157 0.22430855349117976
v -0.16620982221542402 0.72821281160184181 0.27970819114286966
v -0.13779765093616034 0.60373095574515656 0.27970819114286966
v -0.1121991691440325 0.49157667899956659 0.22430855349117976
v -0.094484470102747992 0.41396351135647436 0.12448185585668534
v -0.088162167213959461 0.38626369253062948 1.3950620684950886e-17
v -0.094484470102747992 0.41396351135647436 -0.12448185585668531
v -0.11219916914403248 0.49157667899956647 -0.22430855349117981
v -0.13779765093616034 0.60373095574515645 -0.27970819114286971
v -0.16620982221542396 0.72821281160184148 -0.27970819114286977
v -0.19180830400755181 0.84036708834743157 -0.22430855349117984
v -0.20952300304883634 0.91798025599052369 -0.12448185585668514
v -0.42086722694403123 0.87393980186534637 -2.1184668468051342e-17
v -0.40853964783293584 0.8483413200732185 0.12448185585668528
v -0.37399853873043815 0.77661596796054244 0.22430855349117976
v -0.32408518991319091 0.67296983116695008 0.27970819114286966
v -0.26868555226150109 0.55793129822086174 0.27970819114286966
v -0.21877220344425383 0.45428516142726927 0.22430855349117976
v -0.18423109434175611 0.38255980931459321 0.12448185585668534
v -0.17190351523066066 0.35696132752246534 1.3950620684950886e-17
v -0.18423109434175611 0.38255980931459321 -0.12448185585668531
v -0.21877220344425377 0.45428516142726916 -0.22430855349117981
v -0.26868555226150104 0.55793129822086163 -0.27970819114286971
v -0.32408518991319074 0.67296983116694986 -0.27970819114286977
v -0.37399853873043809 0.77661596796054244 -0.22430855349117984
v -0.40853964783293584 0.8483413200732185 -0.12448185585668514
v -0.60478510780297134 0.75837653799398863 -2.1184668468051342e-17
v -0.58707040876168692 0.73616300800258649 0.12448185585668528
v -0.53743492503948598 0.67392208007424403 0.22430855349117976
v -0.46570957292680998 0.58398133332005631 0.27970819114286966
v -0.38610043806329064 0.48415463568556183 0.27970819114286966
v -0.31437508595061453 0.39421388893137421 0.22430855349117976
v -0.2647396022284137 0.33197296100303153 0.12448185585668534
v -0.24702490318712919 0.30975943101162923 1.3950620684950886e-17
v -0.2647396022284137 0.33197296100303153 -0.12448185585668531
v -0.31437508595061453 0.3942138889313741 -0.22430855349117981
v -0.38610043806329053 0.48415463568556177 -0.27970819114286971
v -0.46570957292680976 0.58398133332005608 -0.27970819114286977
v -0.53743492503948598 0.67392208007424381 -0.22430855349117984
v -0.58707040876168692 0.73616300800258649 -0.12448185585668514
v -0.75837653799398852 0.60478510780297168 -2.1184668468051342e-17
v -0.73616300800258616 0.58707040876168726 0.12448185585668528
v -0.6739220800742437 0.53743492503948631 0.22430855349117976
v -0.58398133332005608 0.4657095729268102 0.27970819114286966
v -0.48415463568556161 0.38610043806329086 0.27970819114286966
v -0.39421388893137405 0.3143750859506147 0.22430855349117976
v -0.33197296100303142 0.26473960222841381 0.12448185585668534
v -0.30975943101162917 0.2470249031871293 1.3950620684950886e-17
v -0.33197296100303142 0.26473960222841381 -0.12448185585668531
v -0.39421388893137399 0.3143750859506147 -0.22430855349117981
v -0.48415463568556155 0.38610043806329075 -0.27970819114286971
v -0.58398133332005575 0.46570957292681009 -0.27970819114286977
v -0.67392208007424348 0.5374349250394862 -0.22430855349117984
v -0.73616300800258616 0.58707040876168726 -0.12448185585668514
v -0.87393980186534637 0.42086722694403139 -2.1184668468051342e-17
v -0.8483413200732185 0.40853964783293589 0.12448185585668528
v -0.77661596796054255 0.37399853873043826 0.22430855349117976
v -0.67296983116695008 0.32408518991319091 0.27970819114286966
v -0.55793129822086174 0.26868555226150109 0.27970819114286966
v -0.45428516142726932 0.21877220344425383 0.22430855349117976
v -0.38255980931459321 0.18423109434175605 0.12448185585668534
v -0.35696132752246545 0.17190351523066066 1.3950620684950886e-17
v -0.38255980931459321 0.18423109434175605 -0.12448185585668531
v -0.45428516142726927 0.21877220344425377 -0.22430855349117981
v -0.55793129822086163 0.26868555226150109 -0.27970819114286971
v -0.67296983116694986 0.3240851899131908 -0.27970819114286977
v -0.77661596796054244 0.37399853873043815 -0.22430855349117984
v -0.8483413200732185 0.40853964783293589 -0.12448185585668514
v -0.94568007481636884 0.21584530593762455 -2.1184668468051342e-17
v -0.91798025599052402 0.20952300304883606 0.12448185585668528
v -0.84036708834743179 0.19180830400755156 0.22430855349117976
v -0.72821281160184181 0.16620982221542377 0.27970819114286966
v -0.60373095574515656 0.13779765093616009 0.27970819114286966
v -0.49157667899956664 0.1121991691440323 0.22430855349117976
v -0.41396351135647447 0.094484470102747811 0.12448185585668534
v -0.38626369253062964 0.088162167213959294 1.3950620684950886e-17
v -0.41396351135647447 0.094484470102747811 -0.12448185585668531
v -0.49157667899956664 0.11219916914403229 -0.22430855349117981
v -0.60373095574515656 0.13779765093616009 -0.27970819114286971
v -0.72821281160184159 0.16620982221542369 -0.27970819114286977
v -0.84036708834743157 0.19180830400755153 -0.22430855349117984
v -0.91798025599052402 0.20952300304883606 -0.12448185585668514
v -0.96999999999999986 4.2951561074588892e-17 -2.1184668468051342e-17
v -0.94158782872073621 3.947207361319123e-17 0.12448185585668528
v -0.86197869385721682 2.9722766393841348e-17 0.22430855349117976
v -0.74694016091112847 1.5634609278737898e-17 0.27970819114286966
v -0.61925702218746304 -2.0654355645449917e-21 0.27970819114286966
v -0.50421848924137458 -1.4090222550667998e-17 0.22430855349117976
v -0.42460935437785519 -2.3839529770017887e-17 0.12448185585668534
v -0.39619718309859153 -2.7319017231415551e-17 1.3950620684950886e-17
v -0.42460935437785519 -2.3839529770017887e-17 -0.12448185585668531
v -0.50421848924137447 -1.4090222550668007e-17 -0.22430855349117981
v -0.61925702218746292 -2.0654355645534116e-21 -0.27970819114286971
v -0.74694016091112814 1.5634609278737867e-17 -0.27970819114286977
v -0.8619786938572167 2.9722766393841335e-17 -0.22430855349117984
v -0.94158782872073621 3.947207361319123e-17 -0.12448185585668514
v -0.94568007481636884 -0.21584530593762444 -2.1184668468051342e-17
v -0.91798025599052402 -0.20952300304883598 0.12448185585668528
v -0.84036708834743179 -0.19180830400755147 0.22430855349117976
v -0.72821281160184181 -0.16620982221542374 0.27970819114286966
v -0.60373095574515656 -0.13779765093616009 0.27970819114286966
v -0.49157667899956664 -0.11219916914403232 0.22430855349117976
v -0.41396351135647447 -0.094484470102747853 0.12448185585668534
v -0.38626369253062964 -0.08816216721395935 1.3950620684950886e-17
v -0.41396351135647447 -0.094484470102747853 -0.12448185585668531
v -0.49157667899956664 -0.1121991691440323 -0.22430855349117981
v -0.60373095574515656 -0.13779765093616009 -0.27970819114286971
v -0.72821281160184159 -0.16620982221542366 -0.27970819114286977
v -0.84036708834743157 -0.19180830400755147 -0.22430855349117984
v -0.91798025599052402 -0.20952300304883598 -0.12448185585668514
v -0.87393980186534637 -0.42086722694403134 -2.1184668468051342e-17
v -0.84834132007321861 -0.40853964783293589 0.12448185585668528
v -0.77661596796054255 -0.37399853873043815 0.22430855349117976
v -0.67296983116695008 -0.32408518991319091 0.27970819114286966
v -0.55793129822086174 -0.26868555226150109 0.27970819114286966
v -0.45428516142726932 -0.21877220344425385 0.22430855349117976
v -0.38255980931459332 -0.18423109434175614 0.12448185585668534
v -0.35696132752246545 -0.17190351523066075 1.3950620684950886e-17
v -0.38255980931459332 -0.18423109434175614 -0.12448185585668531
v -0.45428516142726927 -0.21877220344425383 -0.22430855349117981
v -0.55793129822086174 -0.26868555226150109 -0.27970819114286971
v -0.67296983116694986 -0.32408518991319074 -0.27970819114286977
v -0.77661596796054244 -0.37399853873043809 -0.22430855349117984
v -0.84834132007321861 -0.40853964783293589 -0.12448185585668514
v -0.75837653799398852 -0.60478510780297179 -2.1184668468051342e-17
v -0.73616300800258627 -0.58707040876168737 0.12448185585668528
v -0.6739220800742437 -0.53743492503948642 0.22430855349117976
v -0.58398133332005608 -0.46570957292681031 0.27970819114286966
v -0.48415463568556166 -0.38610043806329092 0.27970819114286966
v -0.3942138889313741 -0.31437508595061481 0.22430855349117976
v -0.33197296100303147 -0.26473960222841392 0.12448185585668534
v -0.30975943101162917 -0.24702490318712941 1.3950620684950886e-17
v -0.33197296100303147 -0.26473960222841392 -0.12448185585668531
v -0.39421388893137405 -0.31437508595061481 -0.22430855349117981
v -0.48415463568556161 -0.38610043806329086 -0.27970819114286971
v -0.58398133332005586 -0.46570957292681009 -0.27970819114286977
v -0.67392208007424359 -0.5374349250394862 -0.22430855349117984
v -0.73616300800258627 -0.58707040876168737 -0.12448185585668514
v -0.60478510780297146 -0.75837653799398863 -2.1184668468051342e-17
v -0.58707040876168703 -0.73616300800258649 0.12448185585668528
v -0.53743492503948609 -0.67392208007424392 0.22430855349117976
v -0.46570957292681009 -0.58398133332005631 0.27970819114286966
v -0.3861004380632907 -0.48415463568556183 0.27970819114286966
v -0.31437508595061464 -0.39421388893137421 0.22430855349117976
v -0.26473960222841375 -0.33197296100303159 0.12448185585668534
v -0.24702490318712925 -0.30975943101162928 1.3950620684950886e-17
v -0.26473960222841375 -0.33197296100303159 -0.12448185585668531
v -0.31437508595061459 -0.39421388893137421 -0.22430855349117981
v -0.38610043806329064 -0.48415463568556177 -0.27970819114286971
v -0.46570957292680981 -0.58398133332005608 -0.27970819114286977
v -0.53743492503948598 -0.6739220800742437 -0.22430855349117984
v -0.58707040876168703 -0.73616300800258649 -0.12448185585668514
v -0.42086722694403139 -0.87393980186534637 -2.1184668468051342e-17
v -0.40853964783293606 -0.8483413200732185 0.12448185585668528
v -0.37399853873043826 -0.77661596796054277 0.22430855349117976
v -0.32408518991319102 -0.67296983116695008 0.27970819114286966
v -0.26868555226150126 -0.55793129822086174 0.27970819114286966
v -0.21877220344425394 -0.45428516142726938 0.22430855349117976
v -0.18423109434175616 -0.38255980931459332 0.12448185585668534
v -0.1719035152306608 -0.35696132752246551 1.3950620684950886e-17
v -0.18423109434175616 -0.38255980931459332 -0.12448185585668531
v -0.21877220344425391 -0.45428516142726932 -0.22430855349117981
v -0.2686855522615012 -0.55793129822086174 -0.27970819114286971
v -0.32408518991319091 -0.67296983116694986 -0.27970819114286977
v -0.37399853873043826 -0.77661596796054244 -0.22430855349117984
v -0.40853964783293606 -0.8483413200732185 -0.12448185585668514
v -0.2158453059376251 -0.94568007481636873 -2.1184668468051342e-17
v -0.20952300304883656 -0.91798025599052402 0.12448185585668528
v -0.19180830400755206 -0.8403670883474319 0.22430855349117976
v -0.16620982221542419 -0.72821281160184204 0.27970819114286966
v -0.1377976509361605 -0.60373095574515667 0.27970819114286966
v -0.11219916914403263 -0.49157667899956664 0.22430855349117976
v -0.094484470102748089 -0.41396351135647452 0.12448185585668534
v -0.088162167213959572 -0.38626369253062964 1.3950620684950886e-17
v -0.094484470102748089 -0.41396351135647452 -0.12448185585668531
v -0.11219916914403262 -0.49157667899956664 -0.22430855349117981
v -0.13779765093616048 -0.60373095574515656 -0.27970819114286971
v -0.16620982221542413 -0.72821281160184181 -0.27970819114286977
v -0.19180830400755206 -0.84036708834743157 -0.22430855349117984
v -0.20952300304883656 -0.91798025599052402 -0.12448185585668514
v -1.7547756718870044e-16 -0.96999999999999986 -2.1184668468051342e-17
v -1.7025833599660393e-16 -0.94158782872073621 0.12448185585668528
v -1.5563437516757913e-16 -0.86197869385721704 0.22430855349117976
v -1.3450213949492389e-16 -0.74694016091112858 0.27970819114286966
v -1.1104712742347024e-16 -0.61925702218746304 0.27970819114286966
v -8.9914891750815073e-17 -0.50421848924137469 0.22430855349117976
v -7.5290930921790234e-17 -0.4246093543778553 0.12448185585668534
v -7.0071699729693754e-17 -0.39619718309859159 1.3950620684950886e-17
v -7.5290930921790234e-17 -0.4246093543778553 -0.12448185585668531
v -8.9914891750815061e-17 -0.50421848924137458 -0.22430855349117981
v -1.1104712742347024e-16 -0.61925702218746304 -0.27970819114286971
v -1.3450213949492382e-16 -0.74694016091112825 -0.27970819114286977
v -1.5563437516757908e-16 -0.8619786938572167 -0.22430855349117984
v -1.7025833599660393e-16 -0.94158782872073621 -0.12448185585668514
v 0.21584530593762391 -0.94568007481636907 -2.1184668468051342e-17
v 0.20952300304883539 -0.91798025599052402 0.12448185585668528
v 0.19180830400755097 -0.8403670883474319 0.22430855349117976
v 0.16620982221542327 -0.72821281160184204 0.27970819114286966
v 0.13779765093615973 -0.60373095574515678 0.27970819114286966
v 0.112199169144032 -0.49157667899956675 0.22430855349117976
v 0.094484470102747561 -0.41396351135647458 0.12448185585668534
v 0.088162167213959072 -0.3862636925306297 1.3950620684950886e-17
v 0.094484470102747561 -0.41396351135647458 -0.12448185585668531
v 0.11219916914403198 -0.49157667899956664 -0.22430855349117981
v 0.13779765093615973 -0.60373095574515667 -0.27970819114286971
v 0.16620982221542319 -0.72821281160184181 -0.27970819114286977
v 0.19180830400755094 -0.8403670883474319 -0.22430855349117984
v 0.20952300304883539 -0.91798025599052402 -0.12448185585668514
v 0.42086722694403117 -0.8739398018653467 -2.1184668468051342e-17
v 0.40853964783293573 -0.84834132007321883 0.12448185585668528
v 0.37399853873043809 -0.77661596796054277 0.22430855349117976
v 0.3240851899131908 -0.67296983116695031 0.27970819114286966
v 0.26868555226150098 -0.55793129822086196 0.27970819114286966
v 0.21877220344425374 -0.45428516142726949 0.22430855349117976
v 0.18423109434175602 -0.38255980931459344 0.12448185585668534
v 0.17190351523066064 -0.35696132752246562 1.3950620684950886e-17
v 0.18423109434175602 -0.38255980931459344 -0.12448185585668531
v 0.21877220344425374 -0.45428516142726938 -0.22430855349117981
v 0.26868555226150098 -0.55793129822086185 -0.27970819114286971
v 0.32408518991319069 -0.67296983116695008 -0.27970819114286977
v 0.37399853873043803 -0.77661596796054277 -0.22430855349117984
v 0.40853964783293573 -0.84834132007321883 -0.12448185585668514
v 0.60478510780297123 -0.75837653799398896 -2.1184668468051342e-17
v 0.58707040876168681 -0.73616300800258672 0.12448185585668528
v 0.53743492503948598 -0.67392208007424403 0.22430855349117976
v 0.46570957292680992 -0.58398133332005642 0.27970819114286966
v 0.38610043806329053 -0.484154635685562 0.27970819114286966
v 0.31437508595061453 -0.39421388893137432 0.22430855349117976
v 0.26473960222841364 -0.3319729610030317 0.12448185585668534
v 0.24702490318712919 -0.30975943101162939 1.3950620684950886e-17
v 0.26473960222841364 -0.3319729610030317 -0.12448185585668531
v 0.31437508595061447 -0.39421388893137421 -0.22430855349117981
v 0.38610043806329047 -0.48415463568556194 -0.27970819114286971
v 0.46570957292680976 -0.5839813333200562 -0.27970819114286977
v 0.53743492503948576 -0.67392208007424403 -0.22430855349117984
v 0.58707040876168681 -0.73616300800258672 -0.12448185585668514
v 0.75837653799398863 -0.60478510780297168 -2.1184668468051342e-17
v 0.73616300800258649 -0.58707040876168715 0.12448185585668528
v 0.67392208007424381 -0.5374349250394862 0.22430855349117976
v 0.5839813333200562 -0.4657095729268102 0.27970819114286966
v 0.48415463568556177 -0.38610043806329086 0.27970819114286966
v 0.39421388893137421 -0.31437508595061475 0.22430855349117976
v 0.33197296100303153 -0.26473960222841386 0.12448185585668534
v 0.30975943101162923 -0.24702490318712936 1.3950620684950886e-17
v 0.33197296100303153 -0.26473960222841386 -0.12448185585668531
v 0.3942138889313741 -0.3143750859506147 -0.22430855349117981
v 0.48415463568556166 -0.38610043806329075 -0.27970819114286971
v 0.58398133332005597 -0.46570957292680998 -0.27970819114286977
v 0.6739220800742437 -0.5374349250394862 -0.22430855349117984
v 0.73616300800258649 -0.58707040876168715 -0.12448185585668514
v 0.8739398018653467 -0.42086722694403078 -2.1184668468051342e-17
v 0.84834132007321883 -0.40853964783293534 0.12448185585668528
v 0.77661596796054289 -0.37399853873043776 0.22430855349117976
v 0.67296983116695031 -0.32408518991319057 0.27970819114286966
v 0.55793129822086185 -0.26868555226150082 0.27970819114286966
v 0.45428516142726949 -0.21877220344425363 0.22430855349117976
v 0.38255980931459338 -0.18423109434175591 0.12448185585668534
v 0.35696132752246562 -0.17190351523066053 1.3950620684950886e-17
v 0.38255980931459338 -0.18423109434175591 -0.12448185585668531
v 0.45428516142726938 -0.21877220344425358 -0.22430855349117981
v 0.55793129822086185 -0.26868555226150076 -0.27970819114286971
v 0.67296983116695008 -0.32408518991319041 -0.27970819114286977
v 0.77661596796054277 -0.3739985387304377 -0.22430855349117984
v 0.84834132007321883 -0.40853964783293534 -0.12448185585668514
v 0.94568007481636851 -0.21584530593762521 -2.1184668468051342e-17
v 0.91798025599052369 -0.20952300304883673 0.12448185585668528
v 0.84036708834743157 -0.19180830400755219 0.22430855349117976
v 0.72821281160184181 -0.1662098222154243 0.27970819114286966
v 0.60373095574515656 -0.13779765093616061 0.27970819114286966
v 0.49157667899956659 -0.11219916914403273 0.22430855349117976
v 0.41396351135647436 -0.094484470102748186 0.12448185585668534
v 0.38626369253062953 -0.088162167213959669 1.3950620684950886e-17
v 0.41396351135647436 -0.094484470102748186 -0.12448185585668531
v 0.49157667899956647 -0.11219916914403272 -0.22430855349117981
v 0.60373095574515645 -0.13779765093616061 -0.27970819114286971
v 0.72821281160184148 -0.16620982221542424 -0.27970819114286977
v 0.84036708834743157 -0.19180830400755217 -0.22430855349117984
v 0.91798025599052369 -0.20952300304883673 -0.12448185585668514
f 1 15 16
f 1 16 2
f 2 16 17
f 2 17 3
f 3 17 18
f 3 18 4
f 4 18 19
f 4 19 5
f 5 19 20
f 5 20 6
f 6 20 21
f 6 21 7
f 7 21 22
f 7 22 8
f 8 22 23
f 8 23 9
f 9 23 24
f 9 24 10
f 10 24 25
f 10 25 11
f 11 25 26
f 11 26 12
f 12 26 27
f 12 27 13
f 13 27 28
f 13 28 14
f 14 28 15
f 14 15 1
f 15 29 30
f 15 30 16
f 16 30 31
f 16 31 17
f 17 31 32
f 17 32 18
f 18 32 33
f 18 33 19
f 19 33 34
f 19 34 20
f 20 34 35
f 20 35 21
f 21 35 36
f 21 36 22
f 22 36 37
f 22 37 23
f 23 37 38
f 23 38 24
f 24 38 39
f 24 39 25
f 25 39 40
f 25 40 26
f 26 40 41
f 26 41 27
f 27 41 42
f 27 42 28
f 28 42 29
f 28 29 15
f 29 43 44
f 29 44 30
f 30 44 45
f 30 45 31
f 31 45 46
f 31 46 32
f 32 46 47
f 32 47 33
f 33 47 48
f 33 48 34
f 34 48 49
f 34 49 35
f 35 49 50
f 35 50 36
f 36 50 51
f 36 51 37
f 37 51 52
f 37 52 38
f 38 52 53
f 38 53 39
f 39 53 54
f 39 54 40
f 40 54 55
f 40 55 41
f 41 55 56
f 41 56 42
f 42 56 43
f 42 43 29
f 43 57 58
f 43 58 44
f 44 58 59
f 44 59 45
f 45 59 60
f 45 60 46
f 46 60 61
f 46 61 47
f 47 61 62
f 47 62 48
f 48 62 63
f 48 63 49
f 49 63 64
f 49 64 50
f 50 64 65
f 50 65 51
f 51 65 66
f 51 66 52
f 52 66 67
f 52 67 53
f 53 67 68
f 53 68 54
f 54 68 69
f 54 69 55
f 55 69 70
f 55 70 56
f 56 70 57
f 56 57 43
f 57 71 72
f 57 72 58
f 58 72 73
f 58 73 59
f 59 73 74
f 59 74 60
f 60 74 75
f 60 75 61
f 61 75 76
f 61 76 62
f 62 76 77
f 62 77 63
f 63 77 78
f 63 78 64
f 64 78 79
f 64 79 65
f 65 79 80
f 65 80 66
f 66 80 81
f 66 81 67
f 67 81 82
f 67 82 68
f 68 82 83
f 68 83 69
f 69 83 84
f 69 84 70
f 70 84 71
f 70 71 57
f 71 85 86
f 71 86 72
f 72 86 87
f 72 87 73
f 73 87 88
f 73 88 74
f 74 88 89
f 74 89 75
f 75 89 90
f 75 90 76
f 76 90 91
f 76 91 77
f 77 91 92
f 77 92 78
f 78 92 93
f 78 93 79
f 79 93 94
f 79 94 80
f 80 94 95
f 80 95 81
f 81 95 96
f 81 96 82
f 82 96 97
f 82 97 83
f 83 97 98
f 83 98 84
f 84 98 85
f 84 85 71
f 85 99 100
f 85 100 86
f 86 100 101
f 86 101 87
f 87 101 102
f 87 102 88
f 88 102 103
f 88 103 89
f 89 103 104
f 89 104 90
f 90 104 105
f 90 105 91
f 91 105 106
f 91 106 92
f 92 106 107
f 92 107 93
f 93 107 108
f 93 108 94
f 94 108 109
f 94 109 95
f 95 109 110
f 95 110 96
f 96 110 111
f 96 111 97
f 97 111 112
f 97 112 98
f 98 112 99
f 98 99 85
f 99 113 114
f 99 114 100
f 100 114 115
f 100 115 101
f 101 115 116
f 101 116 102
f 102 116 117
f 102 117 103
f 103 117 118
f 103 118 104
f 104 118 119
f 104 119 105
f 105 119 120
f 105 120 106
f 106 120 121
f 106 121 107
f 107 121 122
f 107 122 108
f 108 122 123
f 108 123 109
f 109 123 124
f 109 124 110
f 110 124 125
f 110 125 111
f 111 125 126
f 111 126 112
f 112 126 113
f 112 113 99
f 113 127 128
f 113 128 114
f 114 128 129
f 114 129 115
f 115 129 130
f 115 130 116
f 116 130 131
f 116 131 117
f 117 131 132
f 117 132 118
f 118 132 133
f 118 133 119
f 119 133 134
f 119 134 120
f 120 134 135
f 120 135 121
f 121 135 136
f 121 136 122
f 122 136 137
f 122 137 123
f 123 137 138
f 123 138 124
f 124 138 139
f 124 139 125
f 125 139 140
f 125 140 126
f 126 140 127
f 126 127 113
f 127 141 142
f 127 142 128
f 128 142 143
f 128 143 129
f 129 143 144
f 129 144 130
f 130 144 145
f 130 145 131
f 131 145 146
f 131 146 132
f 132 146 147
f 132 147 133
f 133 147 148
f 133 148 134
f 134 148 149
f 134 149 135
f 135 149 150
f 135 150 136
f 136 150 151
f 136 151 137
f 137 151 152
f 137 152 138
f 138 152 153
f 138 153 139
f 139 153 154
f 139 154 140
f 140 154 141
f 140 141 127
f 141 155 156
f 141 156 142
f 142 156 157
f 142 157 143
f 143 157 158
f 143 158 144
f 144 158 159
f 144 159 145
f 145 159 160
f 145 160 146
f 146 160 161
f 146 161 147
f 147 161 162
f 147 162 148
f 148 162 163
f 148 163 149
f 149 163 164
f 149 164 150
f 150 164 165
f 150 165 151
f 151 165 166
f 151 166 152
f 152 166 167
f 152 167 153
f 153 167 168
f 153 168 154
f 154 168 155
f 154 155 141
f 155 169 170
f 155 170 156
f 156 170 171
f 156 171 157
f 157 171 172
f 157 172 158
f 158 172 173
f 158 173 159
f 159 173 174
f 159 174 160
f 160 174 175
f 160 175 161
f 161 175 176
f 161 176 162
f 162 176 177
f 162 177 163
f 163 177 178
f 163 178 164
f 164 178 179
f 164 179 165
f 165 179 180
f 165 180 166
f 166 180 181
f 166 181 167
f 167 181 182
f 167 182 168
f 168 182 169
f 168 169 155
f 169 183 184
f 169 184 170
f 170 184 185
f 170 185 171
f 171 185 186
f 171 186 172
f 172 186 187
f 172 187 173
f 173 187 188
f 173 188 174
f 174 188 189
f 174 189 175
f 175 189 190
f 175 190 176
f 176 190 191
f 176 191 177
f 177 191 192
f 177 192 178
f 178 192 193
f 178 193 179
f 179 193 194
f 179 194 180
f 180 194 195
f 180 195 181
f 181 195 196
f 181 196 182
f 182 196 183
f 182 183 169
f 183 197 198
f 183 198 184
f 184 198 199
f 184 199 185
f 185 199 200
f 185 200 186
f 186 200 201
f 186 201 187
f 187 201 202
f 187 202 188
f 188 202 203
f 188 203 189
f 189 203 204
f 189 204 190
f 190 204 205
f 190 205 191
f 191 205 206
f 191 206 192
f 192 206 207
f 192 207 193
f 193 207 208
f 193 208 194
f 194 208 209
f 194 209 195
f 195 209 210
f 195 210 196
f 196 210 197
f 196 197 183
f 197 211 212
f 197 212 198
f 198 212 213
f 198 213 199
f 199 213 214
f 199 214 200
f 200 214 215
f 200 215 201
f 201 215 216
f 201 216 202
f 202 216 217
f 202 217 203
f 203 217 218
f 203 218 204
f 204 218 219
f 204 219 205
f 205 219 220
f 205 220 206
f 206 220 221
f 206 221 207
f 207 221 222
f 207 222 208
f 208 222 223
f 208 223 209
f 209 223 224
f 209 224 210
f 210 224 211
f 210 211 197
f 211 225 226
f 211 226 212
f 212 226 227
f 212 227 213
f 213 227 228
f 213 228 214
f 214 228 229
f 214 229 215
f 215 229 230
f 215 230 216
f 216 230 231
f 216 231 217
f 217 231 232
f 217 232 218
f 218 232 233
f 218 233 219
f 219 233 234
f 219 234 220
f 220 234 235
f 220 235 221
f 221 235 236
f 221 236 222
f 222 236 237
f 222 237 223
f 223 237 238
f 223 238 224
f 224 238 225
f 224 225 211
f 225 239 240
f 225 240 226
f 226 240 241
f 226 241 227
f 227 241 242
f 227 242 228
f 228 242 243
f 228 243 229
f 229 243 244
f 229 244 230
f 230 244 245
f 230 245 231
f 231 245 246
f 231 246 232
f 232 246 247
f 232 247 233
f 233 247 248
f 233 248 234
f 234 248 249
f 234 249 235
f 235 249 250
f 235 250 236
f 236 250 251
f 236 251 237
f 237 251 252
f 237 252 238
f 238 252 239
f 238 239 225
f 239 253 254
f 239 254 240
f 240 254 255
f 240 255 241
f 241 255 256
f 241 256 242
f 242 256 257
f 242 257 243
f 243 257 258
f 243 258 244
f 244 258 259
f 244 259 245
f 245 259 260
f 245 260 246
f 246 260 261
f 246 261 247
f 247 261 262
f 247 262 248
f 248 262 263
f 248 263 249
f 249 263 264
f 249 264 250
f 250 264 265
f 250 265 251
f 251 265 266
f 251 266 252
f 252 266 253
f 252 253 239
f 253 267 268
f 253 268 254
f 254 268 269
f 254 269 255
f 255 269 270
f 255 270 256
f 256 270 271
f 256 271 257
f 257 271 272
f 257 272 258
f 258 272 273
f 258 273 259
f 259 273 274
f 259 274 260
f 260 274 275
f 260 275 261
f 261 275 276
f 261 276 262
f 262 276 277
f 262 277 263
f 263 277 278
f 263 278 264
f 264 278 279
f 264 279 265
f 265 279 280
f 265 280 266
f 266 280 267
f 266 267 253
f 267 281 282
f 267 282 268
f 268 282 283
f 268 283 269
f 269 283 284
f 269 284 270
f 270 284 285
f 270 285 271
f 271 285 286
f 271 286 272
f 272 286 287
f 272 287 273
f 273 287 288
f 273 288 274
f 274 288 289
f 274 289 275
f 275 289 290
f 275 290 276
f 276 290 291
f 276 291 277
f 277 291 292
f 277 292 278
f 278 292 293
f 278 293 279
f 279 293 294
f 279 294 280
f 280 294 281
f 280 281 267
f 281 295 296
f 281 296 282
f 282 296 297
f 282 297 283
f 283 297 298
f 283 298 284
f 284 298 299
f 284 299 285
f 285 299 300
f 285 300 286
f 286 300 301
f 286 301 287
f 287 301 302
f 287 302 288
f 288 302 303
f 288 303 289
f 289 303 304
f 289 304 290
f 290 304 305
f 290 305 291
f 291 305 306
f 291 306 292
f 292 306 307
f 292 307 293
f 293 307 308
f 293 308 294
f 294 308 295
f 294 295 281
f 295 309 310
f 295 310 296
f 296 310 311
f 296 311 297
f 297 311 312
f 297 312 298
f 298 312 313
f 298 313 299
f 299 313 314
f 299 314 300
f 300 314 315
f 300 315 301
f 301 315 316
f 301 316 302
f 302 316 317
f 302 317 303
f 303 317 318
f 303 318 304
f 304 318 319
f 304 319 305
f 305 319 320
f 305 320 306
f 306 320 321
f 306 321 307
f 307 321 322
f 307 322 308
f 308 322 309
f 308 309 295
f 309 323 324
f 309 324 310
f 310 324 325
f 310 325 311
f 311 325 326
f 311 326 312
f 312 326 327
f 312 327 313
f 313 327 328
f 313 328 314
f 314 328 329
f 314 329 315
f 315 329 330
f 315 330 316
f 316 330 331
f 316 331 317
f 317 331 332
f 317 332 318
f 318 332 333
f 318 333 319
f 319 333 334
f 319 334 320
f 320 334 335
f 320 335 321
f 321 335 336
f 321 336 322
f 322 336 323
f 322 323 309
f 323 337 338
f 323 338 324
f 324 338 339
f 324 339 325
f 325 339 340
f 325 340 326
f 326 340 341
f 326 341 327
f 327 341 342
f 327 342 328
f 328 342 343
f 328 343 329
f 329 343 344
f 329 344 330
f 330 344 345
f 330 345 331
f 331 345 346
f 331 346 332
f 332 346 347
f 332 347 333
f 333 347 348
f 333 348 334
f 334 348 349
f 334 349 335
f 335 349 350
f 335 350 336
f 336 350 337
f 336 337 323
f 337 351 352
f 337 352 338
f 338 352 353
f 338 353 339
f 339 353 354
f 339 354 340
f 340 354 355
f 340 355 341
f 341 355 356
f 341 356 342
f 342 356 357
f 342 357 343
f 343 357 358
f 343 358 344
f 344 358 359
f 344 359 345
f 345 359 360
f 345 360 346
f 346 360 361
f 346 361 347
f 347 361 362
f 347 362 348
f 348 362 363
f 348 363 349
f 349 363 364
f 349 364 350
f 350 364 351
f 350 351 337
f 351 365 366
f 351 366 352
f 352 366 367
f 352 367 353
f 353 367 368
f 353 368 354
f 354 368 369
f 354 369 355
f 355 369 370
f 355 370 356
f 356 370 371
f 356 371 357
f 357 371 372
f 357 372 358
f 358 372 373
f 358 373 359
f 359 373 374
f 359 374 360
f 360 374 375
f 360 375 361
f 361 375 376
f 361 376 362
f 362 376 377
f 362 377 363
f 363 377 378
f 363 378 364
f 364 378 365
f 364 365 351
f 365 379 380
f 365 380 366
f 366 380 381
f 366 381 367
f 367 381 382
f 367 382 368
f 368 382 383
f 368 383 369
f 369 383 384
f 369 384 370
f 370 384 385
f 370 385 371
f 371 385 386
f 371 386 372
f 372 386 387
f 372 387 373
f 373 387 388
f 373 388 374
f 374 388 389
f 374 389 375
f 375 389 390
f 375 390 376
f 376 390 391
f 376 391 377
f 377 391 392
f 377 392 378
f 378 392 379
f 378 379 365
f 379 1 2
f 379 2 380
f 380 2 3
f 380 3 381
f 381 3 4
f 381 4 382
f 382 4 5
f 382 5 383
f 383 5 6
f 383 6 384
f 384 6 7
f 384 7 385
f 385 7 8
f 385 8 386
f 386 8 9
f 386 9 387
f 387 9 10
f 387 10 388
f 388 10 11
f 388 11 389
f 389 11 12
f 389 12 390
f 390 12 13
f 390 13 391
f 391 13 14
f 391 14 392
f 392 14 1
f 392 1 379
